<mxfile host="Electron" agent="Mozilla/5.0 (Macintosh; Intel Mac OS X 10_15_7) AppleWebKit/537.36 (KHTML, like Gecko) draw.io/25.0.2 Chrome/128.0.6613.186 Electron/32.2.5 Safari/537.36" version="25.0.2">
  <diagram name="PÃ¡gina-1" id="MUzPkVVFBvX6Nr-B5AYN">
    <mxGraphModel dx="880" dy="1638" grid="1" gridSize="10" guides="1" tooltips="1" connect="1" arrows="1" fold="1" page="1" pageScale="1" pageWidth="827" pageHeight="1169" math="0" shadow="0">
      <root>
        <mxCell id="0" />
        <mxCell id="1" parent="0" />
        <mxCell id="nCm9h4k0v_SC0XBHQk2t-22" value="" style="rounded=0;whiteSpace=wrap;html=1;fillColor=#FFFFFF;" parent="1" vertex="1">
          <mxGeometry x="60" y="-100" width="840" height="400" as="geometry" />
        </mxCell>
        <mxCell id="kolwT_sCDZHJymD6lZTs-1" value="imagem base: python:3.12-slim" style="rounded=0;whiteSpace=wrap;html=1;fillColor=#FFFFFF;strokeColor=#ABABAB;labelPosition=center;verticalLabelPosition=bottom;align=center;verticalAlign=top;fontColor=#FFFFFF;" vertex="1" parent="1">
          <mxGeometry x="330" y="-70" width="540" height="340" as="geometry" />
        </mxCell>
        <mxCell id="nCm9h4k0v_SC0XBHQk2t-16" value="python:3.12-slim" style="rounded=0;whiteSpace=wrap;html=1;fillColor=#FFFFFF;strokeColor=#ABABAB;labelPosition=center;verticalLabelPosition=middle;align=center;verticalAlign=bottom;fontColor=#808080;" parent="1" vertex="1">
          <mxGeometry x="90" y="-70" width="180" height="340" as="geometry" />
        </mxCell>
        <mxCell id="nCm9h4k0v_SC0XBHQk2t-6" value="FastAPI" style="shape=image;verticalLabelPosition=bottom;labelBackgroundColor=none;verticalAlign=top;aspect=fixed;imageAspect=0;image=data:image/png,iVBORw0KGgoAAAANSUhEUgAAAMgAAADICAYAAACtWK6eAAAEDmlDQ1BrQ0dDb2xvclNwYWNlR2VuZXJpY1JHQgAAOI2NVV1oHFUUPpu5syskzoPUpqaSDv41lLRsUtGE2uj+ZbNt3CyTbLRBkMns3Z1pJjPj/KRpKT4UQRDBqOCT4P9bwSchaqvtiy2itFCiBIMo+ND6R6HSFwnruTOzu5O4a73L3PnmnO9+595z7t4LkLgsW5beJQIsGq4t5dPis8fmxMQ6dMF90A190C0rjpUqlSYBG+PCv9rt7yDG3tf2t/f/Z+uuUEcBiN2F2Kw4yiLiZQD+FcWyXYAEQfvICddi+AnEO2ycIOISw7UAVxieD/Cyz5mRMohfRSwoqoz+xNuIB+cj9loEB3Pw2448NaitKSLLRck2q5pOI9O9g/t/tkXda8Tbg0+PszB9FN8DuPaXKnKW4YcQn1Xk3HSIry5ps8UQ/2W5aQnxIwBdu7yFcgrxPsRjVXu8HOh0qao30cArp9SZZxDfg3h1wTzKxu5E/LUxX5wKdX5SnAzmDx4A4OIqLbB69yMesE1pKojLjVdoNsfyiPi45hZmAn3uLWdpOtfQOaVmikEs7ovj8hFWpz7EV6mel0L9Xy23FMYlPYZenAx0yDB1/PX6dledmQjikjkXCxqMJS9WtfFCyH9XtSekEF+2dH+P4tzITduTygGfv58a5VCTH5PtXD7EFZiNyUDBhHnsFTBgE0SQIA9pfFtgo6cKGuhooeilaKH41eDs38Ip+f4At1Rq/sjr6NEwQqb/I/DQqsLvaFUjvAx+eWirddAJZnAj1DFJL0mSg/gcIpPkMBkhoyCSJ8lTZIxk0TpKDjXHliJzZPO50dR5ASNSnzeLvIvod0HG/mdkmOC0z8VKnzcQ2M/Yz2vKldduXjp9bleLu0ZWn7vWc+l0JGcaai10yNrUnXLP/8Jf59ewX+c3Wgz+B34Df+vbVrc16zTMVgp9um9bxEfzPU5kPqUtVWxhs6OiWTVW+gIfywB9uXi7CGcGW/zk98k/kmvJ95IfJn/j3uQ+4c5zn3Kfcd+AyF3gLnJfcl9xH3OfR2rUee80a+6vo7EK5mmXUdyfQlrYLTwoZIU9wsPCZEtP6BWGhAlhL3p2N6sTjRdduwbHsG9kq32sgBepc+xurLPW4T9URpYGJ3ym4+8zA05u44QjST8ZIoVtu3qE7fWmdn5LPdqvgcZz8Ww8BWJ8X3w0PhQ/wnCDGd+LvlHs8dRy6bLLDuKMaZ20tZrqisPJ5ONiCq8yKhYM5cCgKOu66Lsc0aYOtZdo5QCwezI4wm9J/v0X23mlZXOfBjj8Jzv3WrY5D+CsA9D7aMs2gGfjve8ArD6mePZSeCfEYt8CONWDw8FXTxrPqx/r9Vt4biXeANh8vV7/+/16ffMD1N8AuKD/A/8leAvFY9bLAAAAOGVYSWZNTQAqAAAACAABh2kABAAAAAEAAAAaAAAAAAACoAIABAAAAAEAAADIoAMABAAAAAEAAADIAAAAALiTH68AADyXSURBVHgB7Z0HnJbF9e/P7r67y1JUehMEFwSpIs2GWGOJJiYx0TQ18Z9miyXNlGs0MdF78//nr6b/c+ONJsYOiiIqVVCQJgYUkF4WpEjfhS3s3vnOy+/dB6Rsf993d87nM8/MnDnnzDzz/M4zM0/NWL9+fUVZWZllZGRYdna2VVRUWHl5uc+bo/379xP5MtKlpaWWm5vr+bFYLCGLDoRMZmamYbNZs2a+vKSkxJCFT3lWVpaXZSMefNpAngBhU3zVBY9y2gHBlx51sg/RNsgWslE59Pbt25fYZ3TVRtlBh/roE3RF1K2+ooz9Ida+qc0bNm+ybbt22eINBVbsypft2m7lLt7kdn9LabHXQW9P2za2rXSfFZWWWUVGhTXLjFnr7FxrvafIrCy+ny1iOdYzw/W3q7vHcSfYCdk5lt++gx3fooWd0qOnbyftxx7tZ79Jw6M9EPsAT/0AT/LwtE/sM3lIuurXpnb8M9asWVNBZ6pT6FxI4NbBppxOgoqLiz0o6Hw6DICo80kDPCgnJ8cfLDkEMtgRcXAI2JUdyg89uOLJDrKqjxg+7RQwZB8+upTRFuoiDY+2E8PHgRWjg03agKwoqoMdyVC+ePlyW7Zlky3ettVWlxXbSheW5laeBGSjPuPuFVl2Umm5newcqW/L461flxOt78knW8ztj/ZbfaDjDZ+gPPsUjv/Bxz9j5cqVFYCFjmFkoMMAAyQQARQ6ESLGQQRqxcjSwRAxOoAN8BETqIMyHQgOmGQpi9qiHbIlGbUBWdLYhEjDI0/bCdjSfuBQ5LGj/aN91I8MfMlgizLk4MsettnHj7Zvt7lLF9t85xDvFhfaO81jVnygv3xjUmwzqCzDTsvIttPbtLfTT+5l3bp08cdE/cO+huN/5OOfsXr1aj+CAAB1loAloHDMARMghOQ4AjG6jBqMOhByAl7UrkCIHrYh2QKYsodTQfCwI3Cr/qhNQAxhD3lI7ZecZJRHhrbojEqeutVmgYf6ypzd2Yvfs+lrV9nUihJbHkM6famrO/edXR6z8zt3sxG9+9hxrVolTjbh+MdPltHjn6E1CEAVyAALAUBp/QDIACDA0hkHgKEj+agNIESZYirFHiCET1pnaDmCgK26qBs9iDLqEdixQf3oyjkBNHnZV/2yTx4n1qiGLWxSrjT1bNuxwyYsmG+TPvrQ3mqR2iOE75xabEaUZtg52c3ts0NHWKf27X1f6Hg21eMvvBH7EQSgCYACmABDLIAJwHSc5OABPMkQy4HQJa0KBUZfsStDV/pM7zR18wpugz4BkixpOZrqoU5s47zYQRY9HAZZ+GozZZJHB8IJ12/YYC+8O89e2b3NFual+TDh96r6m67FZfaZ3OPssj797NT8XokTko4tfQepLznu8BrD8RdGwI32k33NWLdunUcJBeyoAKk8nUEQ2ODrDBM9wwv82CANeKOjDw2A6GyIRmAXe6rrUJ4XdBsBmRhZ9HRQqENOIT561COHQwfbsq8DvtdNCye+M8+e2brRZmTFp4+qs6nHp5Zn2hdatLFPnz7c2rZp0yiPP3gigAcCGIfALpgBW4kpFuCCBCafcRsZ4SwrLwNoGKQMY4BVPNlBFlvIEAu8mgbJPnx0saE1gexhmzJINrAnitonjR7ltI00bUZfbYCHzRVr1tjj7861F7NKbbtV2pPdEFf2QLPMLLuk2OyrfQfa4F69/XHUsaZf0/H4027wGcU0mNF+6WTOdNw7CAUqBGikARNnZgiDGg0oo1MgGaVMYERfwFZDcAJ4cjCvfGAjR5MNZJBFFz21h7zqJi2SvurSGoNy2gRf8m/9+13744r37c3c+LRNNkJctR7oW1xu3+jY3T595tmW5QCVbscfTAufmhHBg8CK0lFMJaZYgAgAYgBBnfEBK8YwgCJpysXHOI4EsFU5dtAX6FUx5cgxUpAmYI8YkgNInjZRRow9YrVBfO0M+iqTY6kTxs6YZn/evN6WNmvYexO0qTFS+7Jy+2az1vb5M8+xPHeWTfXjD1bAlE6Yuo8HTiBwdyiBNeQz1q5dWyGAwgT4GCMNwMhDpAVs8QG7KkWePJUCVDkJupRRBw5DGUF89OGjR5AsMYQdOYPKfIHbHJqXPvxiZ/Nf06fa73Zvso+ym+aiW/1UX3Fe2X77Ukae3Xrexf5ycSodfzAAHvS0BH0A7oSlQ50CWeFeJ39kEw6CAMCHiTLAZYcxSoxzAGSIaQwNQJ5y5MmjI0KHPDJUrMbBIw8Ro6sy6lY74GFTMfa0GEcO0k4iQ1BnPPfmdHtoxwZb7x7bCFT/PdCqvMK+ldfGbhx1vh9RqDGZx5/6wQP40slcPPjCHG0EY+BJA4GwjBzk1yAIQSoUAKkAxxD4cAw5BWXyOnRVMXytAyjHFo4FuCkT6CmjgcTSp4w2wJcTKs8OqNHYURvR1U5OmjfHHlyz1FbkVTqqNx42DdIDrUvK7NYW7e3GSy9PzAoa8viDFXBCnaRF4IMgrFEu/AiT5IVhyXo5nsUiIeALhL7Q8QVG8lRKOQZIq0KlKUNecmogfNmnHMLx4GFX9uAzwsge5ZRBaqMcBzuU43hL3LNQ9y5422Y2C4tv31lJ3uTvLbX7+5xmIwYM9C2p7+MfPdGCF+ECjIBR8CT8Uk57IPg4FGsSraOQl6xPswZBWGDHKEYIEmYEiJ7BMQwJyBikUjUUeYAuO5SRRl6OQV4y1IkN9CHxqV91aacol2OVOPmHJk6wv2Xss5KKyjMGMoGS3wNXlmbaj8863zq6O/T1cfzBB9gRvthjcCQsgSMwBXapX0Q5uCKGkEGWPNgFo6TRydiwYUOFgKmKACBGaYDAiCEBVnICNsawIRBTQdTRSHPmp1FR56EOyiAao52Ah0dTt2wigz468CfMnW33bFzpFuDxswHlgVKvB/L2l9u3Yq3stss/ZcCxro4/uACPcgBGAc0uwImwAqZUp3jgC10InvAPD7uUg2HvINxJRwiQAz4tdOVBMkJecjKkPIbkSPJaKiL4Sg44EPaxg6waSDlEo1SOXfLIEmMTHuU8J3XXxJdsSrPgGL7j0mRzyr799ruh59gpPXvW6vgLK+AHYBMLQ8IauBH24CFzKOaQgeCDK136RU/ypBP3Qby02wicAit8KkFYTiADAq0aiA4y5CnDoyHpCfCe6TYAHweADt2hQ3ee8ldnv213b1pl2zLCdMp3WpptuCt/U0Zzu+niy3zLq3v8wQ/YAswQswwIrImEVWGQmHqIIfCmMjAFliHhnrRmL+hlFBQU+CmWHEILFgEdAxrGUEaOvBoLj0pxBnSQV4OjXqqGoKvhCx66BJXTeNmRLe5p/GjCi/ZidtyZqDNQ+vbAMLfU/O3I86x7165VOv4AGQJXYIrAtAl8gBfyklEsR4hiTLhDRhiVDeSxAz4hOZW/D+I5boMSCqoQYfKaw9EYAhUQI0+lciYZPVJl2FLDtCPUjT51Uo6u7FP27w+W2i3vz7X1OXFPhxco/XuguVub/KbjyXb5GWcd9fiDCwEXfIFJTtLgT0Q5uCIGO8TCJ3nKhElicIYtcIct6UZj4dyPIDIIU85A5RLCKGmMUU6MjrxNYKcCKqeMgN6hPO0U9lQHslHnoA6GuT+9Ot4eKN0hlRA3wh64pixmP7v4k9bSvVsPXsCSjr+wAx+ijBkO4AYzlEtGjgCuKAObyMEXfg/VEY41YyFGXnWh569iUYmMUKhRgbQ8TIAGyHpBiXKMoh8FOTpqIHraQdmiEbJHZ0DaQXZqn+uE218Za6/lVJ4lvFDYNMoe6F9SYb8fPso6d+iYAD+4gnTiFJjhgScBGexBkgOH0TxpsAimkZUDYR+bwiR5bAjf8L0sbxQCUoCJIRVgmMoI0QZhiMZhCCIt4zSAgC01XI6CHSqEjz3NB+HDI8bWOvfi0vWzp9jKWHxHfSVh0+h7oLW7CPznHgNsWL/+fl/BgvACPsgLKyoTyKPYApdyAvgEXaGK4k74BftgHjnhHH2IOJNKmM7QCIAN0YCoo1AmioIfnhpPTFCjVCHyNIaGqGJ4youH7uxFC+2yucE51NdNKea9nC+uXmRPTJ3s8QIewCYxWBQBYoGbkyxpsAZmyUPkIbDFCZoLSPCIwR062I1iDzny2BcfG85u5cNbqhweXocgaQJpGgwBcDUKw6qMipGVHGlsEkgjh4yCbGD7hbdm2JfXvGd7MsPI4Tu5CW4cNO2nRZvtwXFj/N6DE5wD7EDE8MAT2CEIW1FQg0kR+soLf5JFF5742MN+FJeZZCCE8ECUMECaBuEoVIKiRg/SGgHwSuThIU9asSrCPuXYgUcdkseZHp7ymt21a4OVhsdF6KomT3+wIrvFrUFZiwrAdApYAVsCPFgCb/DhkYYHzoRJdaZkKdPJXydysBgl6sSex6gMowjoMRQ1JgeAR+NwEirXtEwejFFVrJ3AtuwhRxqCT+Ow89MXnrWHi8OVqugBCmmz8RX77LoXn/ZOohMuGAI7YJA0mAPEwhV4IsBHRxijHD14lHHyRw4iTRlEGXzk8Advh8pgSAAmChilETKkWA3DGWiAGqdYjcCeRiHS7Ai2CThXhqvz+6+/bE/mVq5vkAsUekA9MLdFtn1l8nj/sT7wpTM9WAS3kEYBrTPAbhRryJIHcxB5BgJwKEcjjuoIw8hkogBDFeEA5AV4ygVsyiBijNIoyjCuRqBHAyhHVzrIkaacofNrLzxlz5bs8vbCJvTAkXrgHSuxz015yXbv2eOxA67AkDApMAu/nPkpJy/ZqDw4hYjhg1EIzGIryifthw45CQYJEBVgAKJSBXiqRCONnEiVyQZy7Ijsk+axkbunTLDp8QsO3n7YhB44Wg+sck9s3zDjdduxc6cXE87AEzgF2OATPMphEKQMWckLz+ATXU7YzHLgE+Rc8ElDzl58YQ2YKdBZHqN4FTE8bg5GKyONLoalc8BgYopGg6kI28g7YfuPl56zMWWFvvKwCT1Q1R5Y4D77+tmp423rtm0eS2BLU3hwCD6VxzGUpozlgByCGJKzYAdsKk85PJHTj1+KhQGQCfAANp4mcFOhjKucGCfCQSA5C3rRSiknf/fkCTYjPhX08mETeqA6PbAmJ9O+MWuKn4WAR3AF1nAIXTQCZ5QRE8CnZIVt6tTIA2bhQ8grL/1MKiFgCAdAmBgB+Bo5SMPDKTAuPSqnkXipiEoIELZI/69xz9vzZXskEuLQAzXqgXet1K4f94wV7d3r9cEXWASTpHUlVUBnnUy5FunCKTiPjhQYQ0e4J03IREiehaGoc5CWd+EYKMBTDI8A4STok9fUjFEI+d9OfMWeyA6f9vQdFTa17gGubt3y+oseb+ALEj45YQuDOA34Jo8cITq6gFmIQUCY9gy3QdcPCAhhgIwUKNTIoBEFRWQwFI1JQ8hJVo3FYca+OT3c5/A9FDZ12QNTssrtwdfHe+zqRCxnECaFQ53k5QTCL/LwJEf74GEP7EL+TjoKCOFhpBmONLXCWQR+YsqJJa9yDDJ8wVeY894i+/Gezb6isAk9UNc98NfyQntsyqQEHsElOGQGA8kRiME25TgEDgBp1gNPjgJ2IWQ8D4MCPIbwIGJGEPgQMXw5kLyLGCPEcgo1puDDD+3GVQvdjDHcCPSdGDb10gP37t1s0+bPS5zxwSgEfgG5RglwSpkwjAxpyYFb4Z6TPvJQ4j4IGYRZ1EACOoKk5X04Aml4eKCGIyqDj/cWFhXZV2ZODA8e+p4Mm/rsATfpt++sW2wfbtniT9JgkBkQ+MQ5yAN4AgR+hWnynNwpIxbm4YucfHxKxPQIQY0giilHUaMFjgAPgodD4CTIiH7kbgSG9znUGyGu7x4oynI3Et07RPzvBfCDY53ENRLoMrD4YBYCw8I4sgSty71vwADkYhJDxJRpZEBYToIzeGXHQ448FSL76JSJNiEWX+B4Q2ETeqABemCFe8Huh+7DHmAQwknAL7Gwi3OAYWTAPHwROFYZeCZ4XRIoMGLAkKJ4GEARohw+OlQuHrrI8IGFB8rijwP4wrAJPdCAPfBSTrk9OW1y4uSNQ2ikoBlgF8IxcAhwqxg+mAbHxPgBsXchDDEECfRMt1DUE5LwCchBchhvwFXmr3o5nVsXz/PlYRN6IFk98ItdH9oHq1b5kzlt4KTOCV2jhUYTYtbcwjIyEJiOphMOQqG8hzTeRh4PlGMQE+DjYSIc6oevvGAFuZWvRqosxKEHGrIH9rr1yB3vzrT9Dr9gFLxqPU07NNsBszrBwwfTyOIcBHCPbCaOoGkTApCuApBG2As6j9MUC2VGGMrQmfzOfBvnhrdAoQdSoQcWu2e2Hpn0qh81wChY1cmfNPgGw5SBfXjk5STEELxMAC4HkSB5hBiGMEKaG4dSwvNwFsoLNm60H29d7cvCJvRAqvTA78v32MLly/wJnDaBc3BLAM/CPGWadsEX7in3IwwbKeMM5CnEWcgzTJGWI+EolGOU+CfTJ4Y/xdLLgVKuB253a+I9hYUJxwDPEFhm/QHWOdHLB+DLF5AD45nMxeQYMJWGj7IcxQs7BQgvw+grc962KXmVl8p8YdiEHkiRHljrPlf7++mTE6OCHIITOyd6nfzBMwTGIeSYXh1YWsTf/aAAQRwDL0KYWISwpmDM4Xjc+J6NK1Qc4tADKdkDf3HPay1zV7VwCrANgWswTIBPnpjBAZxD5P2ggLdQgHPAxHPgaQhCAb6UMIbsI5Nfcz+vqXQgLxA2oQdSrAeYVN2/cLbHsJYKwjtNjc6QwDb4h/AB8pkwmEoRVCgDcgwECfDxwg9WrvS/PfOWwib0QIr3wIwctxx4e6YfHTjh66QPvjnZE8A2ea1JtEsxmAK/vAYeCuTxMAgjmmLd++4sK2kWRg91Yk3jIW072COjLq6petrqlTl83T9/pr2+fnWD7cO9m1fZhRXDmDv5gQCMC/s4DNgmz7QLrOMTUAxHIEByDAoRivKYj1E+7d13bFZwDt83td3cPOB0G9KuY23NpJX+sh3b7IYp423BRw37ntCWWJb9aepEu8393Qq8g2fhXgMEPEYQYvAP3v19EPUwCowaGmbII4gCRij71cr3JR7iWvRAu9w8u6bXqbWwkH6q/7P4XTtrzD8a3DnUU39xX/Dc5b6vBabBtpYUlINtCB4jCnnvIH7jHACCKc/CAI6CY0jmmenTbEVefMrlFcKmxj1w46mDeJ2zxvrppLjTrVu/OPFFu/3NSVa0P3nfJuAxlP+eMcVPp3ASAhgnhjRA4AP4As7iv6xIAUwCwtEhR0p88O3hnRvT6bikbFvzMmN2U/8hKdu+umzYpII1NvK5x+zF1cvr0myNbT1he21tQYF3EuFe6w+cAoeBhPuEg2hahRAkR8GLcJjH3XseG7KaxhnPd0A9br7ap7+1y2tejzUk33SRm6bcMv01+9Qrz9m6ot3Jb9CBFpS6weCh2TP8CAHGcQRIAwRYJ82syc+ocAB5Ek5CIXm8CgENP38s2nqgihDVtge+08hHj/e2b7Uzn3/cHl26qLZdVS/6Y90H07fv2pV4aJFKwDoB7OMciaUFhTiDiAUKTiJh0mOmT3U3BcOj7Oqj2sSf7tHLTjmhTW1MpLTuf70720aPecKW707dX1q4S1H2iPsnDRjnvh4xTqERBeeAB/kplpwCIUYUOYeOxF+2rFcyxLXsAS7tNkZat2eXXTH+WfvZnBm2tzx5C/Gq9u1TGcW2fccOP1LgGFp7yDk0m0r8YYqRAueA5D0oznT/DVySG24KVrXjjyY3vH0nO7vTiUcTScuysauWuYX44zZlw9q0aT8fenh23mw/WwL3BHyABxgJYJ84RkLzLfaOtBbspP+w3M0j3a36QLXvgdsGDq29kRSysKe0xG6e/ro9u3JpCrWq6k35w46Ndr2bNWmhTszgAO5xGGZUfoqFp6gQh9EIsnLtWnszOEfVe/wokr2PO8E+e3Kfo0ikV9H0jett+LOPpa1z0NvbcmI2fu7shEPAwznwAflDYoolpyAm4D1PLHwHnUB10APf6ndaHVhJvokSB56fu3XGpS8/bWsL0/8PYf/YsNpjPboO50l2yK/Jo46BEEOLn3+59JiM+Gu2yT8s6d2C5lkxu77PwPTeCdf61bt22pfdHfEF27ak/b5oB+Y4X1jhZko9Tzwx8S4IaxHNpPwzJjzByJCiO4o4yaQF88OrtOrFWsbX9xlgzSOX0mtpLinq//jgPRv+3N8blXOoI59cON9PrXAMfICBAn8g+P+D4C0szBlSmINR8PSWAumHuBY9wOWNOwYNr4WF5KpuLNxjn57wvH3rjVeT+hxVffbCmAz3UqDDPPiHGCDwB+8gMEjoI3E4yIebN9uMrPgDXJQHqnkPfCG/r3Vt2armBpKoOc49P8VzVBMb8L2NZOzuNttvE2fP8oODfvuBP+AomSQ0aige886cZLSzUdaZjjcGeY7q+zOn2LVuvfFRSdNYh45dv8pfnNILU7rV4e+DMOfCOZhqMQ+bsGe7WV54tKS2Hnt2xy421N0cTCda6BbgN0x6yZbsdBhoQjQtO34PhFseEL7gp1hcxWIUwTFwEl4oWRico06gcetA94pnGtFvFrxt5439V5NzDg4Rd9Ynz5mdOFr4AiGGx+Acuv/x8rwwvUr0Ui0SfY9vbVe6BxPTgdbs3mlfmTTO5m9t2NdgU61vXnePypw1cJD/og8+4X2Dy1rcGNHKfcqOpt1JdXXQvpsmV66eWbHE3xFv6s7BcX+9vMhf5mVqxRTLjyBkNO8qdZe23mru1h4HLnfVFViamh3eN/+8u3qVyrTbzRy+M/1VG+MeNAwU7wE+7PD+ihXWLz/fM7js67/uzuiBt7z9/iIrDs5Ra7zcPGCIu8aRuhc5pm1Y52/6Bef4+KGevGKpX24wgvjLvGy8p7g51yz3AFqg2vVAlrvo8fW+g2pnpJ60uRl2/7y37PLxz9i6wtR5DbaedrdGZmft2eEdhAEDv/CXeVmQQFOt8qc4NbIelOxa9ymfVHzffPH2j+yGyS/ZIhcHOnIPzGyW6X8GyhdncBLvGaxDtrm3q5Zlxl9gP7J6KDlWD9yegpd2H/73XDt37D+Dcxzr4LlyPODt9xZ550A88QOdOUvCB+HokNrQeZ27Wb827Wpjok51t+wt8l8VuXv2G432Oao67bADxua6NRqjB+SnWFzqnb9lk3vX9oBEiGrUAz8YckaN9OpDacK6VXbTtFdt076i+jDfqG0uKN0bv4vulh7+27x82WHBPrdoC3fQa3zg+7kvlYzu0q3G+nWlyHNUP3Ujxp/dZz4D1awH3smq/LB1jDvoDCcLmue6CVh4grdmXWp25+ARNVWtM71ZmzbY1yaPbxRv+tVZp9TAUKF77GT5mjX+JSp3ASvTv1FVHJyjBl0ZV+mc1yLpH6J+wP1O4MJxTwbnqPFRPFhxUcE6z4jhIEs+3HBwachVqwe+O2ho0j5EzXNUN055xWZuDsewWgftGMJL3IfvPuPuEcZYfyzZFj4reoz+OmJxy6zspL1v/tTyxe77t6+HK1RHPDo1L1haXOQX6jFeEFlZ6l6Kqfz6aM2tNkHN69z75sfluPVbA1KhW4h/Y9or9kKKfDG9AXe9wapa6Z4UYnblL/OuiYXruzXt+e+f1rCLc35bdvMbr1lB0Z6aNjnoVaEHCtwtdP7kHOMK1pKMcPWqCn32MRE+RN2heYuP8euDweXbX7jnqB5eNK8+zAebh+kBPgcUW7Vu7WGKAqsqPdBQ75vzOwFeg33f/d8vUMP1wHrX37Ed7hXbQNXvgYb6EPWf319gP5n1Rlp8Mb36vZjaGtuKiiy2ZGO4PFiTw/Ttev4JzuaiQvdC02vGIyOBktMDS92l3lixf34xOQ1I11r5EDWPtdcXPb/qA/cc1Wu2uyy8flBffVwVu/vctavYB3zeJVzirUp/JWTq60PULMQZNdL1dwKJDmokiQ/cQ4sxfW6xkexTve9Gm5xm9XJjcP7WD91CfLytSOFfl9V756ZYBbyBGduUy7vTYSiv6rG5zv2hti4/RM3Lag+8M8t+5QIHJFDq9MCm44+z2Ja9he4x9zDHqsphaeb+b86HqOvqtmphWan95O03bM7mjTa4TfuqNCFpMkWurUub2NcWt5S4KRaPuweqWg9c70aPzi1aVk34GFJ8R7x5LNt+e/aFx5BMfjF3729yd++bIvkXpprijtdkn29yn/OpCypzX8tIh8kUFw3um/emPbJofl3sdlraiO1p29o9dBJuFh7r6J3Tqaud2rp275szauxPk++OLd3xkfub1Dhb3MTv3seayuftj+UAxyr/Xi0fSsQx4r9nOVZNyS//03sL7GfhQw/+QMSKysKDiseCJB+ivrx7/rHEjlhemiajxibu3ru1xqvuXxmB4j0Q85dk0mFCnMQj9v0afq2EU0+63Gd6zv3rnIX4Hne1KlBlD8Ry3VWsonD9vbJHDknxIeov5Ff//+bptBC/663J9tiy9w7Z85ClB2Kts3OtqHhv6I0j9MCdg4dZrvuNc1UpnRbi87a4u/fuKygrw937Ix7eWOs9RVaQHe6FHK6H+L/5DdX4v3m6LMS5e/9r9xUU7t6H2fXhjnwlL5bhPvNu2VU/Q1aqNv7UDe5986p8iBqQMaVKB1q7e5dd5z5iPceNHoGO3QPBM47SR3cMPvb/zdNl1GA3H12y0H7g/l5btL/sKHsdiqI9EGsZy3H59Dj7RRte3+lre/W1k1odf9Rq0mUhvtV9n/emN163l9euOOr+hMKDe6Cl+15DrEdGzGaGp3kP7hmXu7n/6R/jiZFOC/FX3RuJfAVlIw+lBqpWD/TYV+Y++8N/ofOqpdfohQe2bmsj3T/OD0fpMmrsc/+b/JVbiP/nv8Nfiw93HKvCY30ey3dgsH3hr0PRDrvjMI+VpNOoscT9ReprU162f4cvZkYPa7XTPXOaW6xlRvz3a9XWbqQK3Vq0sq/07n/Q3qXTQvxBd+mWF7BK0uSq2kEdnWKZ5qVuipXfvoPZ2i0p1rTkNee2gUMTlafT5duCPbvta1PH25sfFiTaHxK164He7hm82PEN9GXA2jW1YbRbuSt6N54a/0NtOj1H9cLqZW4h/rptL3HfWA5UZz1wQm4zi/Xu0cNsyew6M5rOhm7o299aZuf4m37pcIeZF5rucM9R/SM8R1UvsMtv2z7+8eru5Rm2Nvzh1u4cNMLS5dH0uZs/tOsnv2yr9+ysF3AEo2bdu3SxmCM7qbTc1uY27eexrs3v22Afoq4N+LjMfP/8t+x/Lwijfm368Vi6bd0f0tuccIL5R01OjuXa9CZ+s/C7g4Ydq8+SXr7Mvf56w5TxtuCjzUlvS2NvQI/iMitz95L8Rxv6Hd/GbE/TfXiN980HtXVX81KY/ur+Wnv3rGnhOaoGOkZ9M3kEy70Pwl90Tu3c1WxZ03WQ7w0e2UDdXv1qdpYU241TX7FX1q6svnLQqHEP8Fvv/e5OeibvBvTr1avGhtJdsbu7MXhxtx4puRuTC9bYyOceC86RhKPTr1MXy87Ojn84rsxdLhxYWmELm+CLU9Ebg0k4Doetksu3P5w11f62dOFhywOzfnuAZ0tO79ffStxziv7j1Tk5OTYkM9cWNrGFen19iLo2h++drZvca7Av2/JdO2pjJujWogdOK3afaHJXC1l+ZHKZl8+PDmvXsRYm01P1evfGYF1+iLq2vfBf78628174V3CO2nZkLfVPjzXz6w/+3+lHEDzl9JPdOmTeulqaTh/1nMwsS5VLu+v27LKb3H9BJheE/0WmAoKGduzqB43i4uL4ZV5W653at7eu7plufn/bFOjqk0+x9nnNk76rY1fxHNVrtqO0OOltCQ2I98Dp+b2M0QPyv4FmisVNkXMqsu0paxofDrtrcMP+3zze9ZXbPaUl9h/u8u24NeE12MpeSX6qv7tY1bZ1a+PqLsuPTJyD1ToeM7qDux/SBOiSE3tYX14USxLN2Ljehj/7WHCOJPX/0ao9N6eF9wX8wi/U8RQyzLfO6Ft/P6Y8WqMauuzOJI0eJW4q+/M5M+ySl5+2tYW7Gnq3Q31V6AF+741P4Bz4hX/UBAYjSNs2bWxkaYa9nZ0OD3tXYW8PI8KfnM7pfOJhSuqX9YF7jupr7vLtgm3h5bT67emaW29ZXmGjh43wV7C4SQhlskDXgoR1yFnuEldjplsibww21H7+072vcfaYfwTnaKgOr2E9Zxe72ZTT1a0PP8XCQRhB5CifG3ZGDc2nvhofov5S734N1tCNhXvsqgnP2zenvRoeMmywXq95RVd1y/c3B3GMUvc0A37hboHEr+vm5uZ6J+nmXhLp6h71bYx0Sx39Qq0qffPSmuX+OSr+7xco9Xsgw32l+Oz+A+KPuLurV8yq/AjCcEICb9FIclVOq9Tfo2q2kA9Rf61v/H3zaqpWS5znqG5641W75vUXLfy9q1pdl1Th0e51/uNatfIjCLMpAov0TNYdPIsF+WdP3IjyyVMHJLWx9VE5n/Kpyoeoa1P3IrcAHzX2H/b3D8K/NmrTj8nQvaxt/OqVZlTyhUyGErwFYiQh3afnydZvf+O6pf7t/qfVa7//ZsHbNnrsv2xJE/uXeL12agMZz3OPHV0x8kyPfQYMnEN+4W8U4hQHFiS+kHZ9oVXybqTVdb98/uQ+1qeebgyudE/djhr7T7tn7pu2r7xxrt3q+nikmr3LSzMtr1n86i3OwT3Bffv2+ZmVHyZgykm0FrlswGBr5jyrMdC3+9fN/80P7Ytn3X/9eKFpvntEPVD69sDVPXr7EQM/gLhgxbIDn/A3Cv1ixBUyxSJNATcNP7Gvwl6ML0/Sdu/P7NDFzjjCh6hrulO73XNU33EL8THuQcNA6d0D+WUVNmLAQH/1SnuiwYKbhf6VWwrkJDAJ5K/teYp00jau69Fj2oZ17jmqvwfnSFtEHNzwLzdv47Gum4OUKo2jJFbiupsOk5EEoREDB9mpJfEF/MFm0yOX3+oEu7oGf6g93N4x9bxn9nS7fPwztq5w9+FEAi/NeiCvbL9dNfyMxG0OplgMDFqoHxg04j6iYYUY4k4i6W926plmu13Z3O8OGlqZqUVqsfudwBnPP2a/Cf/aqEUvpp7ql5udYCccf7x3CgaFKGlG5Z/F4uwYubXuFfAmFiqfHD7SOpQdrBw1lKrpllnZ9sVetX+s5OF/z7Vz3VWqRc5JAjWeHuCZq+vdCRSca8TAByB4GjD8ZV6YrNz1BCMOI4FsN9W6Mefo/+pDP9Wotu+bb3DTqE+98pzdPfuN8BxVqh3cOmjPp9wFqK6dOvnpFea0rJCTsOTAD/xHG0jgRRpmcA68SJ705dEXWPP96TWK3FqL6dUE91+/kc89bpPcd6kCNc4euHXkKI9v7Z2WFAwS+AJTLD/NwhkgMngNhQjhHDgMcTM3ulxbkStbKR9f4z5E3a3lcdVuJ89R3fnmJPvcq2NsW/jXRrX7L10URuwts17duvvmgnFmT1FiaYEf+BGEApwAB8FZcBK8SaMJ5ZTddv4nrJV7oSQd6I4afIh61qYNNsxdvv2z+wZuoMbdA3cPGObvloNzDQTgHvzDwzG8c8RnUfEFiR9OHAMhPAoBjS54U6uWLe3bzVP/8RM+RD2wmh+ivs89JnLhuCdtTXgNtnF7htu7y8x9JPHUfn6WhFMQNEBoDc6jJvDAvb+KJS/CexDCOYhxGgJEfP2Zo6x1SWp/9eR7p1X9Q9Rrdu+0i5xjPOgeNAzUNHrg1r6DPfBxDHAOEZOHmF7pFRA/aFAAQ7GGGEYPOQdl5Fs0b263tUzd3wT0dT9dvPjEHn5Hj7V5avliN6V6zGa6qVWgptEDny/Jst4n9UhMpeQUWk4Q4yzgHp8g7S/zUsBw4ocUN7SgKO9idCEv3tcvudzy95akZI/eVoW1xy73O4EvTRxnX3ffpCran9qjYUp2cpo2iquwPxh9UQL8nPC1hADjWo+Ac9KUeQfBOfgulqZZEpaDIIjjkCfwGPAveg9OuW5qX4X3zXn9ddBTfzP+ChuoafXAHXlt7Ti3jsYBGCGaucfbGSXAPqSlBf4QXV74NwpZlKsAYZxEQwx5ykQoD3WLnCtLEo9xqSip8e2Dh1n2ER7P5/Ltj93fmfiAwpbivUltZ6i84Xugt/vGwvXnX+SdQh9JBNMaBEhHlxbi01LnC5X3Oxgt8DB4rOQRJE0gzUgC4SQ/O/ciy0uRm4d8iPq6Uw7/mvD727fa6Bf+aQ8tmufbHjZNrwd+nj/Asg7gXEsFegG84xwEjSyKhfnEoyYI6SURnIG0HEWLeBxDxo53L7jf0sz92zAFiA9Rt2mW97GW/PbdOe45qifsfffRtkBNswcuLcuykQMG+WkVuAbLOvnrhI9TRAmMM6LAz9TQovkY8zOCjDFXIw0Ph8FJyDMt+8YFF1vfFHgc/o5Bw6P7Z5uLCv3d8J/OmW5794fXYA/qnCaU4cb2vWdf4LELzsGvBgIwDDEQUAZRBh85/IF8JoCHIQF5Dw6hlTxlMqhhyXuhM/DwkHOMl96TRZd062n92rRLVP/8qg9s0NOPGs9TBWraPfDr9j2tnXszlpFAj5OAY9Yh4Bzsg2diZOB5pzjgSD4tj9FwgwIOg4NAlEuRMkhGGV3yu3e3m7Naen4yNnceGD0K3Wuw/Lrsq5Nest1lqXkZOhn901TrvNj9buWKM8/yOAbLwrCmU8TwdeLXldwon7QfOuQkeBIBwmHkJAw3CvBUCUMT+Zs/cbkNS8IthdMOfIiajyZw0+8Z9xGFQKEHOrnz+C9HXXTQ7Ql6RXgG4zgMJ3qmWPAJYJwYPmnIDRbxK1SAngICQjgNXkUMj/sfpAkQsUYayh86s+Efib/ZfYj61/Nnuv/6PRF+J+CPStjQA/d3zrcO7o9p4JPAckAOQQyBcUhrcOUp15qEcqcff0CRDE7ihxXHw4M0N8MZ8DQZR4dyYpwIB+Hlk//slI+ZBqEst4N/fv8d+6VzkP0HnLZBKg6VpHQPfCejuV0wfETiZA4+wS4YFbbZAWZI4BfHgA+Bc+VJ+0EARQKGcACEiSmEr5GDtFdwRjEuPSrHkfDSy9zX6a4ti0/RfI31uMEp5m4J36Oqxy5OO9ND3O+bb7/osoOAzjoZrGqRDk4hcB4dKeDhHMI9aYK/zCvPwlDUOeQwKMvb4KFIDI8A4STo33Pplda/pPLOuy8Mm9AD9dwD7uM99vCZ5/vRAkxywudEjhOQB68ETug4AQHMQgwCwrSaia4fEBDCQFSBQo0MGlFQRAZD0Zg0hBwh1zXg98PPtdb+VyS+KGxCD9RrD7CaeKRrH+vQtl0Cy1QIrsEruITkBMIvzgNPcsjAY/nAyR7yd9JRkJeRZjjS1ApnEfiJKSeWvMoxyPAFv1uXrvaXngPNXUjzlYRN6IH67IF7mre3Mwef5nEJDhk9IDkCMaMHuMUhdIVKsx54chTwCyHjeRgU4DGEBxEzgsCHiOFTCWXyLmKMEGOYoMbwOcf7WqTuuyN+x8Im7XuANe9Xzj0/gUkwCoFfQK5RApxSJgwjQ1py4Fa456SPPJS4D0IGYRY1kICOIGl5H05AGh4eqOGIyuBrsU8lXzrvArs1q/H9jMd3UNgkvQdGuYHil1d8xoNZSwUwyAwIfOIc5MEiAQK/wjR5Tu6UEQvz8EVOvvJaMYIaQRRTjqJGCxwBHgQPh8BJkBHJycjfddmVdnlG4/4xqPY7xA3XA6fsz7A/fOJTvkKcAFxCgB8cwwOTGglwGp3E4YNZCAwL48gS5GzeN2AAcjGJIWLKZBRhOQkVeGXHQ04VIkvFWr/Ap7H/5/xLbVhhEm61+z0Jm8bWA/xD86/DRvl/eoAxgZz9lKOAO/BLLOziNMgiA+bhi8CxyrAp7Pqvu6PAiIExKYqHARQhyuGjTOXioSsZyqhMUy8awXe1/t8VV9uwrIO/P+QNhE3ogWr0QOfMbHt82Gh3Y7pz4gQO1sAlBBZ18sYhNFJQJhnKwSiyiikH0+CYGD8g9i6EIYYggZ6rUSgyVYKngBwkZ/AGXGXSVcVyIskT89mg/znrIutZGu6R+E4Mm2r3QEv3+Ppfeg066JOhAjhgFx7BJydziJiTNtiEiCknZs0tLCMDYSOaTjgIhQgjAAFy8nhgFOik4eNhIhwK+WgjKJMejafS1u5L2i9efJUNtoa52672hTj9e6BjZsxeHHKu9e/V25+4dRIGc3IM9pI0wMdxwCgYFP4oJw1+wWxUDx6y4JQA7r3TrVmzpkKCCEHRIYsG4IWqUE4gR4nKoi/vo5HyYsmobK+7c3n5hOdsTU58RPKVhk3ogSP0ACPHC6eNspO6dElgExwKTzpZw8NxwCqYFv6iWIUPgVXJC//Iw8MxwCzk/3Irb8SwwCwDNII0C2+IclWOMfFJU0aQJ6ox3hMPNAwe39cac8GVYSTxPRo2R+uBzu43Fk/1G2E9TzzROwRYgsAsATyxFAB/4I4TM2k5DTyIGFkCeBbmKUMengJ52fZ30qWMM2CAQpyFPBWRRgY+DkEsI5JTw6WPDBVC2CFgAy9F9oTjjrPHR4erW76DwuawPdBlX6k9Pfhs65ffK4FJnYDBEBgET2ANxxDOKAOXwqAcg3IIHCIPH31ieArkIexnMhdDUUyl4aMsB/DCTgEC+DKKPGU0nAYRSFMOnxgbxOjBI0/MSPLoJz9n55eGqZbv2LBJ9AD3OZ4++2Lr0rGjxxQ4A1siwAyBKcrAKjEEtuBrZBHuwKAcihO9Tv6US48YOTB8wAnj4KYAQRyDyqlEjaBMXomi7lSqQaoUOXYCG1RORdhBDtvE2CSNPcqb5+XZo5+5xm60j3+VBHuBml4PnFuSYc9ecIV1at/B4wecaEQAa5BwJTzBhweBM3TAGXglFi4pRwcME+CTJ0YPXELksZfBIj1qBCZ5CQF0eCjozE+FNAAe6eidc1UkGVWOPA3AFjtDnrRsU9/jUyfbz4s2W+U9ed+MsGlCPfAF9/3cB676fAIrAi3Yg8AL2AGXTJOIwZjwBO5EYBEsC5OSoRw56VGHSPqS9X+YArAEOQYKCGIYwhABvqZe4hGjS0Mpx7BGB+zJGeCrUuxiX7Jq3HXnX2h/79o37f5mpfaHuOY9kOkwek9eO/v1p6/2OMISGCFwpieGwBNpHAUCf3KAw+WjsuBSAR3hEBmwS1549cbdJhMmlcgzoxUCYHkuRsgD+qiMnAKDGCevKwk0RraphzpwJBFpeThy5EedNsTGDx1tvSpPBBIPcSPtAV52+lePAfalc0YngA/WIDDDSVn4EU51ciUPRsEn+ANzOtEjQxDoNaVCB8KmyuUgyJCWTMbatWv9+CJHoRCwyiHgw4MwRpkMRB0CeUjyxHIu0hCVos8CScMjO0NQHchhi3slP3p1nL2UU7kwoyxQ4+oBXpP9/TkXucV4p8SOCUvgDcwIi4AfAkPCorAFXxiCJ/zpJA3G5CjIoU8cxTo89KiTMp9GQCTFqCEaJ2BjgDJIfIGbhmAQPjycA9vRgD7OoQYggz3ZjDaQR1MevuoL9kCrTinzDWD1U4jrpge+XZFnT17xeevYrr03GD3+YAgSwMEMeCGGwBokHWJ04BM0LdNsBoyhiwwYBeuqQ3aI4VFnwu66dev8nXQMAGaMIEAsHsZoHEOdGokBCFkIGXSwQQMoJ5CGF90hycsGecpVP2k5K9Ou9Zs22c1zptmS3EpnRidQevZAx/0V9uCJfezcIacnduBoxx+wgz0BGtwIn/DAqfAGbggQeCINRuUw6ImHLvUSwDV8eNGpv59iYZzCKLgFUiqiXJWpYcjjnTgAJHlVJh6xHKcqUyvk1QFyNHaw2DnKn6ZNtj9YISKB0rQHLinNtPvc93LbtW3rwQiORMLS4Y4/MmBQWARnItmAJ/yBGeSjDoQc+sRgElnyBNJyHtLoQv4yLwJ4IZdr1UgqwKsog2RARuFRRmXIQhilEmzgPJRhlzxlxNiUrPTYCbWBNHrSxQ6OBVH2/qqVdsvCt21Ndnyo9QVhk/I9wPNU97ftbleeebZvK3ioyfEX4DECthgZhEMwA4FRysCacIsMI4Mwrrwwix7YhcAptijLKCgoqMAYDAQEZAwQBG4qguBByCtNnnJVRlrlNKquh8iivXvtvye/Zv+3osjK482hCYFStAf4BcHPRp5rnTrEv1EAbsAauBPg4RHADQECT6RxpCNNkSiP4hYdMAcPe3IQ2aW+QwkZtYm02uX5OAiFMgpTRtRQDOIolEGUq2HkoyMDc0Uah/eyY9iOlpMnIMfOQMhDskk9BMrRhagTOWwSEz5YudLuWzDLZuR4kbBJsR7ota/M7u01wIad2j8xc6jL4w+QIbCBXTAsTJEHI8jAIyYPEYMr9DTtB2/oiCSTsX79+gqEKURIlZEWyfuilcsYcnIk0hhWWVSfNPrRnYgOsdKjLfJg5KM2qYc8MpShjyOOn/WW3bd5jW2OVe6g6g5xw/cAP8y8y33R5vrzL/R/dhI+6uv4Yx/MgQvwASZUF3iGJ0dBTriSDj2ErvSiGEtMsVASyXtQwgh5AiRl+KocHuVRwEuPhlExtpCJejL2onLyaOQhdpxAHj1kCepwydD2HTt32qMzp9tfinfY3qx4W72RsGnQHri6OMt+eN5F1rZ168TxbojjH52RyDmIhV1wAz6FWfCoi0zIkEceGfAs8lexEBATITkGQsqTRhmjyMprAS6VHgreaB55ArYgyuQwahgxHakdQQ67EDyGQuahchq1QU4np9q2fbs99OZUezLLPVZQUbmj3lDY1FsPXGY5dufAYZbfrbuvI1nHn8qFU9LgA+xEsQTWVBbFPmmVyZH8VSyBFAEB31uIbACklGCjgzwdQRl5gRQbGjlkj0bjIJInjb5GFGxQpjx1oat6sU85Opwt5KjwRJQhh96mrVvtN29OsbG5zpnDFx7VRXUej9i73+7uP9S9s5GfUsdf+GGHNa0XZsEeGAEvBGEUrEkefEF+BImOAp7pQIcxDMk4aeQApICMEdLIUoaD4AjRxklejcO+nACbEI2ER55GErClBmOTPLbkNNij/ujOUY4t6ZH+yI0ov5s20Z60fbY3VjmN9BWHTY16gFPSlXvL7daRo6x395NS+vgLL2ACPIARpSmDxANjwiZ85DK4ky4ACtwyIEXAyPQGwihOo9GEGBIwKRO40ZccetjHCeAp7ZUPbLAh+9hQe+Chp/aQp43YIS2SPjx0ueZNeyAuDT89f7b9cdtG2xbehVeXVStm8f3FnOPsqwOGuO8vd0kcA4yk+vEHT+BCeAHT4Il2E5MXIau8dxCEpEAcBR7AhEcQ8GVIIJdBVU6MPGf46MgSBTCNwjaErGLtCHroy1kpF9jh64CoLvLYI0+QA8m25Mtd2bg3p9u/tn1oc7Irncs3IGwO2wP5pRX2xbwT7Br3tC1vgYrS8fiDAzAB/iAwoyk7uCHPfqk8Y+XKlf6FKU1xMBAllCjT2RjnkcchSzkEIAV6lcMTqXLxkCFAUTBLtyGcdMXatfbc4oX2XMU+25ZR2Va1uSnHeVkx+6R7LOTqHr1tSJ++jfL4gzXhUrjTCVpXxbyD4DUU4AgAU2ddACJvO9RxKJNTYJxyjBJjCyKPPeSoQ40gJsCTw1APsmoYdiinTaRVrvb4CtyGHcQGQSMLOvCpQ/ukupFjukgMD9ulTn7y3Nk2dv1qm5JV1mTXKg4uNto91XN5u8526dDh1rJFiyZx/MEUeABvzFKEI4+hDRs2VAgsAp3ygAslhhyABIABFYoEiHIqgNCTQwig6Mph0EUGwjYNkZwHqpMlj02R6hHQ4cthJIdNeMhSH3YhOZPajJzqlF3ZIhZNnjvHXnPOMsmKbUuskq/yxhTzjNQ5bpl2Vbd8G+3+sZHn1m30E33WVI8/+83+e7xrkS6gAxTSAEigI0YJoAM68nIK8aMgVbkcgzI8kwplW+BFH9AioyAZYhHtIcCTfcrEY+ShPsp1FiBGFrvULXmfcBvaAF/2pEs5OuQXLVtmU1cts9l7d9vMXM6x6U/9StxIkdPShnfoZOcOHWb73TFgX3VsSYfjf2DWw6MmAohAIYDBFzDVYciIB7jI420ECMCrg5EjrWmTzkoCK3k5GnKQdCijHfBJE7BDmySLPHnKqFft14hHOTxNqZAlT6wyYtoAX/sDD5vUQ3tE+1z9s99/z+Z/WGDziwvtnaxyK0zxu/b8DXiwe2vv9FgzG9Kukw0/pY+1d4+a07c6OdAf6gP2ORz/yuPv1yACmYDGGZ00naYRAtDRoQIM5ZIR4JAlLQCTlsMAQAJneWJI0y/sYBc+dWoaBB8eMbakR1ry8MhLVmXUS3ujtgV4eArYkS3apofXsCMQIUu7ZJu2owP/g1Wr7L0N623Jrh22tLjIVriBqoAvECSBWrtHm3uW7Lc+GTEb0Ka9neLe1Du9X3/fTppDe9Vf7Bv7q5MJZQT6LRz/yq8z+su8Ao6mKQIMgBDY6WA5jPgCCXyBN9q50lWZAEaeg0EeIo8tyWOPvHjICqxRHemiJ3sccPICgOxE66aNAIEy9CCciXoPJfTUfuTJo6v6iAkaJX19zsji5cutYOd2+6iw0Jbu3mElrk1L3aiz3z3+sql5rm2p5mMwLZx+T/d0bIZrY4/cFtaytMx6H9/aWsWyrU/HztbN/aee15TZD/qANrE/7Kv6lzxOob5gX2kv/UUcjv/Hj///B0G1bJs+C7kYAAAAAElFTkSuQmCC;imageBorder=#ABABAB;fontColor=#000000;imageBackground=none;" parent="1" vertex="1">
          <mxGeometry x="130" y="120" width="95" height="95" as="geometry" />
        </mxCell>
        <mxCell id="nCm9h4k0v_SC0XBHQk2t-12" style="edgeStyle=orthogonalEdgeStyle;rounded=0;orthogonalLoop=1;jettySize=auto;html=1;exitX=0;exitY=0.5;exitDx=0;exitDy=0;entryX=1;entryY=0.5;entryDx=0;entryDy=0;strokeColor=#000000;fontColor=#000000;startArrow=classic;startFill=1;" parent="1" source="nCm9h4k0v_SC0XBHQk2t-8" target="nCm9h4k0v_SC0XBHQk2t-6" edge="1">
          <mxGeometry relative="1" as="geometry" />
        </mxCell>
        <mxCell id="nCm9h4k0v_SC0XBHQk2t-8" value="PySpark" style="shape=image;verticalLabelPosition=bottom;labelBackgroundColor=none;verticalAlign=top;aspect=fixed;imageAspect=0;image=data:image/png,iVBORw0KGgoAAAANSUhEUgAAAS8AAACJCAYAAAB97L6fAAAWv2lDQ1BJQ0MgUHJvZmlsZQAAWIWVWAc41u/Xv7/PxmPvvffee++VvSmPx17x2KJBKSMVQkZmViEqKxSKSElUKhVJEYWUZL5f/d70///f63rf6z3XdX/vz3Oe8z33OOf+nnNuAFgBISwsGEEDQEhoJMnWWI/H2cWVBzsHKAAXQMNPVgIxIkzX2toCwPSn/3daew6gvX5Mck/X//z/fyVab58IIgCQNYy9vCOIITC+Cbc1YhgpEgDkNZjPHxMZtoefwJiBBE8Qxh/2sN8/eH0Pe/3GKPxvGXtbfRjzAIDDEwgkPwDwEjCfJ5roB+vBw2vA0IV6B4QCQOcJY62QkMPeALCUwjIisEwYjB/AWMXrX/T4/ZtOr32dBILfPv5nLb8JZxAQERZMiPt/bsf/TSHBUX/GEIYb3p9kYgv3dPCefQg6bL6PQ70OWP3BAd6/5X9j/ygThz+YGKHv+gdHBNuZ/sHeBAPzfT3BByz+YN8Ao32ZgEhT+z/YJ8LQ7g8mHbbdH9eXpK/7BxNIf+cQFeSwz/f3Md3XH+9v7/QHRwc4HtifW5Cd+V8Z/X0+Kcp2fy0+ocZ6f8c12t+HkIh/WXuA6f67kf72Jvv7QPg7f59Q3b86I5z35+btY2D4V8ZhXz4sUm9/rLBg6315n2DjfX5EtN3+u5Gwc/5913p/DwMJZtZ/MNAHh0Ew3EiAB1jAvwwAiPSJjdxbiP7hsDhSgJ9/JI8ufNp8eExDiVISPHIycgoA7J3df1xj1fb3mYSYRv7yvGRhl96GXXP4Ly9kC4CGkwBw3f/LE6qF/f8oAFeLiFGk6H94qL0HGpADasAAfzS4AD8QAZJADigBdaADDIEZsAL2wAUcBETgD0LgmceABHACpIB0cB5cBAWgBFSAGlAPmkEr6AQ9oB88BE/AM/AaTIFZsACWwRrYhCAIC1FC9BArxA0JQuKQHKQCaUGGkAVkC7lAnpAfFApFQQlQMpQOZUEFUBlUCzVB7VAPNAiNQi+haWge+gZtIJAIPIIBwYkQQkgjVBC6CHOEPcID4YcIR8QjTiIyEfmIcsQ1RAuiB/EQ8QwxhVhA/EACJAWSCcmLlESqIPWRVkhXpC+ShDyKTEPmIsuRDcgO5AByDDmFXET+QmFQ9CgelCRKHWWCckARUeGoo6gMVAGqBtWCuocaQ02jllE7aEo0B1ocrYY2RTuj/dAx6BR0LroKfQt9H/0MPYtew2AwTBhhjDLGBOOCCcQcwWRgijGNmLuYUcwM5gcWi2XFimM1sVZYAjYSm4K9hL2GvYN9ip3FruMocNw4OZwRzhUXikvC5eLqcN24p7hPuE0yGjJBMjUyKzJvsjiyc2SVZB1kI2SzZJvktOTC5Jrk9uSB5CfI88kbyO+TT5KvUlBQ8FGoUthQBFAcp8inuE7xgGKa4heeDi+G18e746Pwmfhq/F38S/wqJSWlEKUOpStlJGUmZS1lH+VbynUqeiopKlMqb6pjVIVULVRPqb5Sk1ELUutSH6SOp86lvkE9Qr1IQ0YjRKNPQ6A5SlNI007zguYHLT2tLK0VbQhtBm0d7SDtHB2WTojOkM6b7iRdBV0f3Qw9kp6fXp+eSJ9MX0l/n36WAcMgzGDKEMiQzlDP8JhhmZGOUYHRkTGWsZCxi3GKCckkxGTKFMx0jqmZ6TnTBjMnsy6zD3MqcwPzU+afLOwsOiw+LGksjSzPWDZYeVgNWYNYL7C2sr5hQ7GJsdmwxbBdZrvPtsjOwK7OTmRPY29mf8WB4BDjsOU4wlHBMczxg5OL05gzjPMSZx/nIhcTlw5XIFcOVzfXPDc9txZ3AHcO9x3uzzyMPLo8wTz5PPd4lnk5eE14o3jLeB/zbvIJ8znwJfE18r3hJ+dX4fflz+Hv5V8W4BawFEgQuCrwSpBMUEXQXzBPcEDwp5CwkJPQaaFWoTlhFmFT4Xjhq8KTIpQi2iLhIuUi46IYURXRINFi0SdiCDFFMX+xQrERcYS4kniAeLH4qARaQlUiVKJc4oUkXlJXMlryquS0FJOUhVSSVKvUV2kBaVfpC9ID0jsyijLBMpUyr2XpZM1kk2Q7ZL/JickR5QrlxuUp5Y3kj8m3ya8oiCv4KFxWmFCkV7RUPK3Yq7itpKxEUmpQmlcWUPZULlJ+ocKgYq2SofJAFa2qp3pMtVP1l5qSWqRas9qSuqR6kHqd+pyGsIaPRqXGjCafJkGzTHNKi0fLU6tUa0qbV5ugXa79Xodfx1unSueTrqhuoO413a96MnokvVt6P/XV9BP17xogDYwN0gweG9IZOhgWGL414jPyM7pqtGysaHzE+K4J2sTc5ILJC1NOU6JpremymbJZotk9c7y5nXmB+XsLMQuSRYclwtLMMtty8oDggdADrVbAytQq2+qNtbB1uPVtG4yNtU2hzUdbWdsE2wE7ertDdnV2a/Z69ufsXzuIOEQ59DpSO7o71jr+dDJwynKacpZ2TnR+6MLmEuDS5op1dXStcv3hZuh20W3WXdE9xf25h7BHrMfgQbaDwQe7DlEfIhy64Yn2dPKs89wiWBHKCT+8TL2KvJaJ+sQ84oK3jneO97yPpk+WzydfTd8s3zk/Tb9sv3l/bf9c/8UA/YCCgJVAk8CSwJ9BVkHVQbvBTsGNIbgQz5D2ULrQoNB7h7kOxx4eDRMPSwmbClcLvxi+TDInVUVAER4RbZEMcJI0HCUSdSpqOlorujB6PcYx5kYsbWxo7HCcWFxq3Kd4o/grR1BHiEd6E3gTTiRMJ+omlh2Fjnod7T3Gf+zksdnjxsdrTpCfCDrxKEkmKSvpe7JTcsdJzpPHT86cMj51NYUqhZTy4rT66ZIzqDMBZx6nyqdeSt1J804bSpdJz03fyiBmDJ2VPZt/djfTN/PxOaVzl89jzoeef35B+0JNFm1WfNZMtmV2Sw5PTlrO94uHLg7mKuSW5JHnReVN5Vvkt10SuHT+0laBf8GzQr3CxiKOotSin8XexU8v61xuKOEsSS/ZKA0onSgzLmspFyrPrcBURFd8rHSsHLiicqW2iq0qvWq7OrR6qsa25l6tcm1tHUfduauIq1FX56+5X3tSb1Df1iDZUNbI1Jh+HVyPuv65ybPpebN5c+8NlRsNNwVvFt2iv5XWArXEtSy3+rdOtbm0jbabtfd2qHfcui11u7qTt7Owi7HrXDd598nu3Tvxd37cDbu72OPXM9N7qPd1n3Pf+D2be4/vm99/0G/U3zegO3DngeaDzkG1wfYhlaHWh0oPW4YVh289Unx067HS45YR5ZG2J6pPOkY1Rrufaj/tGTMY6x83HX/47MCz0ecOzydeuL+YmvCemHsZ/HLlVfSrzdfHJ9GTaW9o3uS+5Xhb/k70XeOU0lTXtMH08Hu7969niDMLHyI+bM2e/Ej5MfcT96faObm5znmj+Sef3T7PLoQtbC6mfKH9UvRV5OvNJZ2l4WXn5dkV0srut4xV1tXq7wrfe39Y/3i7FrK2+TNtnXW95pfKr4ENp41PmzFb2K38bdHtjh3zncndkN3dMAKJ8DsVQMIN4esLwLdqAChdAKCH83Jyt39y6/8mJJx8IODeEZKCFhAnkXLIOVQpmgDHumVsGy6DzI9cm4IBT0NJR0VDzUDDQctLJ06vxmDJ6MUUy5zN0sA6zDbH/oNjmwvHzcIjyCvDp8VvJeApGCF0RrhYpFn0kThagiDZLc0jc0R2XF5MIUaxVxmjoq8aqVahPqyxpEWuTavDqMuix6rPZsBsyGBEbYwz3jX5brpg9s58zKLfsvVAjVWB9VmbZNt4u0j7cIcIxxino85nXHJcy93q3Rs86g5WHarwLCOUeJUSy7wrfWp9G/3a/fsCRgLfBq2EYELZDouHqYWbkBwiDkb6RAVHh8dEx8bFJcYfP1Kc0JE4dvTzsZ0TVEnsyUInpU4ppqid1jqjl2qcZpNOyig6O5i5fl70gnvW2ezunMVcpjz1fPdLsQXnCyuKWoqHLr8pWSlDlTNViFSqXjGtcq72q4mqTarLvFp47Up9U8OdxpHrU02rNzA32W/JtBi2urSFtB/vyLpd1nm2K7Lb5Y7mXe4e0PO+t6+v6l76fVK/x4DZA7VBrsGFocqHTsOY4cZH9o/WHxeMaI/MPskeNRzdenp7LGnc6hn3s6/Pu16kTTi85H4596r+dfik/OT3N81vw97Jvdueejxd8j5sRucD7Yf3s00fT3yynuOe+zJ/+3Pqgv0i6+LLL3lfXZf4l34tf1pZWRX9fm5NfJ16w2ZrcXf3t/35oesIC8QyMhdlhPqBrsZ4YQWwc7gGskhyXQpBPC1+g3KB6jX1E5r7tN10rfRtDJ2MXUw9zIMso6wDbF3sLRxNnFe5arireC7zZvOd568QGBD8KswkoiMaLFYg/kBiTUpI2k7mqGyd3Kj8miKLkoqylQpBNVCNqO6iYampq6WgLajDoIvQXdJ7rd9vcN2wwOikcbCJramSGbs5MP9k8djy1oESq1TraBuira2dnr2cg4AjkxPOadP5i8s711G3e+6tsDeUHMrxTCMc94omhnqH+oT6hvgF+wcFBAb6B/kEE0IOhroedgqzC7ciWUa4RPrCKXNiTEpsZlxO/KUjRQnFiSVHS4+VHi89UZHUkvz45FwK+jQf7A/EtOT0ioyes28zf56nusCfpZxtkeN1MTb3XF5lfselkYKZwp/FZJfZSsRL1cqMyx0r/CuPXsmpqq9+UPOhDlzlvKZe79RAasy4fqWps/nJjTc352/9aIXaKNtZOwRvy3Sqdul1m92xvuvQ49rr1md/z/S+Rr/kAPsD7IPlwedD7Q8LhxMeuT9WH2EbWX/yfPTm0+yxyHHnZzrPJV9wT7C8ZH7F9VpsUuON3Vuvd65TxtMK73lnqGZ2Pnydnf744tPI3MP5wc+DC48Wx758XoKWmVckvhmsen5P/tG0trCu8at0k2Wrbsfit/3FwT3IHJqAPaAfaYp8hvJEfUenYHgxrVg77CqumsyDnJ78CUUm3paSh3KZaoj6Gk0O7Qm6SPogBg9GTSYWplXYE0pZo9nM2XnZf3I84qzkSuR24pHnpeH9xNfOf0bAXpBTcEqoXJgoIijyUbRW7LC4igRKYlSyQIogLSK9KNMkGy2nJrcj36NwUtFYCac0pJyuYqlKptqvlqyuo76l0aYZqSWj9Vn7io6nLpvuuF6mvqn+jsENw0AjbqMx49Mm6iZfTEvMbMwh82YLL0tay/sHEq3UrH5a37QhwfnDkl2DfaiDpMMXx3qnEGcJ5zmXclcXNwa3UffzHnYHWQ++P9TgeYRg7sXh9ZXY453l4+7L77vgd8M/IcAwkCZwMqguOD7EMpQv9Nfhp2HV4WEkedJaRHtkYpR+ND56IqY6NiHOKV75CHsCMuFr4sujfcfqj+edOJEUlOx4UveUVArnacrTO2dWUj+mvUjvzig7m5zpc87kvOQF+gvbWZ+zJ3OeXnyU+zBvJH/80kTBZOG7og/Fc5eXStbKQDlFBWul6BWNKptq/5rjtfl1168OXJuq/9VIf12yybTZ70bKzapbD1oW22jbtTtSbo91cXX73qm/u9qr3nfq3mi/wEDCg9dDeg+bHok9LnmCGiU87RmXe9bxgvSS+PrKW/fp2tmxBcIq/579/7lj2SOMEgAXueAKlQYAu4sAnIUDhPASAMzkAFhTAmCvChBmmgDBEA8gQ679+AHBhSc5XBNzwNWmEjACTiAQHAc5oBbcBRNgBcJDInBtSISSoAroHvQJQYGQQTghkhCNiDdIPFITGYasRL5E0cA12glUJ2odrYSOQF9Fv8MwYswxSZjbcI0liw3FNmCX4FoqFneXDE/mSlZHtgNXSY0U9BRxFNN4C3w7pRhlMVzpZMC1zRm4msmkZaQtoZOk66S3pH/HQGLEMBYwSTH1MjsxL7IksbKyNrHZsm2wV3JYc2xz1nN5cFNz9/JE84rzTvHl8h8QwAh0CUYKSQrNC9eKBIvKiW6KDYoXSIRKGkpxS21Jv5bpks2Q85CXU6BQmFMcVGpULlBJVU1QI6mHaARoBmgFavvqWOoq6LHpA/2PcIbcYlRmnGly1DTCLNg8yOKwZfyBNKsy63abMdsle0oHSUcbpxjnUpdh1013SQ+vgwWHnhHoveyI+d5vfPn8/PzrA1aD1IKTQ4YPs4T5hrdGkEcSom7HcMZ2xHsk4BLbj4WdEE+aP1mdQjzDkTqWfvqsyjnZC6HZD3NN82cKUy+LljZV8F6Jq26pfX+NocHyembzy1vSrVkdUGfCHVRP7j1Ev8eDzoc8j06PfH/qO/72hdvLN5M+b79N5304+Elyfm4x4mv38tC3vO+yP2rWdtelftlt2GxabElto7Ynds7vGv/+fkAADfCAEfACaaANbIAPSABZsPV7wSRYhxghBcgeiobyoU7oPYIMIYtwQ6QjbiO+IHmQjsgM5H0UhNJBHUHdRC2ihdAEdDH6FYYF44TJx7zCcmK9sLXYFZw67gzuOZkwWTzZKLk4eSr5MoUbxSBeFX+Nko+yiIqFKp+ajbqURoTmBq0u7ThdID2CvphBlWGCMZaJjamL2YsFx3Kd1ZUNzXaDncjByDHEmcSlzvWT+xZPFK8S7wbfHf7TAtaCjIKTQlXCJBFdUTrRj2Jd4nkSEZK2UvLSzNLbMjOy3XJF8okKBEVTJQVlfhVGVQo1tDqkATQRWlhtSh20zobust6s/muDp4aDRr3GXSYdph1mXeb3LUYtpw/8sMbb8Nuq2znAWcx5x+tO484brvxuVu7HPJoPznnyEQ55FRFf+ND6Wvid9u8N2IatHRvSFroRph1+hjQeKRAVEz0SqxBXdASTQEqcPmZ7vD9JM7ntlHJK+xnt1KF054zPmafPK134nF11MSBP8RJ5wVzRyOWu0ubya5VXq+prWup6rj1qeH79ZfOzmw9arred7fDsFO9avtPQ499nfN9tIHww7eGVR3dGXo6ujKOfM07wvZKYVHirOqX6nvMDenbl09T844WOLyVLsSuGq4jvtWtaP/t/6WzUblFsE3du/LY/AuAAA+CHz74F8AXJoATcAVMQCj71B6BIqBDqgxYRTAhdRASiFjGN5ES6IYuR0yhhVBjqNhqHdkLXoHcwLph2LBc2FfsLF4x7D5/vMXJL8kEKS4pxvCd+iTKJipXqJrUd9RpNMa0J7SZdE30wgzjDV8YWpmRmOxZRVgTrO7YB9maOCs5LXBe58+A85Bps1QmBBcFfwhQiPKLKYnbi4RLZku1SMzJ0suZyF+THFZmUHJQvqDxUQ6lrasRo3tBa0dHXLdT7aeBo2GrManLEdNJcw6LA8peVk/ULW1+7DYcLTkLOba6GbkMexge7PaUJRURy70Sf734h/p8DA4I+hwSHfg0LD/8eERO5EZ0YyxrXdyQ8ke/os+Onk5STZ06lnRY/M5B2KP3b2aRzLOebsiyy5y+eyRPOHyjwLUIXl5dol74qj6ykulJdrVvzti7xGlf93UbvJrLm6zcdb223Vrabd3zrvNStc+dTz7k+zns5/dQDZwephy4Ocz2qGZF70v3UZOzpM8fnExOOL0deG0zefMv77tTU4nvXmYnZQx/n5kLn5xZsFxu/LC/xLGus6H9TWuVZ/fK94wdpjW2t9yfh58f14PWVX5G/Xm3obFRtUm5GbPZvUW85bZVuzW3Lbsdt926v7HDumO5E7ZTuDO+s7wrsWu8e2a3eHduz/z/38r/jBxw3ilb30BDvpYT/vBP/587+X2qT/+zB7+iyR3vRZY/2Ig34LzZidq6s6ynXAAAAVmVYSWZNTQAqAAAACAABh2kABAAAAAEAAAAaAAAAAAADkoYABwAAABIAAABEoAIABAAAAAEAAAEvoAMABAAAAAEAAACJAAAAAEFTQ0lJAAAAU2NyZWVuc2hvdCpXmckAAAHWaVRYdFhNTDpjb20uYWRvYmUueG1wAAAAAAA8eDp4bXBtZXRhIHhtbG5zOng9ImFkb2JlOm5zOm1ldGEvIiB4OnhtcHRrPSJYTVAgQ29yZSA2LjAuMCI+CiAgIDxyZGY6UkRGIHhtbG5zOnJkZj0iaHR0cDovL3d3dy53My5vcmcvMTk5OS8wMi8yMi1yZGYtc3ludGF4LW5zIyI+CiAgICAgIDxyZGY6RGVzY3JpcHRpb24gcmRmOmFib3V0PSIiCiAgICAgICAgICAgIHhtbG5zOmV4aWY9Imh0dHA6Ly9ucy5hZG9iZS5jb20vZXhpZi8xLjAvIj4KICAgICAgICAgPGV4aWY6UGl4ZWxZRGltZW5zaW9uPjEzNzwvZXhpZjpQaXhlbFlEaW1lbnNpb24+CiAgICAgICAgIDxleGlmOlBpeGVsWERpbWVuc2lvbj4zMDM8L2V4aWY6UGl4ZWxYRGltZW5zaW9uPgogICAgICAgICA8ZXhpZjpVc2VyQ29tbWVudD5TY3JlZW5zaG90PC9leGlmOlVzZXJDb21tZW50PgogICAgICA8L3JkZjpEZXNjcmlwdGlvbj4KICAgPC9yZGY6UkRGPgo8L3g6eG1wbWV0YT4Kuo86cAAAQABJREFUeAHsvQe8ZlV197+e+9zeZu70PkPvoGChxIIaFaPG5I1ijBqNXdHXXqMCFmKvsea1RLErdjSxIAiCFAHpMMP0PnOn3F7/3+86z7lzGQsYNMD/8+yZ555z9tll7XX2/p211l57n8okIeqhzoE6B+ocuI9xoOE+Rm+d3DoH6hyocyA5UAevekeoc6DOgfskB+rgdZ98bHWi6xyoc6AOXvU+UOdAnQP3SQ7Uwes++djqRNc5UOdAY50FdQ7UOXAf54D+ApWIO/gNcF1E5MnvNHB67PTz30lowVFzSKhUomIlRhV/fjf5/2IMtNyhyf+LVderqnOgzoE/DwcmgReApQYyiWX5pwY8NeypHe5QJXhUAz3zE2rXWRY3Ex2I814Wmbn3neXlPfSnDl73EOPr1dY58OfiQApDNdCxzASa/DMNrkzU0FAAVK3ivDsxERURzPzG8ycBLSOAxCxnOnBZgZH3fKirjff8M6hTUOfA3eKAqtwkgKIS1TAB0GDJHqbEUQFpPKKtMhJNDYMRvUMxtndrjFZ7o9rVHc0tSyOqsyLGSVQdjcmq4DZBOdUYi8YY56oBMGuapFDCZEM1IsHOq3sewOrg5XOohzoH7sMcmKwoM6H2cZxoGAd+nIerRBNA01gZisa+zdF/9QXR96tvxfC2y2K4sjOqnUdE++JTY94pT46GA4+J8UnBqjWqlWpUBEBKmGwAEAvcSmFrgsgGQTJL5889HOpq4z38AOrV1zlwdzmArARcVQCfMf6N868hmvjbON4XlT1rY9c3PhUbfvHJmNca0Q3ytAxQ40jENoSn3uUHx8InvTy6TvzbGKouSnBqqMGfdrRCjUQC41zLmlE169jdJftu56+7StxtFtYLqHPgnuWAgldKQ+iLExONqI4NUQW8KiM7ovd7n45tF34yDmmJaOyK2MtvvA16+c2dAZj13xYrv/KKGLn0h9GK1FZFz1RymwSkqpNjnI0laAmQ1qLpLEHsnm1y1l4Hr3vBQ6iTUOfA3eUAWEOoRCOo04iq1zA2FoPXXBwbr/hSzOoAiJC6iIpx7u0FyAYEsqaILs4X7R2NHd/9TIzffgmSF9La+EimKyBRwJqMcdRFQVJbfUpkd5fgP0P+Onj9GZhYL6LOgXuUA4VQlD5Y2qsalZJ2bYq1P/tmdA3uiS5Aqp+oOaiL8/dGdGKfF4QamjkCaLMBtlh3Waw/732omauQ2jDeEzWRiZDEQK2G2qSAolcBlHfWYkooxLTasbgWCNM7q3YsrgVE4z3+7s+ajN8/1MFrf47Ur+scuC9yAEQZQ+EbbxhFzBqMwdt/EyOrz4/FgFNzP0Ck1MVkIXpgApfSWdMQSYkfAxlmIYlN/uZ7MXLlT6KhUShpQPGsAihkomwBLDMCaL8PSPZnmRDnDKh5cybUfPx0y/A3/dyJhgoSYx4p3dlTayl/Qpfn+0NYHbz253r9us6B+xgHtE/l2PZPdQT3iN2x66aLY/bgZFQBKTAt2rg1iG/BLqSsfiQuMAtfCrAMDwpdKxqwgc0Dpzb/5HMRq29Mw73uFvpa6D7RILjUpCVx7M5DAUKSVLGMiVF+2M+wo01yNK6UwiYoe4xCPeJ1lhKf5+O1a5COYmzkHUMdvO7Ij/pVnQP3OQ6Uw1q/p2aUxsquPdGw5uqYBWiNtkds7xRAsG8hgbUxyyj2jKJKigdVMuG7ivsE59jGWtfcGDt//IVoHiNxRf0SHzEPAkgpIWUJf5xN0qQaaChASv8xfvpbcGOi9hvPy4m8HiNunF8eqatwAZl23A/A6n5eBX/rf+scuM9yQGBKSFIl42yid2sM7FwVsxjdCl7G+WcUiWsC0Go1kjDO+QjANaE6iRRW4by5O2LttV+L7msfEh3HnxYjTE02AIgNNeCynFT5soQ//CcVPdJCElJeY4w2FFBThVaigL9CltIJtjIJQHqk/kn+VAS4TAVqpgUPQM6qzMUd1U5AjuT1UOdAnQP3ZQ4gFDmiFWgY3OMxvGVlTPRtUgxLlVDYEEQGASvtW/p5taAuYtKKMdIkRKBHjqAnjjP7OLOyNbZ++6yobLgtGhtaYgCESbCxDv9Z0Z2GhC8JAmQmonliHIDC96z202u/CfWxEeAaB7DGqyX9EILEZz242BZgBu220V8JXB7r4HWnD6GeoM6BezcHCihxuBMmR2Nk863RChBpaxdn0u5VJJqygYlY2OUTuTTaK/k0g3KuFJoDKrSuuiEmfvntqA4Pp8/YpCpkglYh3d0ZR4Q5bWSKTFVBanyAOkbwHUurVgKgt70aw7t/FJFwTDQdB+q4HsbNtr/SGANCX6qaRfUCZwlgdfC6s6dQv1/nwD3MATHGnyEln/3OwIcEg8IPfjQmdq2JRmYSFU3GuZkg5RGQagYftG8N1ApsRV1sQ42scDRKw34LwDeD4wacW0dXXhRtDUMAUOE+ISilAU3kmfpJENf+anGTaSOjIq71+B+dbI6hSaQ4gKkPR9p+kHW4wjoA/DWaquNZRxP1NFQGscENRRNgKUyOQ1dZZh7z0rpUKOuhzoE6B+7VHAACMghcDug0gKM2aetKeYujaqFSTOzdE9Xtq6IFQGJpY6qGpYSiY/12QK3j0MNjdGg0+tasjHmqkmTT6956lNiciqxi5J/s2xJbfvbBWLLs7THZeYiVZRr/lnavAkbIk7rr1BURRcgY10s2FnYrPf+bILxxcoi5gD2gaG/E1ltRdVfH0O5eqkCd7OiJjhVHRefCg2OyfT4FdRRtBgiVuspQB6+SE/VjnQP3Ug4ozIgazviJIDmAiUwbEDeKpTvcZ2CP7t4VQ9uvidnYsjTG6waRk4aUIdjtQftrOvrUmDlvSaz51JvUMkEs3CdAgk7VR2YjtYvphT9rZsSmm34QvZeeEj1/fWgBjskjEvg/AZQTQw1TktaMKNJUmMqspso5gDQ4GBPsalHZsyEm114b/bdcGv3rr47K7lXBMsycNDDrTm1xs5bH3KMeGj2Pe2GMzz8xXTcSqLPs4k8dvKYxo35a58C9kQMJUjWwAnsAIWbaAASBYpJ1jAlpDaxDRCUb2bUxRvuxUwFeoA0+U/xI5242I1w3AkrRNTfi+KdGx4l9sf38c2Iu0pdSmirmMECm+0IzvxaArAdJbMeP3hs9R5wclaUPSh+tBhGR+zlNOdmUW+lMUj83UwJ0iXjupSOs9u6JsfVXRtPmK2LP7Stj17prY3z7dekg20ydrdStw6xO/kkzx2Hi9vavid0/+0JM7NgZs5/7yRiY1U3ZrcyUAt7Syo4XdfCCWfVQ58C9mQOF4RtkARwa+KcEos+UoFVuf5MqZMMwwLA6xtw1Ql2RQW6iEmfGvGbEd8xYGpPNS6PnYX8Xm6/7ZuzdfUuucaTIBA7BoUWURMXsAQSHdu6Mjf/1pVj0jweBajNjENtVOrbi91BswzOJeR2HihEqHtgWk0wYDK+5JkY23RRDG2+N/o2smWR2U5tbF2W3QkMjYBoAqW4a0udEgT/PR6DZNJ2orltu/kH03H5tVGefiK1sFJuc6GsqVE/+1kOdA3UO3Is5kA6iDFbBynFbEV3yBFtSzQakf1QDutfIlttxSygao2SGgJKSSoIbklRDz+Jomns0jvOjUT1wcXT9zbNi61feGAeBOzk7SVYm/HT7CgSdVE07wIu1l305Zh58fLQ99B+go534BrCnNyYG1sbE7k1Rvf3W2H7TddG/ZRXS1k3RsHM9+4gBVoBTJ46yY5TRxLkOrwk60IazfdrbnEBQQsR+n1KiTWs2nT/aMrB1NTXeP6oN2L6UNGUE7ht18Cqec/1vnQP3Wg4Uti3lrTTXp9RVbJnq8HUko54BJtG/O4bXX8fOqbWmCAiCnb9aXKXzQBy5DgWh+N/YFN2nnh57rr8mBn751WifV5Sm4ygYwQwhR9K588TM/r2x46KzYukBbdEy1BmDmzbwuykGbrskxjdeHZ3bkOioQ6AT/PQxa0A7TQ0TJGylHIUty85AWtVUAdZgOuv0vpMNbOyas6TuDNva3mILmfHUraICiOGRT4Pq4FXwrv63zoF7LQd0T0jjOIM3l9gwwl1r6IDOmUcMVvh4xuTeHTGx7YZo5Vy1EbxI7VE/rzEuBhWnZi5D/JmBN7sbFzbGEOrjksf+c+y+7bzYOzISLdq8kNAEuzHQRhzCTSvmAkr96zdF36f/OQZRAUe2IFGRTpeKKhLTOAu7daIXaJMW8jlrOQVOxEsPXhJQXQBV2uOgjewJsKq16W9GPpvA0swY65wRjYuXkacZydJ4lg9JHAVLWz3UOVDnwD3NAUf01I+TPPcoQEmckpf/lL50VdCZ06FcSGMV9rapjO5lJm9jgon717sUSLXRJTmWoTf9jCWHYu+qIuWgZqKnjWh0OuzEaHzYS2Mt4Ka5THtUCQxKQ+ZtBahm8Zu8LaJ9Y8RiQGgGS4lGkdZ6kbB2AV69AJ97hLkAfMwCyKePmUDktZKWdAmKXntkjiHBznScpsTlNj1a8Ndz7Dzu7yMWHAKdzUhcjWxrTXkpShbWPlLWQ50DdQ7ccxwAlBiQSi2/e8zRimQiYAFVKXXgLYWelfttgRBAEQAzyP70m3KJj8iTaxYFkFpgVU5M4MvVtXQF6wzdHRUpB2NTB34R/Th1dTzy76PrsFOi12VDNdBJz/ziMmcgdaFoZPfVKqA1AtIMWw/SEnb06PQH2DhLaT7LlwaBTFtaE3EZyQ1Ndl77k0TL1b1MwVBpTJVzvdLdgQ/CVeJfkOqWxGClnXZyk6nQavp31MELTtVDnQP3LAdSegKcUqDIo+e137SlMY5rA7dy8bK7plYYzDnzONofu1iLqGqlhKN6lmqZKAJCqLJFWw/i0xzO8Za3XJxHdRgdAQhH5xwVyx7ztBgBOAQjjeXSYz5tWOPEjwF+I0hWQ0pO1NFIuhmgzmwkMm1TaZ9SWvLHPWcWO7k/zgYVg4h0qfZJD8E2eK1hPukkTlCrUnY/xz7qWvHY50csPSGGJUCbnuhXq0iZ05h6qHOgzoF7kAO5TxaD0XHt3wlsWMXPBcr+lKy4w6AeYYS7C0N1bDQasKi7iEYQivHBqGz+bQKGwKABvAUQESCGAbIhQaLjUP0kGPQTGONxuSB+jCnBFmWeSfwSjnpMzLzfk2O3uiPEaKxXbXQTw1GO+oI1A1QtJBdDjLNs/bLGBEvTkUebGRps7NmOwykzjnspuvm446JlCfHkU2UcJq3tbYJGfVjb+c2g3DHAbiM3lp32zug45vG4T7SwdMgPhzC7yFGdtoJO2YiljCrroc6BOgfuCQ4ISBkQcRjTOdM2jsFnzKk2IEaJzBQFeDFyURmbQJNJgaepwsLlCjaqCoA1Ge3DkwBGXxrrc7aP5PpVCTKsb05pqnv2CqSvmdRFhEt2Uq5i1g6wq1LuRNOcmP+YZ8davN43rbs15mJ3EvwErUHARtBphSCEojSya5AvRDPuQfJWLneTpzprUXTPOzCalxwZDfMOiwWHHg2KrYotX31rtE9sjS4Bjp+SnVLXKOSwvDGlubUcZz32VdF+6tNiopnCWEYUqIxKZSl8QTVZCPXZxmRD/U+dA//bHBC4pny0ONdP3muN6+6dlZAFSGnZ0bZV2LcY5N7C+jPKds9jSEwt3G+tMsB3rYuR7RtTCDNFDnZGeROAo4boAueOxYexVnAuYMin0SgzjVGCGAiS6mcgIq04Jdof8eJY9eVXBEpmGuoTWC0HABN0Bohgs4lUT93MUON6tevA6DroYTFL4//ig6OxZzYerqwvqvLbfEPc/J2vR+O2rTGfWUsFPScS3NFVyU1fLoS12KYK+tfPjDlPOCP625YyAdGP1EWF8Cftfdl2OUMgv1XXQ50DdQ78L3NAoColL2UJhTBVxgq6XGXUveMZnAkwEMZANfgRWEWpCsDVEoMs39mFuLMG364bYujqn0bjbjzRUeEY7gppKcllRs7Tu37WEqSwmZRd7IWVvmFYxyuINIJdSkGTXTHnhCdE/00XxM7LvhOLKI9bLOQugKsfEMPNK6rL/yoaFx0VXcuOjI5FhyAuHRSVLm60dYJNHdEHQHZMQt/6S2PDZ/41ulddEbPZqVVBSoevVDdBH6XENsBsA+pl58mnA1yvjonWxaisSJlVnGHlie2RR5x49NpQB6+CD/W/dQ78GThQDDWVPcFHBCnsWQ66UmLgLG/uq84tkTMno5Od3lGjahIYYk4VyaOqJMaxovg0ujsmN90ewzdfG2O3XBsDt1/KQuzrc41gD1KNPlaCEAVmNRrvh0UfgKPaPY84FvKgmjZg6K/kBoDskiop0FBFrBshX7VrQSx/5NPi+uu+w46sXJO3eckDo3vJQTFn6eHRtPDwqCw5AkPUMm4CVuwYgU0eL/h+1Noh1Ezgk8WUlV29se3rn4jm666IOZShltkPjXras7t0dKnWUvkOgKv1yIfHwie/JSa6DuWLRpPRRXv9AIiuFS38cosd8tu0MtTBq+RE/VjnwN3igIAFWOVAoyBHmQDCiWCWIUdeIUkIWA0kTuByzaKjmJQT49q82BaGy2a+AhQToMfujTG+bUNsu/m62HX7NTG+eU1Ut1wb3ewoMxvJyC9hp8EckMqa/ENdGtuVcnoBh46F86IyZz7gqKsBPmECIlKe32NUpKnqXIXlvIo8MzHZGg3LT44DT//3mNizIzqWHoQ1/QB2KeTXjnTV0Op3OSwpJxY0eDUzPdlguamSDrBT69ZY8/UPxfDl346D0D810DtL6aSDwNUhkkHfHtowcfgxsfSZb4mxmQdj0G/k47fcnByGxlZoRQpF9qs1qWgYfw118Cr4UP9b58Dd5IDAlfITRwGB4tJ25SnXU5ek4b4xRTx/nS0kxt0cWtDfWofZ42rH+hjYcFOMrv5NDN5yUQxvvDwamAWch13I3RdY5hfVheRCGBMH9JVSoFPyyuU9xLm8x4AWGi3zmWmc2QNY4Y2fFiaAB0t+bvlXy+iHL6QZKIO2hdF20r9Q4CT+XBjHQULVSzcW9MO1E8TpX+ZSHTcqbALARvgkdx9iXyfu93u+dU5MXPCxWMa6RumQPunK3SrIr8V/M20ZPvCoWPKMc3CJOC71UoF7mDqaVWfRMQWvCltRq7vK1umhDl7TuVE/r3Pgf8wBJS8yM8D8vFfanRh4OmxWcGNQ7ZuotgAbjbgaKPkgTfCZsgbiAwdTvUsbNmyL/lsvj4m1l2PKuj6Gtl2DC8FwdFLuHH7tgFAFB1FdFzRw+wVscW+EIgQ+B3gTI1rPdbABJ1SKhp5x4vp7lkRHRzdg4P5abGODt3oFAOIsjeepvxFfpRGa1ibwS5hE8kmfMdBqlMhKSma0QNqBLg3+lAYoUTEqLS3EFjce23/65Rj8r4/FASSRH9rb9OfSQC+e+7Hb7TR5W8+hcfjT3h7VQx6BBIfMhvTZQv2TqJzumSG0CvSGtBHW4D4j+FMHr5IT9WOdA3eLA4zKVBtRclQDKWsSyQaPLcAASYZRK8AMI35UsRE1oaZN7lwXk9tujNHbLo2BWy6LoQ1XxeT2vvSl8ivWegqwdpqCGLwAgOsTBSbPHbjuHqFEQ3RGuKaxGcBShUwJjBsDgASaWcycfQxoxjrB1CXb0t4l2raILlYAODUKSIkV0Cg2cT/xhz94YhCBUqnOh/JJ1dQrcSjFDU34d7GVc2VP9P3iK7Hl+6+OA4tbabMS23THkFB9y3ZDUz9tO/QfXhJNx5wKcEFFDaSaPVKvQfAsgtJqKb/WojjUwWsfL+pndQ78jzmQQ4sBphtCzuVhFHLx8yjSxBiiRoU93FsArBmTe2Jiw29j6/W/jr1XXhyN6y6Olr6taeNqYzS2MV5bHJWM4QmASBRUesrhzB/dCgx55LwFYGkmTaqIpNd0tRdVci/HZhyy3E552bKHxZwjH0UhNdFnChxEFAKAUU4s1CI4UJm3OZi8UEeVLoUzDOkAlwukXZOY7h1NbTF+xTdi11deEgcwo9iAaWwPdOnUKgIOcO5uF+w+HduJWvbEN0XTyTjEjnVGO8gm1unSUdRbVJz7mBmV9Hn0Yl+og9c+XtTP6hz4H3NAK5a4omvpBAPca78K7YB0KU0bQNaw5cbY/YtzY/yy98TIetYbM6jbBSdG7gCgNYB9yLWCHap7DHJt+GnHNw3lCGLat3TWVDLKRc+kH8Sb3SU9owDGTqb1GheeBFidhAvD8mhcciD+VgfFEPvTuKVM+n0JBpZDoamWJZgRYyT1cJv6pJ/rjMK7nevSN20MiXLUKU0SNvhlIGcpb7okVn/lrXHwbmimHb3QpTuEwOoaRunWu34TYLbg8a+Ipkc+jw9yzKEtqp6CPsGKy0rzOsmBrBpRmUoii1AHr5IT9WOdA3eDAw4/IcEBLshoFnccVvkaTgdW9eqa38SGr7wnxi7/USzE/syuxrnrgyqfdiVVqk5ASLXQ/eQFJqURLlNNFFgEQjTOtHHtAazccdQPx1YXHcye9EsBrAfHjCNOiabZy7CNLYEGF/5UcH8AbLBngSkJggkSnBusurwuzo0oolT3bERCHZUn2NXsUaqZLWN8LLYBotmPftu5r4wZO1ZHA+0SC8Uhd2N1ixtMe/ll7jXQPPvUF0TXE1/JGsqFlIdx31nFVACVWGt1FRRM+5unElOe5LEOXndgR/2izoH/KQcK4GpgULtQWmBxcDYz+KtbrwW4zozJqy6K5Wwd43KY3YCOi5yxn6ftqsOB7ppC4prQ7vQW4FTsSElLDVKVC1t/TKIOtiw6KFqW/VW0svNC51F/hSvDIjK1RHMTWzQjy4xj1VfaoXgc4FkNCKIUUpwSVQ1duPfHggBEbVmewFJcFRDTwiLExkDM2npTrPvi26LjhqtjBk71fbTNZUSqkm4qiOdHzo5u0ZfrAX8Ts574f2OkZTETDu7HyvrMSj/86gLsgGnRsqg067qzP3XwujMO1e/XOXAXOFAAAgOdQasrQhXdbghpx+8g7vnlj2LoyoviIKQSnS5Vp8C49Cy3aDFCoBkFlJS03CrZcgaUrrjWdjSC2DTrkAdH5wEnRNviwyOWH80OgQeToQew6ExHVMGp2YWIuC1U3bAQKYlicn2jol3KNaLlXQQvjeQpRnLUzq8q6TIlHSYaWX9Z2bkmNv0ns4U3/DxmziraJv1gUrYjbVgA8Ro8WFswzC/4x3+N0e6D09WilZlLi5+odCZwCZECV+KlZdyFUAevu8CkepI6B+6MA8Xau5rdqwHIYaBXKozc/gG84G+KORbAyN6pzZxR1wZatWLYdlsZR6zS2AA/l8uw+ie3n6nMPiTGZxwecw58QHQccn+cTFEF5+DI2dAFkDDY8UHQ08KvUHcAf+OgxTD6ZgufwJ7A3jZWYftkjfQAmfOeAqoAZrhLIEEbUu4StDjLHUw5Ngo829fG+m99KkZv/O84AHvdbtomILcraSlx0Q738upVZDzgxFhw+ptiYu5RUMmGgtDbWBkGuJqjLwGeD3iQV/eIu0RXtgDe1Y71Q50DdQ7cDQ6oIjrA/brPBBtfNbBEpkVL9dBmPlCxPVpKgYc62hnQ3tJfi0OqjladDpzg3jigNjl3dnQ+4hkR9zuNdTQrQJsZqVUNVgaYWeyNtnG3hcG5wZXRgNakR3woWnHxVKJhgSAAgQsDiNIA0OW3E1OJVMKxtjsPKU2STGGtyl43Q0hGw/h/zdq9Ica/+Z6o/OJzMQdVcRAA1b6luugmhX5xu8q5+3LtXnR8HPpPb43xA09GFXZNJvtgAKqTUCqQtsOnBFXBnhilr7saqKoe7mkOlLM4+TatETN94a5R06/3P7+n6a/XX3BAAJtEytETXduX3uyulJ5s6YgBBrcfoegmKrGFwe2EXWpxjlcja+O2kVnDwa07Yud5/xGNV90UM49hp4cjjkPyWoBbwRLsaRji2UNmhAJcvN3EeSPGJe1Mo9xTErMof7lhoWWnIlfGQsRdAInSt8rtpt0+p4pdKr973dcft6+8NWbSBr/tqH1PIEk10RPi1YPVYA+53/HRfOgRSIUgtRIbgGoCF4VXyOC6zVRPiS3AUhrvWqieSbhrSeup/lIcKB30PJa/EtB+3/X0e38pmurl/okcYBDWZAdlLwakcgSDHV+BYbzlB1ddFjMY1O6xpaFetSoHOYcEMKUwxu2o94hzp4XuPRjE1/+WT4r9MDbiijC2Y2V0DrZGE0b55nbKB61yr3qBgEImAZdRPOcFBrfVaQA88zNpSF4Tpsl4cbLoZ3fWwlzuJHBJK2XpACKRjV0dMTKwJXZfd0HMQys12llS7WJgd4KoIqUf0HDTw/ajHgJyz0fVhUZ83lxPmf/kGeXKJz8oYjm1P57caaiD152y6C+foASj6ZLX/rUKYuX933duXD3cgxxQugEkJrGa69/ls1Ji0R+rGcTafsOPo5OlPnqaC1bp9AlAaSdSYnKw+wQT07hu4adPVivgoItDDGyPvauuiaGrvhxxy69YW3Mr+3ihhnV2sCSoHZWtOQGqAfcFpxWVglxsXXHxIyVra4IyfmnFIt5C/3igCWT1D462Qh7u/Cwgyp1TZ86bERO3rYzJjXwnEklR6auok9S0JQNAvHPrxuiYdXA0HXgMPMFlI+kkDcUW+5ZJHQ2VHuL+lH5cfSuSl/RJ4lQBNjBbB8Hlvdptk92dYD1JZ/knmWOJNeqnzorrMtZjEX43prxznzzKX3pJtsrOnz2GB5vz2sU922V8Dghl8dp1ntT+FJ3x/2e8md7Ae/s5rPcp+gSKAc+QVGTh+Tb2dKVtas2NF0UHUX4izN1tNGxjW0+frtzxlKwa8N1V1D3ohwEuJTHTd1POXMsi//DODdF/A8uJfnt+jNyymiVBe6OJac1GDE+Nzdq42JNeCUlkVH8j37hrGTmmxJNYkZRyn8ii9007814tvnZaoT9qm7Kf+eGN5vauaONTaRuvPT9aMdi7SaHl51pOcttNbb6a885de2PmYcfjdT+L7aibwGmdZZEMBXnrJiFJOefqrqAqaQ2F5EWtyfaidcW5xFOQtJeh1o7yMu/ZREN5b3r64s6+vzV2WPJ+4Q/n8s5U2ZzUxnYtEvqgearT7FfqvekyAWo6/dOIK3i/L8IHWO5jXoKWDS/5Vt73Xgly+3L//rOpOsqH8PuT1WPvBgfUfPJ7im4YyBAVRBxD4xjT25etQN2bEatX3RZjQ33RhluEnxhzcPvLTs7BQewwdPZR47fqmH1ekBMY3AhQD/YZSnR7RmJ0ww2x7Zrvs7/Xf0cjayWH0NWqbXyXsR0XCgp1Zq8oFclL+vgZpkCipq5Zh7c4eNcEObaQYjhnhGVb6IPYrVT7JgGhxjlzYveam2Jo66qYCYCBs1mAZSGg5VrMDgC4d+uGaOqYHS2HHQtOQTz5mylH14txPeytyzwQl/3Ucu5CqEleECONtX9pqLNAmlKu6r4LZf2RJLJlehBuyvo8ZnuSoTJ1+s+GSoNxCVLlfWnNYqXz3h+Sfpg8vW3lubDkW7oEKuOr6BsC0/4/uWWc9/2ZdpzXnnFZXvLld+uZYtJ9gVn3/sf5eyjkKebIB7Y0THORQIYdai++EZNN7dG94vCY2bU0BrdcHbt79+R6xBZtRgx07UVuXZMYwXmqVZSXkgz448yk93WN0PnLJYasZwaoADLwYHLrrth41VWxacOGmH3I8VGZe0AuBBdQnEiwkqK/USiVFGOHU25513vlOFMgKPJ4r0hQYY3TBKA82jCEHxoE8hHISmd7dLRPRN9V34t2JUbK0WCnxMVX1VJi1MO+iXu7d2+OGYeeGA1zlmU6d4NVXURW5K/9Vebto8ui7ixg8Af/YLQoOAbH1L9lXBoCyd3ioinl1mytFfgr0dzzbHot3vMylPdoDVuE1KCVm7LTLS9oP0mcxtVQ6bXwxBfp+KFj8zTzWmLKIA3lZXleqzKZXKa7Fx4FJkkeZ3uRohPROtoi+YKXm9A16lrtNeL0hvXrYz0d8bZbb43bVq6MrVu2MGODfwyAtXjxkjjqqCNj+YoVccghh7DVCW7bhFHsHQKancDCracMZSdM/u2LLm/Xj3ebAz5Fu7kyF/2dqwp9WOO5i5LdaaKTBYsNE3hsrr8oBn5zYWy45pcxseXy6GCIaczv4LmoJurv5YJmVcjcMYdH6gdj0yDOFhGqaYIDH9aJEe7tJM7dSRcc+5RoecQz2Rvrfnix41nW2MICbmmRGsYTkg3VFHSWfSM7oX2REUi/s5PmKBRMADndXI2pCAhkHkUE9GMdFfwiJvBnqw7dHts/944Y+tUXYwlOuPllbtrgDhpsOZYrApgAjV3MPXSc8oLofu4bYjdbUXdCfBVAHGIPH9VRmpxhep+tRf3BA/vuMwfAoJiA0CFgvonGNPG1yCGc3RRZO/awx9BVP2FHxQ3s7CigCPs0lLbobZvTw1SuIVBhWeYUIR9l7uXjwK26QrOVlecYF6sdc6Jt3jL26ZjPU+omTu8UAA3mNSNDN7DYawQGNTMQdYirdQurTJDzQUiA/5zZcSZlX7216u9lB3lg8KgzoW2x/0zUpCa3Sdm5fWtc8LOfxIUXXhSXXHJxrLx9dYwMDcXICL3YQOdz580memqVHek6efM98IEPjNNOOy0e//jHx9JlB0b/UD8GYj6NLk+QxspQB6+SE3/JY9Hn6bA5PvbVRET+FyTccdR1QMO5nfOuay+O/ut+GpOrvh9teqIz0CtIUxxwlOJcTKmpjyl5UY6g1kpcP/5g2+hDI8sfGEsf+cxoO/60GOtYAYLwImQvnd27d+MQ2xid7H46jI9VK+eOmByp9A+D328U1CbBgApChmPJrwtNKH1xX7cLx7sAptAxzv0Rxz3pm9j2opEJgaEbfxXrP/XYWMiW9R0g1nZwA9NbdEOfe3gN8WsDvIZY+Nj9mo9F/+F/g6TWnRLZMF6tQld+FSnV7X19Vvr+WEDyYk4E+vifhrgmCG0EvMYAr9HqcDRvXR+rP/TsqN58ce4vZFqFIcVN3wQ2yUb6K885nQqZzhsEnX1zP23E3O65R0Tb3OUsKj28mEpdfgJPbF6C6CSwPQaTfGs1oxMrRVhOojJlCWfwGzqMtODavazl3vGnBKv9qRHDvFcAF7zmzTM8NBDnff0b8R+f/o+45FcXp3TWzccMWlrdbQm7BWm0C4zzbFzEa9wYr7hxpLW9e/fG4NBY3P9+x8QrXvmqePoznpH88H4jnXUq1PhE1sw/FV8/+TNxwFcsT8bnK485+iA8t38Wf4qLUcEAi73SUuB0GjvXxvjtv4ktv/1VDFz9HzFnKwDFo2tnvLBVVu5KoZF8iLHX6ZjDCXQX0tbYjKboOem50fG4p8bYgsNwFm1i73ekcNTU8877Znz/+z+IM886O5YsWUp/QWKqmSFKwEqq7JDQLfXKaI4p4asCjQUqFOeT4gHgJdSgFJPCmUdBbRz/tYHo/eIbYuhn/y8/2DFAuxR8Wi2CMERbEBajlw1ix095Six63rtRP5cWvGLVtt9gpGaTFmM8z+78T01tpBaQaBCdsRkkVpzzs0qV5sGoblob2z75omhaC3hRhw9F4IDqfCYIbGLLVCgeGnGmIfhRSfceypXzpiXObT9ct5VfNKFVfaB188FPi4UP+ttoPvwBPLVZiMNtUNDIZrAKrnYL/yr5yTAFW+NkMxKGiMrx3hwKwIJ6+KsKoaqutHXl5ZfH2858a/zspz+D/ImYMXNGNDcz7W3ngVklCOYxeWoZGjuVwPiYAuCucX/bjp2pVv7zs54Z55zz7ujpmTVlC5Mvf4o4fm/m472bNnu3A6MArQQyrzOqeOHy+NnYj/HFTe1ZjUhiVXed0CI/uAdp7IYYuwK/rut/jnP+NahXqJQMflVKvR72urkgYlnj0Y+LuY/552g4/KGokN0M31a+p9gQ625fGR/88Afj45/8jzjxxAfHd7+HPaqtIyX2tJ9CYVLp25NQjhxNEiMMbJ1aNfKLAN7McYwQkY0gp1JboWMxCu3L1Jn22TW/iJUfOT2W7GA1AZJjH8XbPtdp5s6vyiAobTsA3gNeeG5MnHR67CJN98QA0lsr5Qhg8qigS9ruLGCwf+uZhZ4OmCBS5TawIA26JERRW9/2GL7yu9Gwc2NuMQsAAxw0hWPWA4FWl9cey58cIth4lw3kN994CM6iyIsmQMuN13yTuPvj0JrfRu8130DmZOnDAtTJmYswaPI58mSV0latUclgS7bidJvjnDfen9Boc/+lQwk61uO5oFUc3QUcgzzA9aX//EK87IwXx5VX8HWVObNixoxueAMg05EmsY1lJ7MA2mbrs0zKUiWsAlrZeUhrwm4cB1WzL7rwkti8cUOc8pC/Qq3syjeu+fyVPCqPFl0Pf04O1PpoPi/OPXqYVoXn+l+p4TgOnBHUpjzBpl6TOExVevjm4WGnxszjHhHV+Qei/VSwF62MPiStEdSw4SUHxrzHvyy6n/TCGFryYABgBnuFgWa9Q/GtL3wxXvTSF8X5Pzw/X36PfOQj40lP+rvsT3YSJa+Slqk+QL9ICrkxiXTmsMqhy9ia4OdsoCYczUr2QnpuvnjVvpTS3FJaY37MmBUVPnq7+8ZLopsxDmal3dyvdosZun20AhztqJZjfMG2+YQTiWvDpu7IVsSkbNJN0TWNZ3/olGkQcig+QTJnBAiR6S5OMnDALS19T5w5kGgfiLY9s3quwT2zZYbij2UZLXiZDp7k0VLzR6NMoyjshmwzVPIpc/1FX4jNG26Jg55xZnQcejLrxDQawiCMj2NIWDLCMl1akCUoBuY5l9OCdw0lDVmZxNZamTe5qxRXpOIOp4VXcXF36m+ZzaOhzJKVECnXy/jijLIKsHAm0AeiQVQAsy7fV+9513virLe8NVpbmhDrF3EPWXeY3mmPJr15ygdZfmnGt1KtpizfdGRMfoywV0ozktiyxQvi3C+ei1TWGB/4yEeR4lhHRt0NTrr8yaGg9448+0OF7M+kP5TuLx9f8t7jHwvFcynSlLz+Y+nvzr2cFBM88mUzxKNTUMCmK3A5IniWDfSPUTr3MHvdt84+PHoeOj96jn9kjK58Wmy4+oqooGfOe/hjI/gS9Rg7kLZEd34h+8pLroj3v/Ntcf6PfogbRVMsXbI4Nm/ZGgsXLkQAoXwmchrwyyhGOM+JJpejvXy2qolS4kc4BCrt2S7daQRc9MlyR1hfu2MMfO1jmoxcmlQRfDiv4krb89CnxG4kxm23XcGsKiBFPU5MqnkhC9n1kQKx01339Zi84iHR9fAnE+euEtJkf5ewkrKiP+Vf6/FZelH8yUehHMR/Bho3HRoa5EA0/qmSYWuhIaOVjpSYoJAGkZyfeFfavDwarLsMAoyhGZByBtM85f20m3HPa4C9UB8BLleWL5nJFhobL4vb/99r4nAArHrUo9hVEgaJ/rwJLEhGW55/nCX1fMqlQxq8Z50cDFmvf/JeAQDlvX2pTFlmrhVBHkrfFy0DvS7Lyhos1zjzl0H+FRGK1CWAuTyjCtie8/a3xZveemYsYlVrG+Kns4TOumrf801cDD5KgCe+GGSvHTtfEoK1ZBjygRbX8sCOJJAvXjA3/vPz/xmz5s6Nd57zLmaA+JwWv2ZmM1NlvSOxRVn1v39ZDvh8eHDZVSaLF4ofkbUrFXPvPk/GgOOQUW8/mRjviIa2w6LpfofHisMfZ8LYi3Q2gvF9Nl/q2bluQ3zhc5+PD37wA7Fl7/bomdfDAvAWvmY9nCaFRfNckkN5AE/ah2tjRZm+dM0pCEriclw1IiSU0n9l7+boxRjf1TQYzQuX8hWQJSkdTlRbmbZjmQ89swIqNWr/cXpxwbHRfdLTY8/qK2IWShvv0rTXQTZrL5HE6Mi8S6OZd/T2X342lh13QkzMOJ4+CXDDiBw1IiFBvpSDCupq5xmZV/4p/Lzo8AKCOq/CodLNCCjluqOG/t0xwLfXGnuZbQTqSlcKC7SaBJHyvFa240uCTVOOc6d01X1F4nyAHKk2t7t1i5ARJEfXQinZzaKBTVu3xrpNG6IV6auZTzZVUGUrvqWSRgqmqYnYVJJwZGWGotXFMQkwjh+V5gJQys/LTGvnMaLIXL598w1AVM6k2qPKDEUycxpbxCdqcJUR++IyKffsPKXUpZvDx/79o/HmN70p5vT0RFt7K1svMX1O5ippx3ijFZ3MVwcvEVTLRjseb82aNwwdBiCXJPhQvLH21VmlAxHLC4HPuWPs/9nPL4gVB6yI+93//kmDHdY8/rtrwXQ2zOOd/cp0d63kv2Sqfc+x4FG22Xbv95OGMu4vSY9l282oLNnpSzg/O8Yxfat41vlMM41SMjOR2lkAIgUIl9VUGPUTjMmmkTbsXy3xve9+M1740ufFf371y+hj4+ynxTbPWPfVSHxZWt/znv/8OODgg9MEkZsk2n4HZy0kn2p0KU018HLbtG1n3HDTrbFs0ZxoGN4Sa773iVj37bOjfeVV0bD6dlBnM/FAV2sXElkTOhELhmwXPh18giM6ZvJFbtZxjrMsyA+ICFiOabuP5wwB1Fz8vno3R5VvQbYccgo9jPbBAHtv/id9CiPE1VhWxGcfLKkHELOVJNIBrTrRnMY6t3GUYRPos0V5yAMUaEFeqzJqgBeEVHeZnExfFehKEHLxqVtkDGiD81ziASfTisBs5ZNSlmCt1GbZaUvjvtIlL47owmdkL5MEwz/6UHQ89fVMH68gHQnI70yk6TXek71oAsciWJlwRkm5Ebj32RoEJkMKou4EpGD5zKZDsQyyUYRC4inKS0yjMj2KpU848eMDitN0rUzvbIpMH8eGMU46AaaRdR3lKvkimU6k7LGEN+IlF18Qb3/7Wdj6mqOLNWnDGDG0bzUAUrbbN7F0q/KNoQbu3N0LL0ayfaqE7dq1cPIZBfCqIr7qIKRXFMmwjlYB91FnlRCL29raY3jrzvjIRz8cjzrtUbFg9sJsH6mL55gtuJM/yQTKzpEnhYaCV8W5f+WFD7GWLjvJvrv3xFnxHMsXhwPgjjSX94333LB/mj873TUarMenLEUKCvnXA326oMR7vLRSzZP1Bf1qGA0YtofHhuKNb31rfOLjH4HmiViyYDZCD32MDeIt200Ilcw6u2fG8gMOzji/jJ2PiGrK9nJa2EOTBsYj6uXo0Ej8y8tfFgd3zYgTP/nhGOnuiYXLjog9lzG+b782Bm+8NheVsx1+jM3F4XTB4THrsBOiuuIwtL+50ThjOWuY5kf7ac+PW9ZdEUvpMq10DZc6OfYdvrqNchlzuLfxwnPjkKPZKmfpSTHAFj72rY5x+jvphlkDqR7iqJ3Ed0TNJAdijV7pd6RlZPp1UGBKIoCXoqMD1o6bq8HJq6qYZTDm1WEFHgdPJzMgbvfhLOJuREL3KtLjth/wSkJ8KqR1TyNBx3xOp7r/dos4QnrLU2JUGrN1gmM397de/e2Y+YDTonK/xUhfTKpCl06vTtE6WetZ8djJYIDA3O0RYpViKjXDt2vC/ABB0Um5IGRHygblJXnzf9FG2y1q1bpULnDVLgDxfhVG1beqizOhgjhqR0rnPeoUgBJPaFCCE0zq79sd733fe2MHs4IrlrCtySibsUGb0pUdytmewmO+IbZu3ylxsWzp8li0eBEdsiF27Nwet952W+zCKDp7Vk/WCznJV8VhnRl99zUDkoP4hm3dujkecMJxceaZb2W/dD42ik3NN/P+Yd/gsK0FT8oO7njzfTitvxTZi6QZL9fzsuSjx/2CfC7r2e/Wn+VyH737wOiuFFzmK9NOv/5z0Fy2uThSC6xxPNR6XxHxO8yVo2WPtl8VfSjBi36wcs2aOPerX0pwmzNrNkb8QcYgefiN0SHsEvarzs7u6JnNZlvUmf08T8qxzEvP8c2z0ozQAHAN02f+7c1nxX99+cux5GlPBwd4aQsa7TMTbJgXiIlZyCAIFpW9nG+/NAavuzQ2/PJz0cIkw+TiQ6L1oAdG69JDo5U1QYcefr/ou+bqAG9zPGevgMzC9IH0xfnYppti16XfjZkLj6QujfZyJglOLTSlRGh0RPlXYSU7HX8Neq0lR30LOH1rosKAX7whZApV5sEBa9lZh8kAIFFU4FKsaViIxLTo77GvwJDxPdhw2mME4vuH2bysd1OM70BUFOjI52p5JzfcgC2rsOhsYVGHp+rMlVGWPfDRgiWHPCgm2paQlrJ1lIVOO4LpkiGSSfAhZxM4KnIbnSxJVKQdJna5hqhLhaXNzLwyKd+APFA/sGmM/v4enYX1qqIDBzaqAsllOHzi1aLxMgmi/ApbB2QHzQYVLg3fOe/8+K8f/zjmze3B6XQkQU1XB4NiviAmeG3cti0OOfjQeOlLXxqPfvSjcTxdRvWV2LZ1S/zqkovjU5/+JOX8d8ybPaswxgN6+UgBsEba1bt7D/weiGc961nxlrPPioWLlgJchfRmOyAy6yz/2LEN5XH6efE8im4DVHNL/pC+yJLXvtiKUklX471lTAeCOw7iqcwm+7OEkvayHgstz4t7trmg0ntl+ulxZXrve15el0fj/9RQ1lMeZQ8F5xMo2F6AbXnfe8lfUjj6pK+I8oiliovNmxhH+PA14YQ6Ouo4oMiih2e7lNiG+YDtjO7u6ED6LrWAosSCB2V9HjVLWMKZ//rm+ND738eC6+5Yu2Z19G7eFD0LFsdk96wYwJWpDyFD73+dY/1eZBdF+W6n+8XE1ttiYPNtsfOa83N1wDxsuXNadqSPmtqV2KC6qNeBjrZqYppnZ1HWjssAr+MeF60HPxypUgcNTCi1ZyXNxejlkIKE1/uC2COPctzZ+YoBrOxgtiKxjZSGGo+SoSZISYwkQ8wgMFMbc+5/RnSf9kooQyIZ72MWkdba58d2xQSLUSd6t8bwrXxp5NffiHEWlC6EKbI/H6rlG7IiDhwlbhYN337rDxHpnhsTHctBZD+UicSFcbucISkakLnzNDNjT0DWANhgBrSqLqrv6viqOmyLfL95PRVsJ+Wn/g3YqXdrn3CFvnH4tRdH1DMH7bDpiW/ivGAkRNNey5ZztsE33NDgUHzvO99BZMYq0ILah4gqUFmXoZC4KrF585Y4+WGPiE996lNxwIrlec+ZRl0i5sxdEE980v+Jhz/iEfHud/1bfOC9748e7As6sKbNgaI2bd8ec+fNi/ed/eE4/WlPy3tDvpmhoXBYtT5/xXO1gnJwlrTks67RlQOoxhOz2X9sb+02vDBOPllkwTvLNJQDpLjaV095/ec8/i7tPkMlC19Ad2xvUW8ZVwxcqE16p5djupI3RZ4//W9ZXpkzeSLTCOW96fyu3chDQXdxatqSlo2bNsYe9vmag1uNM9RFcQKbA41xCyrYX5xpbMQxM18oPru8azloJDTbdL6/OcOR9az40Ic/EPNnz81tmW9fvSrW3L4mZi44IJrnLY4GNqhvwxY2AwATdHREUBXUhj3GEHc2sRtf227i93A9vH2HiwPol/whzv5S9BXycT1EvJrQTOJHN90eWy79fszHSb2R/fiLPiddJKLcVMdIx/9sQ/HH+wU+FGd/wt/svJYmHtgAGjII0XtbEFW7F2HsZ7M0IFnbFDQ6niEeaWbpaLTzeaYVx98/9pz34dh5xc8D9bpQFS2PIGN5yeSAEG9mEN/fuyXGNt6GaHpyipM+tHEApVraBYomFwXQTGHJ7TY0fI7h2+tERCtxzSwGdWbDdWE5qyMnHJE1jhQkEMe1MzI+KT9l7lpLfcqUu4op5EKsV+MtAB7JZnSIZRzYJEjaRh22O10caNB6RP1fXXIJb0N2GsceIUfKzlt2yv7+vbF40eI4553vDIFrCFuXgKOhVYoU733jdmPLOPvsd8Tg4HB8/GMfj4Xz5sZA/2Bs37kzHnPaY+McgO2YY46Dh34zkM12AUtfRcUgcZBS2LRQ1j/96G2vxylDbjoYcrmRr0/ik2U+KHlEeaZ1MKgil3lLddhrwbmM3x/U8saf/Kd8ZsUTK7MXdBQSyjge7L5EqowSOeg91SvNIRJtzmwjUq+SrzQK8v72zQ4X+e4OzeYty7M+f2XwXJ6V/Cnji2dVpDONNBk834Zk7myieXzGDpZ8piQ3XT4H4pYhsVdBGfMUM/FI6DxHyx7FnkpGwKIhPvnv/x7vf9c50TOjC0me3S+QfnrpS+s2bAh6Ed98nMc3Pg6JsQ2XRStj3I6dE288UifhUgeiD3Qpr3BPWUDpLLGB7L7Y0mAvfdbKdbpPcNQHbAZdZvftGNV610bDfHzFTAX9jXSy5Dv0OhaLHTrsX2SshUJgKK9+57gv4fRbySxuiaKea5zvgJDmCdZSjffXjMlAsUzXsOUsmEyD4X2N86PrgEdG91Pmxu1974uxlefFDCQ3GwXNMLso0/os3w3Zuhjvu9feHD0nYMAbpI6xjahx6KPNrDPKbjidOs4lamKI6iVqAczuzg9e6opRqH5lJQ7NUr703A4Ouckj3BpoS4zswU6Hrpv1wC6krgw8kXanXlHJYtj7jTHejt7M+i1lNO6QxUEyGdf99rrYwsLqGd2I8dlG7xY8scM50LfwbajHPe4Jcf/7H5fG+mYkKsFK0Cy9jivwbxhfMNetvelN/xrXXntt/OSnP4/FANiZZ74lzng5386bMSPVUvmdACIdCZYFcJVqsp3aYDrPy2MxAHjxoNN7rnqyL9AaBnp6/0OawXzOAjdiNzFYloPVn/n9GVcey3rzGUmD+c3Hz+NUKCM4ysOSvqn7maO4KukXCIp6q0yQFPbIIgUgzCQHY5c3rS8P6oLeCls0q7qX6rvl5GQIfLa+MuyjmRjLgFJvS75ElymTjjKJx0zgMCjsVkRlnLz12fj7Y8H85S/5TKUuB8t6OLc9ci9VdyXiPJeohjjscIzodObcCECiOU8pnueiCip/Pvvpj8frX/f6mMlLta2tOe1e1Yn2GKRPr1u/vuA5M2cN81bgonFZTKIpaU2xD2u7drcIVUjHqWsYPboXmbxRRRS0SuDyhae0JSl2Ha03glhaTnp/HZNs5zMx/zjuM6NKJTqn27pJCs2Xju3jnmWX4fdzjxRmzZo4MUNxXWYrjkkLN3LWkKgGZUkqkOBKUo2ICLq3QG4jviutUDwOE5XIWhYdHHMf8TfRe+t5afy2MfQZ3g4WRH5a6CeiPHf2sm/T6pg9sisGrvhB7LzwM+zeOBvXAldaIfXwd1qbkuAxnmwHn4rqedSzcRvgayumsBIkslZnBxjQRZ5aA7nKdtJhPFpyNQZj83+fG8M3XRQzm/qZRGAmh1mQxtxkaTxGsV76xeAmPoawbbArlv79S6Pj6FNhOO8KCsl3PnX+9pprEeKKwWzZELivA9YGnG/JfFOSrjBU0nT44ZMouqUZeUvT4ccZgLNmz4nXvOY1gMx4vO7Vr4rHPv6J2SmHsYPkw661ztoM5VT0vjYWrS/uwpZsdyElONhcomTYgsuK9rYNa1bGVVdeQadeFwMYd8ecBaWOVoyX7V09ccSRxwK894+5c+fEgQcemAPTQVpKFpZvmA4KyeiMtZ37hTKCowPUcIe8teRFsUowvDLoQKUUs57Bt23Lprj9tlvjmmuuYQJjawwMDiY4yZ9GBu+ceQvjqKOPjmOPPTbmo24vWrQo2+2Al27rkxdFgH76diF22hb7S3GsJZiiryTdeMvI1RWZg748DbQESqUoAbcMph+zr0gjaQWZ4luQ9En4uXbtuizJMk3DQ0hQckF1XoAsPrslTAoVPLc/QyuMMr3rKlsp88tfPjde99rXYRdrik7cagZ5KVbZtqcVF41hBt/1N96IOkVfbOvkI7Zzc34+v8NIlUmt1dXGqi98QUshRhONXNG2ZRAGfEYCreNYMv35ClFrc8eJBt7944xtH7PtMti0tE8zivKCQqbbVE3z+8HLhGTO0ij5p84AAEAASURBVDhaubTuH3x2ipC2wTTjLofXzoW04HdM/Ow5m2ZAZCPbY9AZsPl0kE6iOUTnQYdG5YBl0b9ubXQgSAlY1pP0c+KM44TFScvIDi52RQsuurtuvDBmEe80rDzyTWCBSTKnMrMf7vTu3BI9J54WzRj6U/pjSm4Cbpa2PT+WkICWGSWMEw7WOwp8NW+/Lfp+/fVo2PSbXOqgGivjfQi64fiZdvcaxz4eLcuOjTZcGbLTC1uUkwRB3M7eHfDHwVBIIVZih7JzlYOjvb09fv7zn8cNN1wfx/LRgqFB1nz5WgLUbCA5Mn/a+fDHUT141F//dTzkoQ/lrYkTMUZa0wiAVpxN4mwqQI9xCYTUXQ5O7xtXznw6+JXufnXxJXHhBRfE+ef/KG6+9WYmeFHBmago6U6gtUzKGstBzTpU6O1G8ns0dD3ucY+Lxz72sdHaLk982xdpS5Ccoov8BV0FfVPxU/wraeZoHCEHJZmSp1yr0sJIdlHojQt/cWH88uKL47vf/W4uk1LiGgXsSz6X4Obsrnu+G5S8FixYwM4cT+D3N/GQhzwEAZtlx9BdSqA+u3yottWQRPOn+J9RBViU9HEDgo2TzlIy3YAJ4dcsB7v++uti5cqVsWvXLmaeXfJMnypKyWfo7qNO2Lz61a8BjLBdUZy7RKy67Rb8LQVpniH9sJC6FBiyhwCEk9HJ1g49bBQocdZvW83vC72V2ejvfOfb8apXvDLvuYRMA3+F9o7hpjDCG1OXm5tX3h57du+MrjYcaucfEb3084Z1eBHgwsSiEEQuygM9/AlEjSggOAHk2HMQq71oE7dNeh80i3g+Pxrq+FZQcZwpfSHsRSMgOUz8CM9Rr8YqhTnhVvCXhAYG1fSe/QfBizKLQL4U18rraccc69x3X+4OiNeFQEcupYVRCMGsHd1UqGTmXP5EtkCCQCqktMqMQyLm/VX0b/xStBEtKBhstFlSNKVsnVfH2PA/RvdG9eCTYsZhT4jO27/HRmhEyR0TEwQt/ueD6mACYeuOq2Jw881sv3MsAhedEcviCB22CWlIq1UxCGRHUYDGaOPHa0bNuPnS6Aa4wIaUgppso3VA5wBNUA3t5udi2daj7x+VxYcC1k1ImjCZIot+rkQgVVwTQV/KMjIi44q6u7q6MNhvjrPPPDM+f+65dLK2fANXYa5UZWAAJWhwUZQIeMI4gaiRjzJI2x8MRTV5uxxkvvEnQGSvW/Cs3o07xze/9o0475vfiKsuvyJ6cetoByi7Ozv5khabz1G/jrZWXpRhhUXB0uAs6gAAcu7nPxffwnnywSeeFP/09H+Kf3jqU3HhYDskpERTJ5DQSS3DEspSPP6+kOkED0BgTCAkoZJsMy9Fy9q4YV2cC89+9KMfxZVXXhn9fCuxg87RjmNnI1KFLwFBNkP5ADg6qKVbPmzbtCE+gqf6V774+TjllL+K57/ghfGIxzyG8rURYT+jes+VDCzKSRLVMKnfV3Qh3TippPOxvLJel+isXXN7fObTn44f/+j8uPWWW2Jv30D2V3369gX7our6ZOyiTx199JF8PVsQFWAxuezeG3t37kBSai6ke3urA1oCSGQ/G2aHkR6k31m6ScDtEeKhlP6I9belM372i5/Hi1/0Il64A9i5ZpIe6MFG7eRGM+LTOKaQVhZ5X3/zrbF5z6boXnBItBz1mFjwso9FdfWvYvfKG2Ns/RXR0leAEt0j9xezi+YjghSBS5I8KtxoaeHRJVAVY4JzxieTobHVNZsHnxbhh3SRXtKzi0SNiGPCgWs+aS391L5yRw1rOuem8dDmUqkxPJ9C5dh3uzxzgPpL0VDiFU24thqlmkRYCHGNFNzhvhv522kVx+l4rM5uRKfWgU0fMUEwNTuO+i0JRtIhaDcP0hQ/EDd/Rsx+4IkxsKrYvdGXJ8msNuvLqjjXHcMpjy03XRXLj/tbEjUBSq2gvd5h0mqu8pfkcS2gFfQ24Yq6a+0tac7q4G2T/TRTAKTWCTmdVMrLKoZYx9VzOJ7C7FXWzOswP10uD+QEg2sOnYlI/kuldRZBGhw8BgfoHN6W533ne3EATojveMc7s9OrgprX+z4PS/A3PRRtkfbpsfudl0zKaJ+FddNhGRzS9KMfnx/vZ/BectEvc+DN5LksXoxvHUs/UnJiPzYBYzQN4T4/n6Nv9II2i23FgdZr7W4O+J/+7Gdx0UUXxXdZKHz2286OQw89IgGuQQCU2JJg8kxf6WBbk0219kzVQToXpI/iI+dExCBq4Ne/9qX46Ec/FldffXXS1NMzM3rwg1P1q9IBU4Wv1WO5/qbKg2ZVM9UsJd+ZzN729fWxlcz34sf//ZN47gueH6/FJjSXZVa6/zgicuKp1mYOSWfS66nxmcq+iwrOs2uBv1/+0hfzed5yw42AahuSUXvyCBZmavtA8XgK8Mp+wg6DRx55ZALgCJ6dSljbtm+L3l29lMnSHJ6FYaotSQwbHzKzfQj9qJMXjvdcbaGdUuC65OKL4jn//KwYoo1zmEEcG8LwT5pCrcWAj0i1Z4CJJ8p93evfyGaXh/LCQQOZOSeaT3oWO0H8Y7T3ro+G9TfE+KorY+imy2Jg7YUx2cfSNsZBChu81GFpalfNPGasC9jLkBoZI+4wo/zSTGN98Q+oLlLXogc9Kibb5iC58WwATxceTSKWTfKsieGf7lFkkDAZVQu/H7y4mXw1US3xtDy1rLUDNwQcgwz2tSgCW6X//C/C5TmVawty9wqdPTHgUJFf9c1sCWLSV/ZdAcw9wHQmb3U7Cl4SQ1w0IeU0/XgRHhgbWftlBjtLAV7m1VhoUEXdzRdXKviYRRdfGiav3St9uNRdpdMOTlofdAIfAJw+W9tXxeD6G+nU3KwhqDPvqVJCk2s2/erxXt4gg4ceF3MPORn1ifLZoK1STSWZdihpNMZx94Ne3v6K9PrhqKLJl3IgSWt5voh1iR983wdYYdAVb3nLWQW41QYcRCY7TS9bp4INMBiZjcmr/HOHy1qdJnQvMBdtb968Id71b++Kz37uc6iqgzGbN7ZrIEkQQ9i22HQHEGUGDqAz7KNgH83SXg5gQU0JzLB82dIY4A3/LfYqu/o3v4l//9jH4pGPenQOPEE9eU6bMpRHLowv4opDyRtB1IHeghR3/fXXxjve/vb49nksXYOn85m0EIjcjWOUmVg7RL4riiKSvrIcB750qkJankBrME4Q62Lg9zGyPvR+wJxZYum+H6p8qpDUUbiHKAcUL+i0PZG/LN/uIi3OLJ/Ji+hdzAA3Qc+ypYuyDvlqndY3ATB5LIPbO9lOAX7OnLlZZmkH2oLtsbd3Z6qFppf2Mm/BfzbxHB6NZctXxCwAXMmQ3UbxqWyLq664NP7l2c+O7Zs2x2K84CeYcZx6loyBZqS5/gEku4GReMe/vZvdTs5g2yqeudIB9ytpH8JpFReN6FkR1SNPjo5HPiPatm5inKyKym1IZWuuj01br4hGpDJf7J28F/lCG4uGEE4oSpcK57hUD3HDDqxccfATnxdNJz6eIaZPWmO02Sa1AbjrDKOSpb1OXPEwPfxB8Jqe6M7OZb115Btj33PIbGUHcrodTvMwfCOBvCICUsoEn4Py2XGVYqIgJJG1QyKzgDGhckzeQXJ2sqq+cdkjY/fmL0QPnKk1LyVAMVF+yyxtYo0bLomRVVdH0wkH8RZGhRNcqSmnjwEwd2J0sNhhIK4YOC73WXsD+yldnF7+irwyneJSx9fVwvVZEtwPB6sHncqc7wFJo7vSmrgYf9RF2kMOPzQWL1mM4XtbdjYN8kVnk2fWXdKAtAAzFgJg7zrn3xhEXbnBoKDntHh21KJgM0JALUw73f8BC9Y0K4N1WpcRqlKXXvLLeOUrXxGXXXZFLJg3h1knZkp5OLk1CmkEXA2wDvZxgLgEG49TA5XyyvOy/GJQTiT4eb582RJ2CtkQpz/l9PjMZz8bT/zbJyUQWE4+fI8SWWuT5ZQh6eWiGKiFEftbX/tyvOFNb0xfpAXzmcqvgdDECA+EkH5vMMLisg7ipksq0mQdxnn02l+ZxiVW2oaWLF4YVzNJ8bznPCc+CoA9+MEnJTBbX5ZBuSV/LWffD6YRzjnnnXHW2W+LRfNmRztS6ThienopcC+BtlZ3JuZP0Wr8E5l0acdWOHfuvLzl47Ud27dvSReZbkwMXpe/Mr/tdZitwNVGKXgIIHPXkpXYLJ/zrGfHpnUbYsn8Bexegu1SdpNR6bCKJDfEjPk2pL0PfOTD8aIXvzQGUfFzWRGAYpdpcjOxyiDlN2LGAZWqC6KxcwkTZ0dHxwoKYpPBdrbNGtp4U4yuvTb6mOTavPrnvN0ZGrzL9EZQqOjnt5Psg3xJe9HDnxFNpzwhxpsXMpSQ2hmbBS4wfhxtPj+KhrP8TU7z15gi3EXwMjOheCbFefnXW/yolwN/SJMCWHnfqnlI/MkYzxt9aI78MfS6gV0pbqoy5pKjkiKSS6ZMtrwKS1zcYzYb1TArmo44KYau+wIGvgLR4XWOA+mQHg2JCBbRuYfZnHXXRPPxj0KimpV1SKSzoflm4okXpJERINPDt4kN0ibXXheNMB5zQKq08DulO8uXDQnK1NmPPWzxsaemyqg008CEhcAo4NG7ePBjiN8HxiMe9aj4xCc+lW/NETqPtgxDCVye2xktQ/eELiSAN73xTaRrjjNecgadvgAeO33mkTu29Q8F2c19XxbJEP6m9ERPbIIxX/vSufHqV72SBbIsV2IbnXyp8KYtUgPyiuwwZoQBnoOVBnstjQ7ckm6vjS+vPS/TlaSNMKM2Z/ZMfNF2x/Of91yku1lxyl89FOnDQUR/AAzMI7/2D3bccqZWpn7wve/DLng2IIuEwdKpEYBG+5J5baollBMj0we3fCvpnk5rWV8JXElHLVK1eCGG/N+yzEU70de+9vU46KBDeBbM6CYA2ueKl89UmeRtQnL9D1ZCnPPOc2LRXBw8ARBVXZun+XMi8/qA7vj8vVbi0g9rzux5+a0C86Tqx8tr7do18EnbViExSoNtzJ1CCnUnRih24aKF+TwErltuuTX+6fTTYyXH+cyuulaWIVOMV/qCi/6HAdXtu/bE+z/yoXjRi86Anxp3eM6UmVv4cHRReAW/peIO0gGDsuoLTUmEOkfY5aI69/BonbsC++/J0fWQv4/JXZujb/3KGGKLq107Vmcf7p63KBYuPiJaDnoQ9u4j8YvsREDJUZ28kTDVRcsXqOgZeVQWmw5c8qqECs//SLBLZHkpbchQCbaz5I9Lxj2F8wdQsENCQh69X+tSea3TJ6zggdDhtvEm2cTHMynLZUIivABWlitAKPH4QBpm482KL0qnxnZsVw3HPjAaL14ee7auiW6kL31OTJ82M2rULuXEWzsANHrzr9hDe100zeghDW9dHrr0QyqBwZEHLizAToDD6J6bLs9tbFMS5L7tSymE9uSEHsCFdJwSYOvyo+lA2I/IP4YanMXAJHngm00J5slPeUp8+StfRR0ZiC5AuFQbrNpQDnhBw1m9LmYupe2Nr39dDs6XMzukW8S+QQKt0l97FjkyBACjfED8t0xj7Ky2UWN3G0v9v/jFz8f/fclLEHzHYj5LOXI2jneevC7scjwhgEwpthmDdw5oylIdHMSm4gBy4DiIUjrjqOpUGLCpaL9gmapcLhvZxD5TL37BC+Lr3/pWHHLoYTlQJgGWpLxGf7nOtgAI7xQ/fdne9c53xdxZM/lizswYAvwE3WxvrU7PU42rHZWifFnICQHK+wKZdGvrsm3ls8h2Uo5pTKsBXIBdsmhR3PDba+NVgP1/soFkJ/ZA05pueh6fjeXehqTzgfe+F16jBrHlkXyTV7leEDrsfuWHWJyh3fcSLaTdUXg/D9Vu/nzUO9qnND6KE/Qtt9zMi62QGq1rij8+N8qUx80Yk5TavHfbbaviWc98ZlyPn+EyNvgc5kWqIOCa38wPH4aI2757V7zvA++LFyNx+aIRQAUNt2GqdSTyABVIBNqrwDvMJ8AJE3QjOII77htZdzzJb5Q1ipMV7Fcz2eVi5tHRteLU6OJFM4nfZQWepqkIcB9nEwjNLIgRCUIKNIYUa1CdYC390bvUo7kHWoq+yY1aoCl3IViwDGIEWGhWwzEHqfHGUVLavECPAnw80rHywoqphz/5lVz0fLpF7Fh1Y+xcf2V0CqEIYgkUlpVpizKNs83jGIF18W1kGrPB9QWsu+o5/IGpP2N2YpaP9DA1Rym3FVFV77oQcPauuSDGd2JolB6Y4LY6qTZyXR7JmR1R76+JPb04xV4VHdCVoCWXChZkO5IPRO0mbja6P58EJh0PHWaPWqY8IQOtplOxjAiR/CEPfVg897nPYWqcLxEQ7MzlYMrnBq0OBCU17+kqodG1lQH25je/Jf79ox/OQWfecuA4ePJfHmUvV/zKNNxMevPx0dkFrq+icj3vec/Pzj2LLaftxI30fI26lpX8g0dKQxrze9l4XFvL9h07GEBjDMY2gLU7j5a7Z8+e2MkMWD+g7KB00BQUJBn5p6TJKfkF2KauveGmeC+DW2OwUoUMM09Jfy6opx0lMGibe/e7343R+10A4KzoxuA9grFZm0LWBR0GX5oOdINuBVvxRvfoGGzl4y/O6LrbhnQPYNPS92sP9wWxMnjPen0G8ia3igJ8FgAk3/nu9+PTn/pUtrFM77Ggu4gRCD+OinnrLbexgJ7tzPWfgkiBCy5TuCBTgJy86usfiD04nu6FjzqgSm8fNrs5TBJot7KPmG4EEF29ejV0MZBrvCn5VR4Fya721lixfHkuNXvec58bV/z617FkIbsSI/nl7Cq0jAp8zHIOELd521ZsXO+MlwBco9SVWkMKGD4TGJzn5MEAPYwnwZhvOAaoO5dU8GPSVkXPollO1hQG6goDsRFfogYne1Dl/eDMOOucx1p78P/q5KWj9sDzBQeamQVtkh7NIvDdFSyjDLBRwIVcybfs71z5b3q4a5JXbbT6YO3c9o8EKxiRX/dF6umF7m6s550wYBRwGKNhKfJBoOLlCN7MwwwS98du0fFj029j82VfDSd0xZy0VkBN+k9xrXuFAOTurUpmPbMP5noe4inbvfDJpaiiAh71+Bi54Bsxi1kLjYCDqHjuXOGMRhrtFTcI1V7KXXd5NKz4a2xmVRaS5zDNN0cyiTdACxX383BaK7tj8tqfRufADicofXyFNAiRun/oUaxHiNLgEMLR/KWIvwyuSX2J2NZDe1Y565qdjC7gzCpsYebqDfghXYQd5UocIhdmxxSsBGhfBPzPjuqDVTpwpb9uCkyBxRte81reUA3xfFRI7XPawezU5skgaPGA+FsEy3PUEpeDkan2iy++MF79yldGG297y51ERS1mW8jHCHNbpEzLq3UXg2kP9Wo/eeCDT4yTTj4lTsL1YcFCVEzKtbrdLAK/4orL4xe/uICvHv0sHSgXcV/aHSwCgAM1AU3RAFqUDpbOn4MrxdfiKX//d2zX83jilIgKEBAwDOZx4DZBy1fP/UKcw2zlgjk92HBaWHhek2R8CcE/+azo4cqDnb27+KrOUBx95FHxgAc9KE4+5ZT8wtJM3AKKdNhcAOJrWJ3wiwt+nnSvXr0GcJpLnTwrOFrQUNi1Sj5L+/ye7vj0Jz4Wpz36r+OIY48jnS4UmAm4N8HzUOpadfON8e1vfJ11p3wVS3Dm2fsCc9Zz1GdN+mY69QBuKf0D/TEXo3wTGwx6X9ifZJyMV5t5N9ecTMmjUKCdaufW7VNuH/nsqddg/YZhAP2AAw6IGYD7a9ja5uILfx5LFy3G7FFIno2MHU0HzWgwff39gGV/vOe9745XvPxVSMDyFP8qnp3sLAJ9mbIVJhwx9tPcb47OahI4xDXPVcmIg5HO8FqA97PdDKIUWIhh6MNdn5Pg5YvGMuU492oSi5jRmufUhQRm+mIcZfEFWbW/fxC87ELSQ25yKbpl38trsUzqPAguzYCXBTWNo6ONY8PCjyu3z8Pw7eLoQVQp28hjwYjeH5V1V8Xur78tZlz38+hxYosypsDQ+iyYo8xKlZo01QVHAFAtgCBl8LGCCmjfvPT4aF98/xi95TfBTHB+mSgZb15+PKssx+03dl5/acw/fmc0dCCKYz9SJfCt6gdC89tSOSCJn9gZvTf9On3O8HxI0MnnYvspzuSquP0cu1bcLxrx7Rrj4VXTYKcI7MAuHp7pfTjUkgOxp2d2vP8DH4ynP/UpbHGzM2YxrW+nyXJJU4jFcrJ4mNLoABZomnngr3vda+FTJV7wohdnvONcySV9j2xqrRNPdWyvHRTk3cWi7de+9jU47u6IhagkQy4zgjZBM58ljZROB+CGDRsBqYXsh35GPOX0p8SRRx2dg46UdwiLlkQccdRR8Yx/fhZLoK7JWblzP/95yqhi/O9KGm1TSZeZPVfS2cZA/OQnPhGnPuJRSAE84FpISRB6UwUi3Y2U+/rXvha7UQtbCPNRFiSbbF+mL8BWHgiAGzZujaOPPTqe9exnx+nYeeYvWJTPoiy7PC5kQB91zLHxtH96OrOWv40Pf+iD8YXPfS5mIJm1tzP7Dc/yGfIcBbQydKDur1y1Jr3T33bc/W0MA5LnTRr7nW27/tprYhfSajtpy5BgaJ8AyASHdP6EP697wxvi4Q87FfCi15DXmtykcJi+pdsGJU7V34dENoCUplnBkAOaPAbz+pMv3Uy6vA+pVifdxQtVOwE/2wMw+UIR/If4WtUuXjxnsV3SK175GkBWntqGoq35t3Zuw6wFyiWnCEUya06aM9447ieIFbFcqscIQPuylVl5r2WwCVlVrZ7idUwqM5U0mHL6eeYsMKd2Ou0gI8pLywFZslL/+OOmZZvGo17wPuMmHgwjgmUGRNpYEktMG9ahxlEmR3F6m7zxytj+w89Fy6orYgl53EFVaUsJzrITGDkVzJRydNYbXHwCVvEjebCWpSjJG5w0TbNRHY85NXbe9puYDyEuX5COBFruOzVraKSOXXyVZf6u9dHaOQ+pDKpkBj/eHZz7dhEO0c23rI1dW1am82ktSVHI9L/U5Wxm90EPZiuN+UhhSG4Up3qgr0sxYO2sBfjYKexYLgXRcfOsd7wjnv+c57HHl86UxeaCGnFzw7VkcAGA6X9DW+38zh65T/2rGcjaqF76slfkAC8ePnVJH/V4tCMbzJeDDwB8z7vfE1dffmUu3xG4svOTeBI1QLuK1wLZ2nUb4+/+7onxhjf/KzuwPoBSbMNwgoZlFh3c8rPGqYF+NIvBP/7xT8SDkXbeCMju3tPHWk6MsYqctbTmNxinL9avfnVZXH/ddXHM8SfU0sE/+lAOZOjp69vLpMUbWfe5leUui9OvS2muHKgClsuT+voGcfrsi5e89CXxf1/+8jjgwIMpD3WFerKd8KMs0+cgX4oyKny895j4+Cc+GUcdfkScfdZZDOxRVEvsMbzgpodMT92dgNt//9dP4kVn3I7heVmCZgOAk8+BDJdffnnauFxpYJ7y54uoimRom7rY9fQzn/lMPOzUR06v4g7n5nNxeRrN4cW6detSNS9WNuxrT5nJNmlmuJWPFF9//fXp8uI9yymeGeMDF5N+zBE7duxCBX9bvAoftnHsq8kngNWXvenJ4EnRlygj+5SFlSdTrKlFlPG1fGQ29VTy8vZUtrxb/Ml7tRtFulrq6TRw7pjPAos/mfn3S14kdtwLTtJR0mSxBsW/4iYdkdM0kgNAQwz6ypU/jkG+iCvimrlljH29dq8Gt27GDwTnts3XR+sA06c4rVmO7iMG69Dx06Dtymv6WewlbsYDnsDeOMtTCmNhTIIC2ghqDh8gOPKhseMX+Cjt3ZmuEemOAs0a15OHlIEUzszH+th72+XRtZC18oijLj7AZxywoa3+kJyYd4ndt14TI7su5w2MmugkQNloi6NcaXI8uki17aiHFrOM3Evpi7SaBAowMP2+jkOSHJjaJf7xH/8Jh8Md8fpXv5oOrdGbzs9gU98nNz8AtZa3HGxKIl1dqBd79saZb34reZrjBS98EQPROsxCHjpw2VGJyTJc5nLxBb/IbXb0XxLelK6cwTMo9bq7wDDAqD3ujDNeEme/8x0YpV3g7eJ2xfZCdPfcUNJmXSU42C7jn/Xs5wAoLfHi578gp/XbYKTqk8G0JXC0ADo78eD/wQ9+EMeeIEjuC5YjjZ/61CdxGP0hu20gKaISJd21NpZp+vrZ1JE2vP2cc+Jl//cVSKJILqhY8kSgK/kxnfYSAKVFuk3zsle+OndseO973h3zm+cXDx46yraa1nZoN7sJ1fAS/L/+4SkHcN8lRBr34T/3twG0qX7CqwK4i3an4zLl7UYdf/QTnpTA5cvIyY+cbYXetA/TaUvp0jI1EVSQtlZj7xoEeGbWQLFs1z6uFWfG66tmkOYynfZeAV6/u7e//ex4xWtfnz0tJwR8u9dCmX7qWMZPJShPyqOdj1A7JOOLmDtGT4vb/7TManxxXpY57coHul/4/eC1X6Lfd2lRDjMHqzap+fTPXZeeFxsvPi+XAXjfrt6CeUo1izGUnzRnFYsfDIkBEmiXynuJgAyKYtwm5giIvFCjsmBF9Dz4NLaURhVFh1QGnETUs2xnK1pWsA3tAQ+LvqvPS4c4vfV5ZinJKYH5mXS0mGjFqj+wEvB60FNjsgXkdLBTViF5CaIouMN8N2/19bqzRCPgpEmI/pbPw6NBHvZT/vgCpK5lJ2BYVDS2kzMwQcxigoJEEJjnnJYdwfx2KL21zzjjZbFx/Yb4wPvel+J9ep3nfVPtC6YvB5AuAe6i2st6uFdhu9Ij/x+efHpKdNah1GKgSgY0QrtGWWwbn8W3SqPwUvyWdJxkvE2FXOhNHTt29DJN/kKmyz8KjXzJCBVDsMi6BS2ZacimyX2i+AkE1lWCgwP2qf/49PjNb66OD3/g/Xw4F5frWijb4WWq09R75VVXTQ1W75cDzl04PvfZz6VHeiGNjRYSAu0s+elyoz4caz/8wQ/Gs5/3Au4rbbkwmc5WdnYfHOcOXsufijcO2gWONGSDgK9Cqv0FKwK0Sc7Tqx5elXXZPmmTlmG2S3ax9/958lNTDSzsN7wABvtjI5v4lUZ121nmly+y3XWDJ5/EV7EoqwA5eSw/6I1I6kTnGlEuyKtU7KCoxMaNGzOP/M4M09tiRbVQAnNZr9Geu9jbPvoGVNXXvPHN+XylUwdfn6nFZajxqfa0a5H3zkPRC/enzQaUcT5vfiWvuFXwjvvp1sBxyPvEz6CfLgL0lwNQKwCNA+lDC3FjmAFYdXHPmT+7sl4SAh7JCjWR55PMgo86pDLjGs4gbiXNnIc+NyYXHsaDZxuRFM0wfmM9a+I8P0XePj93j3AHimHKcZN/g3vlK4WNUYm0dVFWbPg1xq8tEAAg2DGodRKUtH2qpCxwi+qtV0W3khqXtrX8ZaH84UWYXwCeceRjYrKTfbdQNd3L3qlep4+VbOwsDpSijH3Xxpedy/LOfvvb4zVveF2s3bglpUrGXQJBWZed1zwlMJh3YKAvPcA7mYJ/+Utfxq6q5+fOA6UkVdbr0XyXsNznm9/8JrN882COKjeV1EI5Re8miE97xtPjHe96Dwu82eUVcawx38YwE3CWgdJRtEveFBKJR4Px/Cl+XDswX4wrxqKly2IPdpqS/kzMn5I2wXHVqlWpEtm2LIf7nn/pS1+K36JSutRIqbMMliUQWMc27Hhv+tc3xbOe+7yc1YOAtAFavm3zuI/ufedlnDSXwKuEMxOb5BnY+foBJ1Xzkp6ybo/Wr6R8FaC7Cx85ZzepibSTzLrujI2o3XAieTFVT14W/HNSQWD0XnZVafS+rITPvpyly/tJP+U7AbR+/Xqjs/4iadYy9Sz+v/bOBMzPqjr4dzIzySSTfSUb2RMStqIlRCAsAgpUoEoVBeHD2uJetHVnUSqlQCsqPtVHq34upbjW+qloS9VaF6yfAi4fSyT7SjYMWSczmfl+v3PfO/PPMEmwEhie539n3v/7vnc999x7z3vuueeeW+KbxoufyINcA59uezr2uGPTm97yFvDndiOLEXb7HM/cSx7enw2ub+LVG3IFUdTHikaluefKQiDIoR0CEcQDfxERxAdC5Z4mNzAr1/Law6WxPvWHJHzFfr3ERRmXsi8szoTaA3tQ04T556fWk/6ELUEYN+zaxZIqplgoWQumDZ7iwbnnnqo96ujnpuaxg9IuypabC2E9+fuswTRhGsa9nT1ZXcuWQgT9CimeJh+oZTS4dV63CqNr94XqhkQqN7ABNmy+EBGg+cr//FM5YVzLGRBVVnNcUfWwDklDWaExXXdnIoPoVPg5OB18fvmuv/696c1vuZpz9jaFn3LDEk+kiHO/7ALgIPZL6XTO6YNqDMqENjy6gQVPBc2VjIdUDjLj//MddyCcV0FSJOMfTYkci/IlHo8xVZw1b07s4RuMxY4sgM5CVsvOVyHGGQ68K2cvqOpYfKp6Tp0yNV2KNVdXtUp9vAtHGSQav1sPR7EGDtQwiZK42QxR+vKXvxJ1iCkVYSUP48j9qFJw6qmnhtqHuBROXYkXLxUsxc/7Ey7TFJjI54QTnpMWsCFa1Y8CZ++7uF65alWsFpJhtBu3sNm2Y/cO6kC76WFvqO7mYXuMZMVyypSJhIFT28teCOWKDdZ8lnnKOK9QLXfWgTXclayIOvWUO9PVwlT7TEAOI07BifhxKvmLX/ySfaD/AHwMTss3o8plFYmK4AXMJaT/3hnefTiAzygiLPp8fA/i6wBuws9U1hGagOyIi3ZqIUwuNNqMm5yPCFL+ZEH0y0ykDCPAy+juYWyCG1PgLhHbCF1qnrEgjbroqtQ1dgZxnJrlDqpcqKDdY9LdzuKO9JYZ56BtTZ6kV7veL1kR/svNCdcAZG07V9/HAIYC8dXR2qqFSzzdiO2p3Z0QTbX9QxbHnX9Yen505OH+8OYpp3PA5DyrSd0NtPP5S6eNjpi/oPrZseIilvfIMfwyUXIg/j1a41ezTUc5mIdn6Bcd0kpEW9Ae3kknIZPoGG/SxPHp/nvvT3/71zdUAwHMEM/LTv7o+vXph0yDWiFKLnG7Kd16m6ccg4TAqdHrXv8GjNcdFbpTTjWtia6ClodcNgAE7qM+VR2irPA3mfnbOpbfmM45++w0hlUzZTglTYnvgGpGhrB9++NpI8RXV8J+yZRMrXatexqvNkzc7N3LJwscvO0d70hjxo6POA7IUkbAWcFU/A52F26X9SXoCvtPPXVxyNii/tbHcO467xJU5XVZ+RXPqHZDmLjZsmVz7GDwI+BCFyn5wNEfwIemb1xFHI3+l4kylgNluRdRhMXkck1v2Wy2RifttxDrmOKRSHi8dOVZuHx2nPHgLwtI2U9OK2+a74p9lt/+1jdjxddpdshJqzxLHgFE5NC/f6KuTwCxIMEAMBnnxlXPgVmeM3r0xOX+1U2QHLTKwjROZgHiEgYldUkz5FzwN4PIg7ROIYMjgIBhUDR1TVucxl52U+qcdyYJ0ItBgt/cxYZQtiBg3KDSA3Ep2sVYvnzsjRp6AnukLI/8JV7CoDqZpmYtzumk09Ydy76YujAr3Yi8rLGLo8fg4FRabXp8TXr84btSM9NcXdE3M7HEVaeBNWhbGnj0xRxMMCkNxcZVC/u8ujAnw0QL1CAIJy/LdpjbEYsrjxIV5S9yXcpmlNEoA7v5llvTW9ED28xKUBtTNzmn8mUeAEfnxgytc9g91Z2yo7mNYzy6T3fe8U/pJz/4fshf9uEnq2lH/t5/3I0i5npUDCCx4MRV1tB/Iz+PyFIeNnX6zPTHL35pxNfmueXK/dhuliGs+dNlnXK9uusUDZgbMlaDYtA4HbdDNGATfXQay9K9QnHzjTpFHNqHu/krBC+6WmVbz0/v+THcxk7M8dB2HF/ndDzgIlvjbEKXa/FZZ6XTzjo7CJdTMQe2cYQxw5zhFdaC+9rniFeF5Xr5MckyrekzZkQeMa0mT/2FtzjldSAfuHuImqHLVrAwhaA2uGC+zKG7RFxFEx7mvJf4wznxZ0hr3pvoh0TCBsTEBXb6eca5FTW9JfIR2rAJmeQmogmHswbCgMm4tXCpHd/JYoX6gCEfZkBQAgyBiwDoDA4bwgd9X3rz1W9KD7CxXS7f3RxdoU7h4oGkNreNJfd3Zx99ogMpdr9wINA5d+DR2D7ol0MjngyM4ijtXQ2GaxrC3ctno+9gWrmHjtjG4N/LIHJaqXoFYz3UKvbgv56ID1HokBMvSfNeeSN7n87GdO9gyhaZQQpoz0AtZROZ507sDkUBNHTT5Hlp0MRjwyqzumcxXaQIgrLjLuF7fN2vU/vm1cjMHGQQD4ij8qrOTWvSzo33Q1BIY+UhpFZOERFjPbhGFrZS08iBadSMuXi6ZE8AcAR8AJoHsABbJD+lbN+sCK5wUNEBKVdOwmdXrN53443pxptu5ODPLbFiFmFk4jJFVJ1nO2zIwsjLQeV0wC/znXfemfbRecOuv52QeNq2UuAbnZSOHGVHiwUosfp0xumnsw1lPDnnNIIcsJG+wFiqEWE5afxSTJQTdwDsHkwMUpGnXpR6R2TUnVeJ4904PXnwIWK6pW3+H//4niDsctVl356yOtPILUhczzj9DEzD8NEwA6EvZfjmc/jyU3OvfS7hxi0wRTjvEzhpWq1+OVMBNLzEMb4wSSALUYuq4O8U2YGh4cHoN0GAcr2EUWsSk9Ax02JIKbfka5vaWQP26FMCbtldIRPcwEJALKBQQLR/TfniwympunkSRqe8offAh5LI9B7TMO7oLyNZ8Fm6bDm7Nq4FHvTGgDXEDYExMWAVChz5nn3732/fxOtAcDqodSDCxhffyq+2w61sR1C/i2sPF4f6pjauXVwsroSRfU1kyCu1El+hvRwYizPpUQjCSvJrwx7W5D/9YBp36ftSmvo8VhLZdmBiywLzefCLzNwQtCuyMTgKKQt6SGkc58WxQVrGo1kvCSTl6Jy2yvmFtj4rAe2/+RnTzV1wY3BKsCQDAGb36oc4CZg2pzwJsVNh254Pb9ylU04Zh81+IVuTptM5+VIBVzS8nQyMODWDzOTGj5LFUuUEGOevHVRnx9VJpHx2sPwlljPfhzb5VpbU21Ami43exO+spiC5Q2fCYqc1zRCmhd/97ndjOd0VNPPahT7R0qVLI/+i4R0vQKjLJTekM844I4ibHGCPP0/CWMEXAfzkNOUte5RoVD33CdJYvpeci/DlONmvDFpzYSwF7BI5c5dzWr9+HXvyHmERwrat8oISeMqT7+6tHMseyYUnLQw8ClPGpjn+7s48C0ylPAkuPS2Ik3664Op4lmB5taJ2ouA+h2fYdrCiK1GLfBS82hOovPjXzw/UNLbuDG3FuKOVr/LN5cdr94/x9afiYYr78e27AldlOprL7Y4eFlnPghP9q3e+M+1megqpD/lwQCFHRz4u6nQBw2S2On3j619ny9XN9L083Q4uMVo4wx11qOrSU0r/eso9uQ+YugOi7WgQ4+iZ2zJS2GElYC0Maq9GCFIHRH8vqgaeSeH2s04IlIZ72rGYuIc5F2pKaSNxtkAM2lAi7pj7gjT9kg+k6a++nZ3or07tI2YxtYEVg0V2P1jmuijEgkBmuLhJyGhbOknA2oLBtPmLwqQsq/xhG0xY5aJM6jO0iqkehPah76MOsTk6vSLT1L4tbV+CHSIIG3Qk4juN1VlHnQL8diha44wTU9eIbGfJku2YJogiorGJHHDS+Qq84ZUzqu0U0TnNHOfgKO/vvuZadJaujtU0CYBEyjA7ZO7U+Z5TgnsM86la4PK98YyvCZr1yLy6D9AAloAn0MiiB1zamDGjwuCgaQKuKsNuGHmv9Te4QkfE9LlUMZ71Ja98Y1oKB+DeR49ns4xSTrk7ZRlf2Y4PzoPcXUHUNHKRYfkpsOP5S2+IQW8aiUDgAgDiz3s898BsGl251z7rV/wjnwpu47gDoOA80pBvIVq2k1yOtrbkeq2Lfm3I4VatXk1/AM8mqnI3b1U6Ij1xZ86ckeHmuZSb7xkin/nvwSO5bWaPZjvTUMtRjaWk8104fVcVwo/A5a+6MmnB5FHML2XCRN+h84rBmO7KNQLjqOEj0oc/9OH03e/cTTymRpST20jY/bDIFWe/7NP/fhmqv4NzQOeWiaZxYKtRrg6VFKQN4qBeVVvDSGRGSqP2pj0uHzaOYD8VlKplJGfAwTaPnorpjCNT87Q5wTEljkzramT6g5JWF9vWB8JNoYtMphAxlvbydIzHqmHBaTSYHJwHeihrcotP87znpIYpHB3+4D2c2osXBEcnd+ijex7dbL133fdZWXwwNc9if6HwYdmiY+U9scro/kV1zPxwep6IzikAHD9E69g0bMEifLBqQcexZKIJlrGqy+fSdfd/ioDqxw4XodzLYLYjKh/yC33DDX8dR1B97jOfRg8MOJWvWF7V6UvnijzAgdYP5LQiDvV1xc4rNh1HGuoTkTPuTO/0ZcSoEYFLIbYGtZDH6yF+bAtdd+2pjyc3N3NfBwHduvUxDnni+DUietW6nRzZdvTRk9ORrEzKoSnUVhAuYW3BDKfx8166nL9SRadsbq52yqgrunS1+R78WRisayaLxt0fKjhsdMd0DvaC7wK/7SZ8HtahRrtVUsl3DSa8rW8oHEc9S660s/2J/qK3BCbnpZ99IPeD3lBEufZtylMFo3ugAlOJaxydxHQwisGTp2Bfiw3o117/3nQvHzKF/EOx3OriiXhS/qUASGLaCuE1/E0s1tz1b9/GbNMM+pB7L/NCjrMBXcABDP3RdePkgMAFfmxqKgLegoupuBK5GjjStJvxv5nwsYsuTsNPuZhIWICwws4N99nJkHsgNI4NiJgykVhpx76dhhhQCTZVLh2AlN/8bR66BJlz0YCW3Y0/GkwOQoI2ENWJHawyqd3eonxk2Jg0aPbpafsDmMAxC/P0RgYKqhVjDSLL9k1sJ1ny32nozJNh8JhiLb0/7Vu3NLUCqvFsKqeZwmQGavNjYDK1TpqPIttRDE7sohNkR4ilazpGhlI8SdTy0Mh38gLWQAc/9jc7ZOkUpQOSXbefnVErCO957w3pXiyQLnnwATbwjkVGrH6O2Mh5SIAkeF4SvC1sOM7Ac7IynJjvI9zKYHkQP/plt8v50JHR/SrPJV6OFFiwpPIf3tEWVS6mcyyFlr/PUW+m5wwWV7j+67/+C1O/u9iSlTkUk0UakYETD7NmzYKAsscT7kD5i+ofWa7lISO0qVGRLzbJCVBPpz5V8siDHLs/NpXHfrdaXOeA2jYQHvnZ7DIe3HD+20wQmLrq9C8cTsAELmfPng3n1coKN5YRWOjYzCqjVio0Ymh8sZHxkdNqUUP7WuqtCZN1KLiIcnm3TwenXyFZ4tmBQcEVK1fkNiCR9A5UBOETFomN/UWiOW369MjzOX/43LBEoumh4Ri01GKD4g2axULBV04zetSotGLZsnTdu69J/8A+0xaNygN5JrT5jgc+2VF0PHvvD66mOx8AnIBYYgH+JFoVYsFBJmZ48eGBw+IafkxKqCzsm3Vu6ph5buqacV7qmn1WaufQjL2Tj0vtY6ZzkMNohORoKTMvQ48be0DMz5lvYlmIlcE21CWcLrIc3tkKtyRvRTmWFU82sA+5A3o2IzQl9L78qhhp1LGL08DRcCoGAJMVtKMEFwWDpocHfWxfhSb9Xs6A7ISQrV6SBvGxxRRSWItot87Ek2PTLhjRQ3Y3CfPTHXCPGL/JUzBHrrAEcny0UwKEBeKc8unsDHklzXBhl5jlOOVuvOj0JJHdlwObNHlKeu1rX0vN5Kwgvabh36FR7i4amIdlKG8piPLgUPW7grA54On1oYgryaX80PFi1U676DoHGtDlIsinCIXjHjHyT4a6eiZeqUvUy3f+1CJ3qvMvX/3XWHkTrowJq5AVdSW2Pi9ceCK4VeEk5xxwymWCR/Pmh5D4TEShcpISuO3I9CKcZHJn5tXXZSL9i8vwZlz31DGHu4JnuJxOG/gug9j0+kssTOPCgqcNdVFP/QRTSxWatPGosiCwUt2gRLlkN1XLrU3jMNgMg3nmsIBbDFkHPC0jv3IALG20etVqCGSWb/akNV5ud++DW7CLDzHyWfM5l1zy8nThhReGDNEBGi0TXwLGK0PFeDH9RWH2C5//fPrYRz4SfaLIPgOyCkCxUzBY7hnyZ/bX0XdwJ4JdogVq+lSuBal891KHSlwPZ5bXyIDDpmsofoqETqTmGigT4Z7pqKUJB7FflIEkdmuQKhXNvLtbvoHlbpEqouUSonNZJH65YMvM4fp1YhtI26rD6EB+Tdoa4OjQvxo8bVFCHp8GA85eknq5STvqwPMQPqhdG+5FALcBKsa1AnPP0ElEZVEXlWfZLRSqEYgYIqAJy5YNsxch5B8cKgtmFnCZKZdL3iGgFhaIRSerYploNbBZ9mEsNawmI8L4AppOnIjOcvEY/grcnU5IdIxz2uLT06wZM5EdcXISnEkjimxenmnnOQCNKqRxeskgVk1HIcgu+WzlFB+JRgiQ/eoS4D5Oagac4npQ5OlUU6ds0fKsg5yU7/Gsf8TIP/s/+2Y8PkRckR5O2vp982v/J61avgLzLM7f4RC4LF0cWDcPihiD3OicF/KRC1zknD3RRh20MKVjf4Ddz2ZXcjkS3U3I8h558MGcm/jmkrhnQpKJTHk2kvkXZ5+KV+6atNlHA3vajyRS6xvC7klCAMCCXYa45GE+rms0AsOYIyaaMR+FPIQe27QZLgnbXabhv0uhKV97693EpmztpY1HUD4eO3SWEVeFkZy/iYCDME+Dz23QlXazo0Jrt8o1nQqAZfLlIq4kyXp6uvrwMWPTCPTHoq4ED2Uf7K1sPZs+e056FALYhS03RSzqSbLURHqyCTi6MN+j/OuD6Xvf/U6IGfIiS4aFaJQZ0QXTZP3GZcwfDByhRdFJLsQr8B2Nk3EYGvaMH7fINDYx/FnSg47A6bPRmAY0iQyPuidaY2yA64qLQdSIBH0gu6bjneewjSQHQSJlJlppsPhMxDLaCvHCG0IyMIhgE3O8fSTqVP9i2OjUevTJGFrLBIg2tp3ja2NmTgs9hbtz61I2OaPV/ti6lCBkjCeInwOccPsdd1cd6TKJcwnSkFnPR+X/qKhPWbaPQWeHI65576OjeriGBEgLAsuXL0s3vu+GOH/vjs99jnrY2fI0zbTxlfVOuYb5oPwkdyrecROwOT4GA34WIdFXdsEwi+kuv7lcuBgJ2zRsb9k+TtmWr1xOCvOGUyCxaem5+EmMuEMUPHj1W9/6FvpeVFDYiGfZDubCNUYdzSkquf89D3mJHpuWyVVbURKX3zzwAPsNb0dupcjAcnM/yFnQTjwozF+48CT0zGYQh3DazzLGogfVgumbDuqwV6Ir3MBlHAeuhM8N5Hcjp7Em4jvLy2x/h9n+rhbuqEvkBeTEJXV80DweTOJru2k8cCPyK0oFb5KHXOc4CJZwy2gZ2opFiSmE0BYVztauXMVxYliL490iYqxYL+S3YDRkkuOwQDKqIjClvYkazn5tRwocUeeiQ7b1t1vSo5s2YAOPRQQ+8EHcyDf6CA0mPnazWDBqzJg0Er06/ZVXiZMZM2eG2R3lvbuZ3jqwipZ+GIHEXzy4Wv1bTiW6+i/+Ii1f9kiWkxomMAGTcFmryi+envkf2+jgztajJfyQRGTrwOUU0q7iXeE2Y4oKEoMBEvXkLjsf/pEEBNDSuQP1eq5BUMz7TRd+DlTztZv6RHmWxbPhEZc3G5TfnD8ErOnIo1LX+JkcW058QAri6XPkBbyKMlxk2LI6da1fmpg5ZoJLXOUCKqO6shi6ahAwjzIfwOnbaciYkL2glhp/QUgsG1hcBWqGAKs1vmbNak7kuSmdc87ZLEffktauWZu+edddCOA30wGZahBfl+H2AbQVv+oe4TyHZU0Gq5jIpw5RlkjAmcZplvo7am0fNR+ZHEGu8C1bupxOTEWqNogEVTrhNczVMo8m89gwiaYdnqwYcMYmb+rGP48VvL3uwiQmgsCQ1vtuDOxdd/31aclvlqThGOQz3Hzk0G0An9sZbBK5V175v8C3+MiD0XB1zkaNGh1EQoKmXy6WZ8AwvceH3X33d9KaFcuZlmaVCiF2IOuMU7heHuM9AnJo/iUg4KfsZtJ5We/NWBZ11dDFAw9niZpX+UkUdqLLpSVZ1TX8MEgE1EdbuXJlzpd0ErhYaGA82HedIguPBig9Ci337YzTApd9mQyrOnrjD7+N7DvVaGAhSMYHE9F3PHNTOPciT3P1dSx7M02jEweKHi677LL0qiuvDIsZURnCA6/E6SH2nXHYx//jo3Pd9ddV+0SJQNwgqlV+3GyOfuPEw6GdEBeoM34jjbjOFG3/LESc/rRbdJBolIgsUnNe3iLP3u8lq8o/XnmO+JHGxikDi2cQ7NTCjkhT0iAUPGV+Gn7cC9J2PzkklJuyoozLPIh4ceWxYfPy1LWCgcv00rWBAJu4ysc82EOhP+fcQgxnpkHzT0MeJhl0sNq18sDFIwaNG5lXLH8kvf/vbk6XvOTi9J7r35Mew+DeKEzLHMG5jff97GfpC/98J8SGKVHVKSQ++yg0LvIpBMw8XRGyk93zwx/EKqK2sbLGPTUVBTjx7DRgJ3sdZ8ydnY5EnmJ9tzPFfJQtN7ElhDzUupcbi3apcOdWFU06qzj5N9gXUwlyIELfTuLFVFNkAB/Re94ps4SZVxkowurqn6d2u1n8G1//GioQY+E20PiG63Ca4p9O7mY98rDzL7wAQ4RnZbjsKAT7MdBu+7x5c2MqJDGSO7Jta90oZDtLljycbrrpJlRy3PgtYecrE8vLlARBypro3q1G6S8FZu5wLWr3D+SElfVr1qRf/vJXUb4H7Yo7ZUxqxkcGFF7qG7JIrMXKEQeRgnjtwi6bumkSsgEYxQrURY2jUjkenraPsBS8lbyjbgIqTvnrqBE5aE3CLVw6JtEBYx5XuV78gsOuIF4qxxaCJLz2H4neNddck57znOciP9sa/c+PnR8q43g5RXdGMAlrsl/90pfTP/7jx6NPB94q3HXDTPz+4hzTv7ML+Kt29UsdyAzc89NHjlY3X+W3527H9M+G6777mt8CNmP3OMlG9snTN0NoKH8pXqXTrqET2Dj9vLSTOd8u+rTTTzlHI9kfjRunc/92Wdq7BiusfLBj2wxxzEPZl9GV1O/ioWXuWSimzgpT06H1Tcd3sOSO2BkD/9P/+DHMGr8EQ3zvYiDcHx1hJJyHOfm19brl5r9Nv7j/XsrDRj2bbe1oykLILKONjiIh0OSvpwutXLo00rQxldE6qXi37oWAWBde0i7yOu+Pzk8jwvomxAthtrpScjcO0CJLZEzj8gCOKQjlybF9+9/+Pd3MUWuqCNjZVbtwOpEHgoNDjixzRz7XXnIVwroVtYy3YabnU5/6VMhQHBQOTjlDnVwZqA0l08HIwa666io4qKysaRzjy4ENQq1iMRuulfnkVUwgjqwyATIvYZGAfY6p+Ec/+tE8SCG8ciAxLQefxvEChGgnhdMSngw7DUumzQNbaav70pve9Ka0ZtUa+nFXrNBuhbh61qEuBjh321pi4OEYE1FdGT/OPZVOCcE/Kh9yXrXcUaSjjIxn5HzgVcIs/nWBn/wY71Ul42Y5XpapTFIZKq+5ThLzqk7GibYhh24VDLAceeMn8VcW6ELB9XBUNEbsx7T/6ApBMh/x42Eg7oO9hY/Cf/7ndyO9+UcfFZE5Ub73g1/H8aGdvb6C3XtVdyovAmqSS8UOu/PrZDl0pgCKZwCyQbWPbyt3sW2ocS6HhE5YmLYLYwW+s1qTeoMWIOv6NSr+P4pnZXc6p8BRR19It4c+PGze6amjmaUBpoadmnKoAAAodUlEQVQDkNHRFYkiyz6AI+a/lS6CcHg01go62pGsQnlYg4PfDmEHkbvRiN0mhLqvYdA+/NBDqZVlaTtFgMRA9dmpgwPAE3uWPPD/0p8yrXro4YcYLFhrZeUwTnOxuoCmjGkAldjBNG0k8o4zmaLGVwR/l+zV8YoBQFw7axzgWbWVnduBZ8f0eSIny3zsYx/lWLJXs48ODixkVSJNAuDRYnsZ+O1RH9FinUwncXSJ/t+ZEv/JRRelT33iE9gMOyIIbXA+ckTAo56R/FNwXZu3pje84fXptNPPIL/KFn00Ie0GHnTPf/7zA1+qWViO3Ejcq84mUXLVUUHzDe+5Ll2PWaGdrvSh3OeHKlLEx0X5H7LXipCZt/j1kiB84Y7PpIvhkn8F13XyyejvUbwH7257fCdmt/P0rpTrXZy1A6Nyq5hWEj/Dty9tR24oLswj/KJOmSh7gpGnXE+dOpWwXBdh4SVuPT+8m54/ndzyr+kHEnVFEnS76C/+ljaQOLXw8dC2m+XKveoCBvBVCNj55/9RevWrX502gn/bwfDiIp31o7zh6P5pKvwv3vj6tHLFsqhT4fwss/sicTx7rzLyXp4rr8N6q4bsIcqAYjsbozuLWYDOV6TiXcKRn+3w5aXye4pv5i7aLUbZjzIFB61EZ5BbhZCyw0VjBHxyGj5nIeZ0CJZQAb/6WsSQ0UkaRXycE7Eb3QZGuCuSEjfzgSbReenIxN89bH5qnvkH0c9aGvZQlMTRL2PumI9uWMdp0PdzhNjosIEuYO1M40ITGozZoZ1m2jG0AvGLn9+bXvmKS9O/wp7HcevUxq+yA8qlrPVrVqV/+OAH0oUXXIBJ4Z9CCMfDiWV786GTVHU6J8oOoK0oGl5+xeVhZ97zBMWH+l2aerbjRieVKIRwkjrm0RGdrHxxjTcaAvilL30pXUC5n/zEx9M2ODeLcjo8CJ0zraMKo3GFV9nP3Xffna688sp02aWvSPf99Kco0x7BPBuuh2kqSSnDHgPnBgF00/cGOJrFixdx0O1fAidTFxoiT/EyXMKjXO8o7OKf+8IXsMqmeRk+FLan7cODl85Bq1qCNtlvu+229FK43ru+9tW0A3mf+TTBOQmvBNa7xK6oWXwe1YCXcPjH6157VXoE2eBkOBN1tqzwVix72J8tN5Bk0RXOLdrFHrm+PHAzPB760Y4+Vt4nmDlUYQxIgVtC6RRduVT0V8OqehgvnJGto3+EWaZc+GoWAuTelG+FsB1/PikBqx8k8TCW/YrTp08308jD/GrzFx/m9653vTOdcvJJaQsftozXgDDiGsdLe/bjx41Bt5Bp+d/cGB9e8Vf6nvnEVcHoBxewo67evZ4ux4h5Eo6OViuwB34qkAF1TGiBIZyj34DD6PJ32GIkWBmR0eQgUZkQpAMCw5e1cXAaf/yZadvP7+D4d9QGgEnuyvaVuEnzOhDaeziHgdGM1MVwq6D4ZAfvI+eeSm+dEo3XxKqrFsVY/GaVk6EJXl70ogvSH5748bTsN79JQwcrrI3uF1ZMLaSTDmhH8esvBzZlymS4qgfTazCgd8IJJ6Tjjz8+piEai1tKHvez2//hJUuYBgyJ469i+saAbnAPmvBRR2VjTVgo9diqeUfNS6/D8F90PML8si8hfSeUWtMturB0QSUdlFZOWmb8mPLRMeUM7KAT2Haz5OGH0zswT/3Rj3w0dLAWYpNeWc1gBre6Sgqzf/WrX3LK9n/HlMaDRI5gujoYuV4H3JnOL7sDTNRaZDPL/Bs2bAzO40Mfuh0uYUIQ+JhSEcu27O79NE4LCwl/hoLltzG06EZtiY74M54cnSfyeBKOmu5Ol+QUf4hs8GfYj19w9AIG6MnpuOOP4wQednLA4apmsmLFcjaq3xtGBJVPqYIwUblcx1a4PHdxkD94XboU2VVUwik9YNkh+FDJFUooXJk78shpFcyZyDz80INYk3g8jcRqQ7QDafy4xMCmD6g2pE37cXyIYnGC/HOdydu66ypkqUoUIgn8XeH0ODLrL5dc4nnWgW3ZBZspXoaz1Se4ffPyEunxKL4yjM4Cxk2cnN6Lnf4LL7gwT98xaBnTQuuIo/tk+MhjIh+iT37yf7MItIBDOt5K3TWXTQfEmaf1DNxYHs7fnEt+Ds/D/PPkiFcFRHR+kca7wMqlSLhiqhVx8C1CpSrNU3/rQRaLwkGEcksBRxoELGg4U2gDGvwNk05MQyedlPY+/O00FE6LPk9jZ4jsoMq66FfBcQ1BDKLbDXduPR3g2zE6eOQfnMXoG4G2iGJn/MnDsxkGUppa4aPHTEgXvPjidC1ayoOHjoQwQghYWmtA09X4POVBQGPr49d0/IQxIV/68U9+kH744+8Da65TFwO3mQ41GkKgJQiJigOgk10EkCXqxvSDuBKaPXt3cQhIOwdOXJ1mzkAeh4KvxMrOvOI3j7DCSnwuSF20kbBoMy0Il3BRb08PEiFhVJvBoexpAvsdJbJLsdPuyT2f/dSnQvAfxM7BxACWk8irla1pxuRJEEpkSfgr1+qoOkMMX7K3Hps5Rn7EqHHp9g9/BIJ9YgyYRjg6p7MMLaARuuwaIEoOtFMWn8lq5J+n299/G/svUQg1joSLMhrAg3hRp0p4zEHCK9z3YeH0/8IFauPfSzgdoNo/c9oXp5EzNRozfAJtD4HimjVtClwc5mHYkLvkkSVZMVkiEksN5A6urP8e2m4AhHLKZD5mwiP8wLF0+RLyAblEDRUHwlyoiNVo+uNeNtjL2al972yh0S/nAR0YAYf2iQ0b1mK8QP2+wkErsMhlRnLq7wdoDFzzROofxFIg4l/c5mmjMJqHXNXpZ5+D/fq3p/ffcnNwrvJxseoNbjUTheYg8fg4YoJl9Ijh6YPoip3wnOPTGWeck3EtIbe5ou3sTxnW/Jk8YKUOS0B8ZA6cc02nEt7y6kfAttNPRFUEQcXJXLMD5/j7hkgMgiCIPK6Y4wuDzwJjqGFiGJ2hMccg90ICT98L09BWuBgalJuMhsDPZ+vnu3ITdCjTMI4lb5o2E9UJuoFZ07QqeqKplr88UAK1rV/2skviaPbNaH43MWAq9NBRMzwBJ48w5jGQ1IB2iV8B7gRWeJRXjINVn3DE+DQGNQGVdmPqBTGzrnbYoqtlh2xn8K55FAH5X/0lB9n+OXkygIHLAaZwfx1KnD6Xji7sTlc6y1fGd58LnrwziJ3aSgycagmTgt5xEFK5Da08DIUb1Ib+ePTOxqGZnU+Dbos6yZ10cOkkmxJR81HGos7bJz/5iXTuuedG/sIWbWTcSJLbSz/T2XZyK2+FAzxx0UIG8aNBsM0ZqBlu+S6XaQYOQAme5ZWN3iORhw0ePCjaR9jHodogdzIGXSgF08bP3ExDbPVRW377zh0hLxys3X1gkNOQIMSfMAGbFifkRKPfRRxN1qyKegSHVMEffdG0puPDN4V9h81wUDoJWAkPj/IjLohvPQ1/hI+Qai8hS9PXulbhocbBs+01iQWEEfSbmNoFhsiGP+Nbvpc4xyPw+3aI16JTTo0tZHLJNluEy2pW5Ygft5ZtQgTxdiydbOLgYQ1A+vE1rnkWV8rI46fHv4QfrvshiFfujBk4EMKrMAued3DhAkZwLgJYBsThAjbKiGahYQIQGiYwJjy5kXwXahmpvSwdD5p5LKdtK4iF04JAuTVC4iWdFf4Q4ud2JU/CrRdxdqM+MXTawpTGT8yrj7SwMgeJl1NGi5cDspFnzJgRqznafw/2GoIWU1Ty3QeRCJiCONKJXE43HG4gr36RES6IC5m6l81ThiWmA4FfMZ7HwjVAyJoU2sKZrFm/Kf3ZlVekd11zffdgz9uPsizIE6wtQxdffzBCd+OFzmsl7cjUB8jwo2z+yqpg6ZTWy4Hhu19tB6b1LQNC2CU0mRDxtY58LBHCRP7KxVasXp+mIKT+OuZXzjvvvJjmxSAxWuVyeQUHecAZJJd0BFrsH/zQh9IkiMV61E4GcnSXzhZWLSYb8DNtVVfqJ16F23KEV7i9Il20G1wRcFsPnYRh8uTJNkB6nI+P1jmUpUkiAyriGdf8XLlV3iXhtk31My/TZEQCFYnkDiNxVQZR2IB+DJwx4gxFMMAf9a7ChSOcBeKnsrPhS5ctg5vcHUTZcP2EqpgHinfijuFD04hMMVRtzJN8SjuZzpoal39w0xE2v26+5ZY0jo/QDlZKxSfZEJH6CLoJyMe4k5jq3vdzzs7Eau0elHALHiIK0cS8H8koz7HXu06EHy6XW/2AuYvNjAhhst93w8a7yNjPRa3383nKX0BT/AmIiPIv/ss792hU7nThOO9x2FEvDe5L9QhtfQURtpGsj5cNx92OJ/tL/08dyG+bZ2L+ppm5I+ERBVmaG7mNQ9Qou3SSV15+eewlW409qkak/R4Oq75ONGYFU5RFQju8LuAnzPfoXHByEuVGOpFxVcuI1TOqqIa1Z+6tQXb02tddlW79wAeSKgd2n7AakJ9CTUIZj1xI5AmkBR+WY+eTyPoFlShZi7iAQ+KskwAYt9yFsxvGqtFz2hy3I+qDoicclkLrbZS/jgF93vnncZDG51nJOzkIVyF+gZMoKePA8oufsOrMXwJ64sJF6TOf/Wyaipxpxeo11BV5V0WY5cACtipNSVubV209fK511k+zzHkVkAUcFj9c7JAIOKCFK/LkPXBBfDk70xQBtpyRumGWGam460znB8l01mXWrJnklold+aBExF4/psvjDDte4FAO1DYrdctKo9Yj5yXndART9/gKkza3JTcehSlwUcHks/tmhem5f7gwvQWOautjLHBItIjfQcEFQ9qro9BoAxeavvj5L6R/+uznuglpAVuOXYAz3NQ9YCihh/d+EOIlIrxEAtEquMQDix/4GUAMYecxCEI85DSme0acxQOcRGCfQA3FRPTRp2MkERkSYW6+1oXGd37MdbHVuOR4drnLacpZqWneyXixLSO2eNiwCs1yQ+UOJS5UZiQWX+u/QT/mjNNOSyvWrGH0QVT4qitzskGjE1GEjWxnMX3x81ln51e4rhyxE6rVAVXtcimUfNZu3ICMqyO9jzL+7rYPhJa3g9EVx5KfHVttfk9slnjlWbzwkreEEdUKB4PHkblpeyvxYqVTOOnQOgeaMHr5XPte/CMiP74LQxAt9lY+vn0HR389mloRIN9ww/vSHXfcycG1+UBZuR+n2GUgWvdSf/Mr75YnkTOez3JRp556WpyAdMaZz08r127AUqjHsiHfpC0t33imtw5ePpf0JUxYS9k+l/I0DaPqg84j5TR2KO6Ce+oFl2VJvKyLhFXcb968iTqznYi6NYVsMvd/323WKJdn5VK2r73IbnkgZ18yWOIoIRVOnYRQ+L3kkPT3o2E/njt3rjH4y+UZPzKJB58zru2rcsWOZ/H0mte8Np33ovPSOlRrXA3uLkv88aE2HQXH7gNVPf76hvemn9zzk6h/9BfCdIFP79VfeD4NPzFqBCHPpUvxfnEC7vgRkRWc2T+PR6ENFywnfkG+uWU05rCn/RdAaapsEVW4OSRy0PyTUvvYP0jbkWPZFdTxsj6yyDJnPvu1sz7aq/d92HymjKOmQQBbmG4ihCcv7ZBLWGLVxXJIZH4mdaVt9pzZ6fbbP5wWQ8DWwoG5GuZmX0dZGSxEzc5EOAeElx3FgSZwErB8H5A2PrYFbmt9ei6ynzu/+IX0tre/KwhlTBHkuqqvnjj3279s2bJQY4hBK8GyA+IAPWJsxHTLRRe/JN1629/HF3vV2jVpE9NMB2QMDOKathAQO2a5zMc4hpe7A30bh2isfXRdEPJXXHZp+spXv5Le9e5rY8VULfuSb8lHmMqzeep8r73HS/UjHo897vg4Du3d6HQ1gNNVEOm9qGUUOM1TWHzXObgkMOZr+cVf2K2rpT26kXrz0ckKng3pYVZa5ZYdqOZXiG1Oz5HEtLEKqh7ka5sZR+5o2+PbYuO0MjE3levvZTrL1/SMxgvDD+6WoFzf3DQBbwDEe8SB2Cm7XI/s0vTKmjxxuwF/uewBPEuI/DgJ+8xZs8gj49T0T3AVbsksiolOy48ryLfccmuaOGlK2rINo5EQMGH24A7Lsi4DhReRxTiI7za2qb35jW9kCxWHjACTOIhFl9LPyL/P8p8A0FPjwfxGhMGlALDbIbL6QW4YqmAgANpZ7biiKF8WbwcAl0aR0eAeP8RxGOU/ERYxvemMfFhdLtvd/Mq42oCpZezkNHL2MWnv6p8xXQIaYHaKqJPmKufSOUXT6Bc7RtKIedjDx2qFnzaXpqVuHUR0JaiZd/HVIBfGX9SIdzXjj2WJ/vNf+mK6FZnC5z79GYTNG9Kwwaw0Me0bCLK0daWyUOn8UTA/dlL92hDmtzHoVJ3Q7wRUKS5jSnrFZa9EG34s3Jda4nB6fOUNpyaBUjkrX9dBNEOpkc6VVUeMkevpR0iOQL2mV73qz9BkX4wg/ZMcM/bltGrZcjgoOjSqBfmkGeptR+bya62KgttQJAheEqVdu/ga4KbPmJkuPfuc9LJXvDydfMoplNEc4TZ1hlE4HVzAImH2rVc/KO/ejR2cIlGDWxC3cGDjxk1IN950c7qArUWfBu5vfv0bcJpYi2Urj/s0HVDdhFWYo6T8gZCYKbPSAoM2/92xcMzR8+E+rgquyDFwH7bTHsPcsgrBTqvNIPIADqFup7PMnj07D9jAfUOopaxctY5Bjh0wDC/ar7QD51AQ77vJZsbUSWGzTPzrrJu4DbWJggfSiCv/5PrsN6p07NjTntavXUslcj8zb2FSLLGXqcSkyeNZ9GGlEfizK/fq1biUQbK4RyPwLJ6VW85fcEx6B/KsN6Bus5MFC2F29mECsyxjI/o7IoH/vvfn6a/e/Ob0wdtvjzrZZ4uz5BhXFvY0OBfOQAYdFRiagDbPqZEr0NADtCaBRHvnPk5EQYCtmoD4D9j4AZ9hb1CgNzHoR7IU28rgykJzWH9Y3ZwfEUojHe5KVYgL1pzpXpOfp4Yx7HU8J6399afZZU2DMObakOFqr145mA0k++0hIVQjtY86AaODJ4AX0WOFVckIe600LoMCPNnIMeDsGHREsaiqgtrIbpB9/63vTy+7+KVJhcj//I/voGe0IgSe0WGZCjZBxOzMNr3a9W1O55i+DWRKN5YVvvPPPT9d9OI/Tqc873kQG5fmWVFjNVB5mFxEdBTKjg5Pp7d7Cs+6teuC6wBI2krCQ/4xKGw77KVRhmcqKhCfPWdu+tubb01XvupV6Z4f/Qg7+N9Lv2STthr6O3fsTLsZxDq5cvMuXIsEbs7M2emY445NZ2Ny+ASmhnM5Ok1nvhIJN6Db5gPszRmIjK+IdYifKC/HsTnzVIeWAF/KAU9adEo66aTnpV+gFqHBQ+33q9u2EeXLPWjau2iiI3YMQPGlEN6Vwpnz5qfngdOzzjwzLTj2mHTktOmh+iFBOe3Ms9KwkZzuw+qq9eBHNAb8fsBVql28+DQ9qFeeXh911IL09re9NZRlG4hvVW2cUGTmUaH3FBYc5G5sB0ZF4MHnTFKIVLloQ3wJAt6WdPnlV8TUsQVOz74COlXAIHbGqRvc3RI2YoRKs3gTwXbq/WE0hW6/Oy+2px+Fy6+4ItLZR/0A6PxgZxh9AyZ/IV5+BFwtX89sYBQrt6WsiEvZEc8kT4ODeRBKUBINxddA7EuV6OiNWELteGxTWnnndal51bdSM3bi4+AJkgSSqFQjR1MN2PdYWp/mpImnXZEmnHMFR5FRKVpdzXI/tHzvqwFgjQoKD0/topEpjzU7kM9+LakSq3Sdm3+d1n38ojRm2TIaDUIl8aKaCvC91L7fzlbEraxKTjz52jTosuu7O2B0CgmUHUiy1V2FnqbyixktR7VsUC87gp1D9v9+zPL+gIG2bNnymBLk1Tq4OAkW0xQPdJgxfTqD8iRWpo4ONQW1snVyWnZcv9a9Xek8+nfSjq94+cvTN/71a+j9TIhVS1cnVd0V7C7Oq9zb1oEs6ovprBe+IDgopyBBaEivnpRbmNYylVy+fHmyM2uYT07LwT+WVbY5cB5qio9D9jOWqURembPOdnZlcHlw7gdnD5r28/6fvND1KCsv19sHdXKp4ngNskZhFnYF6Q5O4VPlY86cOdnyAitz7ucsuBTuKptoM9MU59DQlXJ8Cz/8xbt5dOeDX9Zb6+kekRp/0zulJHHkV9LU5l3aMYZjxJOIZXleJCKPXNsqG15CvYV8C3xB/A7A2UYe/GQBu3lnWGrroV/Jy/gRpyCnim+4fdrL/lngLXXyvTyXMg/XPT7hgBwYFz6fPZy0ybkTXEtT66g086J3wmG9UVJtjTIsgUl/GPkNu9K4RPzhk1md41gn8hCHnuyjoNEKZ9mMfpHwcNUnl8fXfoBEi++cU71GOMgBHdtS6y4O7oS12svHpUmwqc4uwPbwkEFwY80wGvtQ8RmCfEUheRCNQjCi3jQ6uOGfO/n7WbaYgpOqVrm+CFThwmxI9YK83PJTnARB52DpCyd2Kgmc4aUzRGcqGVR305YO45FXmtBxQDo9s6WUjRVQ5Uj8SqvrpAtBP/CrJ2YaNdWnTp0S16JFiyLOwX4stxbGEBuQ4AlwBo5yTn3VtXcZ0cN64bQ2TsGHA8j8lPtInLyejBO3pjWfkldJF4Lo8lJzt06W5VUGvM+2o3cdXeqgznjmU/KqjVzCSl4Zhzmu5RX//dLwUvytR05TGyM/i8/uJqhgNV2ph+n8IIhy/fvKRz/DvJxhyM3Wpi+lGv50uTCuqezGqYF/dD1rkBuiAcElmrbpyAUxCMoUUIEe3xE/5hEv2PNQICAp+cC/EeKXxv/gVboRQ8BhdRn5fBWBUZ27nRCvYRzm0bX0vtS+agvyEeQQXC0QKmlPG8TKb+0gKtPOKUfDTjwnpVlH0TDUw3rScfbr4KKoap8sZ+DFsmz5GpcbMUcshKoEm59EyTQOltIxDC/5mL4Qtlyn3HlKHuVe4nvX9pMCZPchCk6WVdk6cm1YL4W4zZwxJxRQzTPyJVR4rKfKlIATzyW8lOPdeAWW4i+Mtc7wKLDCUXdY7/fugCc+RFTz6ctRmdxP+QA5faaitQTEehTYDRPmgiOzC/i461/CSp2MV9KWuCWt+RY/4/Qup7Rnyd+4JT/jehX81caJTKuf4l/S+eH3ua+8u9NVMBc49S/pS5yCSe+ll5Y43nPa3B9KGu+98aNfpAN3hciL+xLPe8GLcQ+3U8yVuQg7M2SH7gnZsaG48/XW+qnvmrUtSGANJ5DgsJBUdWjnimV9V+QYknQAEYI/YfAVgTGJmNTiQH3yqatohs05eyfcV2ODUqzNaetDP4rTszXSZT+0LorDKrDirvHC1mmnIa2fSCD5MIWWQOvsWKXB4z37xm/5qY1T+1zCyz13lpxn78Ff4tTeS/ziV/tuZ/HdgbxqzWr2Hq7Cnnk+rYcACJicNAQa+DuQOE+aNDlWvpTxWHdb3QYKw4XxzBvpdGUwlefe/r6XOKW+OWH8Hp6fCubasp2e++5Vi8/aOD7rCrwFON+LX19EojasPJd7ye9geRvHQV3yro1bnmth0c/4utq61JZZ4nsv/uVe61cbr/ez8UtZ5bk2Tsmvr7t+BbZClE1rfiV+bV6H61mZtRig4Ey4nBNldqwarCCymVEewt+qc5skkwif+AIOYAoE20k2kReULmRnEjYJXB4gxrQDRYm+9O1yH4Nw8BDP9tbyXJKYRxUx8ivPOWoGhMZn+jgE9fSGVQ+m9kfuYoAi16FfuDKksrqDugXZrrb0d/PcznFsI2aeRM491jnNywY5VMP0FedADXkg/1K7Q91LpytfOd+9lFcpaB8etqYyhfZDEjJz8CTRno6p6MFsRN6nFr86I4TLeTNiKFa8yrkUkt0DSV/1r61HX+E9qZ/ap1JW73uBp/j7XvssFOW9FqJav955lLDi3zud732F6V/S1j6XuLVhhuvf20//p9qV8s23PPcut/gfqOza+IWIHSju4fTPdCrGPsizJKmnT3BJLjbLukqMpB/Rt/NP/pV1cWSQxvhyKsY1ot6SLoeDzns8F4/w7eOnCg+Cx3Mulof90umr0zPHiF9+QiZFR+iE4+riamRJv+0n30sNG9gjxqlrWMBJrRAszTy7wXowq4+O4U2A3TR9Hqd1L4BjZMmdMGsS22l4PlTnKg3q/al2vcsunav33dNrgqGy/nxMbNxQ1BWPcMWoRcWKmzC6BcWNuO6R0xW4SVrznJFewsq9r/r1hrGvOE+VX229hamUXfLv/V4Ld21YeS73kt578Sv32rASXhtWnr0XV/xK/L7gKPH7qkfvfA4Ut69yStySR7n3VU5t+hLPe/Ev9xLW+723v+FPh6umjRRFR7dIOSrNg0gY4pl77HfSx3FZA1eeSpLOqSUAx6oWUZwqSrgwNyAG+IfN6cWD4dG3q8Z+4byEqjyXBJLXDJ1POokkPB5lBegQUPWSGpDOdz7067T2h3el8VAiraW6iD6SQbyLi//UrKoSxGsPR9aNno+gfjgrqkGsxIXlWIVcSrnj9QRXwsq9d4TCXpdpXu94pVOZrsgOyvRBvwPFr81vMyoOCvqU1dlQ0X6Bf7ATG2qp+8hRZpflYcSw3a1kzr/vevYuOzLo4+fJxusj6f/Yq5RZ7iWj3u/F33ttWHku977i9RVW4tWG1T4/mfDa+OW53Ev6cq/1L8/lbpwDPZf05V7ilXtv//Je7iVeuff2L+/l3jte8T8c99Dzioztt0Gc5Ld8yR49A7gqPvfvnKTq+EbNU5Mcx2ET6dX1wfnme0UD4u2gP9WYigNpSbcLZSwmcql5L3pUTv3YXd2ECZJOFM9cMWNNkfIxFKiyGn6daMW7CTatuDet/8b705BtD2NeOCsMtkDAOJ0ttUJXnSruRgYW+x3xb517GqulcpkERD0zET8orE8ysDSq9/Jcm7S3X+/32rjlWYJXiJ6rZ2uXoWgKO6ncMX8smDIq90PutYvw4RwrNnXGrEgeBC7q6CuVr7s6Bp5lGAjqEvxFRW8yd1V6dblTqyq8okS5mgbrr1N2kkd8fs+e+z+XPGp8n/BY4DBjpqWacYGHytG4hXYycqwWDqtF/4FYrKxB2iRvAtOMtdOGfdvSvqW/SGu/cltKD30zTVW+BZvlrNZhqsUHZ7wupOqxhaJajvljNnHPxqKqq38o6QYcVbm59N/rtxCjcj9UZgeLJ8Eq3Jn5KHdQ12nlihVoeCC7BHbN0zgj1AKn4R27IV6jxnYb0pMrCyehJm6Pq33u8a0/1THQ3zAQxCs6Mn1WwhVMR+nXQGtXjtfyUNu3DSjpTFgGRE8q/IxShUXa+An/Pn8IzgML/g3Bk8LjDKTA8Y7O1iDsme7llOv2NT9hEzCnBI+ch44SukttbO3Y+GDavvTHacvP/iUN37QyHeGMlanhAGlbjWsn04EuRJLtFowzTFv8itTZOhluLsvpnIJK2yRyh4C4JtcDPxYOyfuhnISrxO8rbm24S9YSMs0yr+fUm0HY3HILiQL4MFEUxIl9cBQ7AuNyYc6lgiHyYbodzRaV9Ef4nooa9wV53a+OgacOAz2cl3nSZ7v7cH6Nkrq7cvdDePf08ZJuv05/oMhV2gPdYmCZoateIcmKmHITLpcNQLtU/fnfrnworfmnN6bRKJk2D13AHrjhmK9vSx3b7ktdCOGPwB9DEqThgnC1Q4mEyJmlNr1i/xkeKGKnUQtfnobMOxtLmS2I6mHRgmhCQIKQCQsJf09nXXTlfqjsDhUvcOPyYZWnW3pWsll587YdHMqBjSapFU4iKOe1i20qC9geo3Z5EOiKQEblKtgiwVNR2ZxR/beOgcOKgSBeh7WE3zXzoBXyXhAPnlW1UPfMvWXBgjUi64LADEUwjRgrDWH5cNDWB2LvpSuEjXjug3ApnPcEbCzwBv0qHGWTxAuOqxHl1J3IvdpYgZx4yiWpYxBbRiAGThczdyTXRwbSAG791Qmj8Ho60dVsmG1Hqz/kfcKMv2FyZm1sSD76mGNjS0epSyGAUc/iWb/XMfAswUC/I15Zix+SpXpGCG3UH8sD1M2u7ZiEGMT8doDq8xAWFzK1Rd/sNkDeNVmzk4GLCXm39ZXFNA8VQsgfs6nUBXHbS9xVvM9+0XtSwm5XA9MvNz0r7o5BH9yIU8h+TLmoclltnDlzZrrm2usO2u0kZJkwZw7Q5zrhOijK6oH9GAP9jni5vSikTi4AxOCSB5OQZVWMvTxjtSmsRQxHluXUsENiBM1hQS0sRQyEKCnqYj9zCOmDI+NZrsrVSnW9tvAz/KSXp8HP/9O0r2koXNceCN5gppPK2PJOAUvueyHimW3RWqIjV+W0sBCmIE7gqjfJpepBlAvkdaJVMFG/P1sx0O+IV0zvxCYPmI+KVTM1/F1MCJtCBMGH+ZNauKBbqQ3CpG6sprKCUMGU6TgfNghYfiEvHrw2P0a6ReelyZe+I7UP5WQaChoAa6Y2uiaAJFrBeBE3niOD/vNTS3gkXsWFfy/CFUSLCHnvao5Z0hg/iF3JoH6vY+BZhIH+R7wkHJIMCReDSy6sMYTP7M2DMrFuRhg2hVjefxziZAViRRCCBQMSRK0diibhU2HVrT+It0IGthXKtRXubOKp56WhF9+YOkYeDQeH/TH3ChGrkSmppCuUXaWiuPjNj/HeH34K8SpEKOCsqG2ACsdaXInbTY1LAPdaDq7Gu/5Yx8CzAgP9jngFVwXqFNkrqA/yISVz2ieVkrRhHBBrY7Fy2FwRKUMw39UdncR5QzLhLL4lFhXT9onj0uhTX59GnHN56hoygcEL4SKfGMQyMBBJZo1BOIMLw0v3xElY9n+mfgvROSDXVBGygK+GkPWGt3Be3QSud4T6ex0D/RgD/Y545WkalAoqEqcYQ5Vie5BWLfCTm3I7UntTa9oOt9XCpVln6Zu0rnvcEk/h/Sb8G1A+bV1wZppz6otR6DohtTWOyioTkkjTmdB43uC45PeYhOY8q2Bv/cUVYlPuB4WrGyF9x3pSefSdtO5bx8AzigFEIQf5ND8DoElLBEmlb6d+qkq4/Uc+rKwENmKWun3rqtS+/KdM9togbrBLQYQkfTwyYF2NbEC3qa2xNTVPwO74tPmwbq3IwBT8q3phHCKTwAUBf4M4UnaM927hG0F1V8dAHQP9DgP9jniJoaBDFffj9DFhajo7tmIqmee9oQFrggOwW8W0z6lmJls9qVVllfC5J5Ljp5kRtsHMqWk+kFVF7YxBFKFSkm6JlZxbcH14SPz0M0znc93VMVDHQP/CQD+cNkpIsrqERMnLgxeCTeKoa8M0xhUa8lj+VHgfAvsgNKZzxRHrmuwH2o4EfxAnrLSSh6cbkTNXNtTjUzb3I9HyxX/Ki2mjPpWkKz8ao+7qGKhjoB9hoN9xXkFIlFcp48IWj6SmnU3YTvYaOweFn0YE97jHkXjarJJgSZtipgfhCs5Jbq1rN/kMJmUzG67R3yKSU8VsG5Z0sFSqVkjT3DYU6VzZlNWSuhVX+1z86vc6BuoYeEYx0O+IV2AD+pFteEk1JCZ6yIVJovIkUYIlb1TFiHukNb5vauCzB9Lj4TuR6IecizBlaXJv5tY9N4RY5WljpMzZlIx987nu6hioY6BfYaB/Eq/eKCr0qPLfn5YY2JeTyOH4yTKrnkyelCy+it5XznW/OgbqGHjmMdDvZF6BEghH4byCz6q4oEy0Mud1cNRVCYgUTxKi4LR4wKNwWXXO6+BYrIfWMdCfMfDs4Lz6MwbrsNUxUMfAM4KBWIN7RkquF1rHQB0DdQz8HhioE6/fA3n1pHUM1DHwzGGgTryeOdzXS65joI6B3wMD/x/53RzhstGVOgAAAABJRU5ErkJggg==;imageBorder=#ABABAB;fontColor=#000000;" parent="1" vertex="1">
          <mxGeometry x="407" y="120" width="210.12" height="95" as="geometry" />
        </mxCell>
        <mxCell id="nCm9h4k0v_SC0XBHQk2t-15" value="PyMongo" style="edgeStyle=orthogonalEdgeStyle;rounded=0;orthogonalLoop=1;jettySize=auto;html=1;exitX=0;exitY=0.5;exitDx=0;exitDy=0;entryX=0.5;entryY=0;entryDx=0;entryDy=0;strokeColor=#000000;startArrow=classic;startFill=1;" parent="1" source="nCm9h4k0v_SC0XBHQk2t-14" target="nCm9h4k0v_SC0XBHQk2t-6" edge="1">
          <mxGeometry x="0.2792" relative="1" as="geometry">
            <mxPoint as="offset" />
          </mxGeometry>
        </mxCell>
        <mxCell id="nCm9h4k0v_SC0XBHQk2t-21" style="edgeStyle=orthogonalEdgeStyle;rounded=0;orthogonalLoop=1;jettySize=auto;html=1;exitX=1;exitY=0.5;exitDx=0;exitDy=0;entryX=0;entryY=0.5;entryDx=0;entryDy=0;strokeColor=#000000;" parent="1" source="nCm9h4k0v_SC0XBHQk2t-14" target="nCm9h4k0v_SC0XBHQk2t-20" edge="1">
          <mxGeometry relative="1" as="geometry" />
        </mxCell>
        <mxCell id="nCm9h4k0v_SC0XBHQk2t-14" value="MongoDB" style="shape=image;verticalLabelPosition=bottom;labelBackgroundColor=none;verticalAlign=top;aspect=fixed;imageAspect=0;image=https://static-00.iconduck.com/assets.00/mongodb-icon-2048x2048-cezvpn3f.png;fontColor=#000000;" parent="1" vertex="1">
          <mxGeometry x="459.56" y="-20" width="95" height="95" as="geometry" />
        </mxCell>
        <mxCell id="nCm9h4k0v_SC0XBHQk2t-17" value="dockerfile" style="image;sketch=0;aspect=fixed;html=1;points=[];align=left;fontSize=12;image=img/lib/mscae/Docker.svg;labelBackgroundColor=#E6E6E6;fontColor=#000000;labelPosition=right;verticalLabelPosition=middle;verticalAlign=middle;" parent="1" vertex="1">
          <mxGeometry x="90" y="-70" width="50" height="41" as="geometry" />
        </mxCell>
        <mxCell id="nCm9h4k0v_SC0XBHQk2t-19" value="docker-compose" style="image;sketch=0;aspect=fixed;html=1;points=[];align=right;fontSize=12;image=img/lib/mscae/Docker.svg;labelBackgroundColor=#E6E6E6;fontColor=#000000;labelPosition=left;verticalLabelPosition=middle;verticalAlign=middle;" parent="1" vertex="1">
          <mxGeometry x="817" y="-70" width="50" height="41" as="geometry" />
        </mxCell>
        <mxCell id="nCm9h4k0v_SC0XBHQk2t-20" value="MongoExpress" style="shape=image;verticalLabelPosition=bottom;labelBackgroundColor=none;verticalAlign=top;aspect=fixed;imageAspect=0;image=https://raw.githubusercontent.com/docker-library/docs/b9077663f53d2a5f3ce3ce52c9249d4b0c684fd9/mongo-express/logo.png;fontColor=#000000;" parent="1" vertex="1">
          <mxGeometry x="722" y="-20" width="95" height="95" as="geometry" />
        </mxCell>
      </root>
    </mxGraphModel>
  </diagram>
</mxfile>
